<svg version="1.2" xmlns="http://www.w3.org/2000/svg" viewBox="0 0 1268 955" width="1268" height="955">
	<title>senegal_regions_monochrome_cleandemoi_labeled</title>
	<style>
		tspan { white-space:pre } 
		.s0 { fill: #9ec5fe;stroke: #1f2937;stroke-width: 1 } 
		.s1 { fill: none;stroke: #1f2937;stroke-width: 1 } 
		.t2 { font-size: 60px;fill: #4c4c4c;font-weight: bold;font-family: "' Deja Vu Sans Condensed" } 
		.s3 { fill: #4c4c4c } 
	</style>
	<g id="Layer 1">
		<g id="Regions_colored">
			<path id="Kédougou" class="s0" d="m1172.3 690.6c0.5 2.2-0.1 1.3-0.2 2.7 0 1 1.5 4.3 1.9 5.4l-0.3 1.9 0.3 0.6c0.2 0.1 2 0.6 2 0.6 0.7 0.5 1.6 1.7 2.3 2.3l0.9 0.3 1.9 0.4c1.3 0.6 2 2.9 2.2 4.2l2.3 2 0.1 0.9c-0.9 1.2-2.1 2.5-2.7 3.6-0.7 1.4-0.3 5.2 0.5 6.7 1.5 1 5.9 0.2 6.8 1.8l0.2 2.1-2.9 4.6 0.2 0.9 2.6 1.8 1.3 4.3c0.6 0.4 0.8 0.6 1 0.7 0.2 0.1 0.5 0.2 1.1 0.4l1.7 2.8 3.7 0.1c2.5 0.1 3 0.2 4.4 2.2 0.3 0.5 0.7 1.1 0.8 1.8-0.1 1-0.6 2.4-1.3 3.2-0.1 1.1 3.2 4.4 3.8 5 0.1 0.6-0.1 2.6 0.2 3 0.9 0.4 1.8 1.1 2.4 1.9l-0.3 0.9c-0.5 0-1.5 0.3-1.9 0.7l-0.5 1c0.1 0.7 0.9 1.9 1.4 2.4 0.1 0.6-0.8 2.2-1.1 2.7l0.3 0.4 0.9 0.1 1.3-0.8h0.5l1.3 1.4 0.9 0.3 0.6-0.5c0.4-1.5 0.2-3.2 0.2-4.7 0.2-0.3 0.7-0.8 1.1-0.8l1.9 0.5c0.7 0.2 1.8 2.2 1.9 2.7 0.2 1-0.3 2.3-0.1 3.3 0.2 1.1 0.9 2.5 1.3 3.5l0.1 0.4-0.3 0.9c-0.1 0-0.5 0.3-0.6 0.3-1.7 0.4-5.3 1.8-6.8 0.3-0.5 0-1.3 0.2-1.7 0.5l-0.4 1.8 0.6 1.3 2 1.2 0.1 0.5-1.9 2.4c-1.8 2.1-2.2 3.7 0.1 5.6 0.2 0.3 0.2 1 0 1.3l-2.5 2.1c0.8 0.7 1.1 2.5 1 3.5l0.5 0.3c1 0.1 2.2-0.2 3.1-0.6l0.3 0.1c-0.5 0.4-0.8 2.2-0.7 2.7 0.2 1 0.8 2.3 1.1 3.3-0.6 0.8-0.7 2.7-0.5 3.6l-1.8 1v0.6c1.3 1.2 2 2.3 2.9 3.8l-0.7 0.9 0.1 0.8 2.2 1.5 0.2 0.4c-0.9 0.3-2.3 1-3.3 1.1-0.2 0-2-0.3-2.4-0.4-1.2 0-2.6 0.1-3.8 0.2l-0.6 0.6-0.5 4.9-0.7 0.5-1-0.6-0.4 0.3c0 1.2-0.6 3.5-1.7 4.4l-0.1 2.2 0.6 0.5 2.9-0.2 1.9 1.5 1.8 5.4c-0.4 0.9-2.3 1.9-3.2 2.2l-0.2 0.7 0.4 1.5 2.9 2.6 0.3 0.9-1.1 3.8-0.3 0.3h-4.1c-0.6 0.1-1.5 2.7-1.7 3.3l0.4 1.2 1.9-0.8 0.6 0.3c0.7 0.5 0.8 2.5 0.9 3.4 0.1 0.5 2.3 1.1 2.8 1.2l0.2-2.4 0.6-0.6c0.7-0.4 3 0.2 3.5 0.7l0.2 0.4-1 1 0.1 0.4 1.6 0.9 1 2.1c-0.7 1.4-1 3.6 0.3 4.7l0.6 0.1 0.4-0.9c-0.3-0.6-0.2-1.8 0.2-2.5l1.3-0.6 0.7 0.3c0.6 1.2 0.9 3.1 0.3 4.3l1.2 2.3-0.2 0.6c-1.5 0.5-1.3 1.2-2.1 2.1-0.4 0.5-1.1 0.9-1.6 1.4l-0.4 0.9c1 2.5 1.4 3.4 0.1 5.7-4.5-0.1-4.9-0.4-8.6-2.6-0.6-0.4-0.9-0.6-1.6-0.9l-3.3-1.4c-0.7-0.3-1-0.5-1.7-0.7-0.4-0.1-0.7 0-1.1 0l-5.7-0.1-6.7-0.1c-3.4 0-9.9 2-13.2 2.9v0.3h-0.6c-2.2 0.2-4.5 0.5-6.7 0.6-0.5 0-1.2-0.4-1.7-0.4-1.4 0.1-3.3 0.4-4.5 1.1-1 0.6-2.1 1.4-3 2-1.6 1.2-2.7 2.7-4.7 3.2-1.2 0.3-3.2 0.4-4.3 0.5l-5 0.6c-1.4-0.1-3.1-1-4.5-1.1-1.7-0.2-3.6 0.2-5.3 0.1-2.2-0.1-4.5-0.6-6.7-0.9-1.7-0.2-5.2-3.1-6.3-4.2l-0.9-0.2-0.8-0.9c-1.9-2.2-5.5-0.9-7.7-0.1-0.2 0.7-4.7 3.4-5.5 3.7-3.3 1.1-7 2.2-10.6 1.9-0.9-0.1-3-1.5-3.6-2l-0.2-0.8-2.4-2.4c-0.7 0.1-4.5 0.7-4.9 1.1-0.8-0.8-2.9-1.2-4-0.7l-2.1 1.1c-0.4 0.3-0.6 0.3-1 0.6-1.1 1-2.1 2.4-3.2 3.4-0.5 0.5-1.3 0.7-1.8 1.2-1.3 1.2-2.5 2.7-3.7 4l-1.3-0.1c-0.9 1.2-2.2 1.8-3.7 1.5l-0.6 0.5c-1.7-0.1-7.3 0.2-8.7 0.7-1.4 0.4-2.2 0.9-3.6 1.5l-7.2 3.1c-0.4 0.2-0.7 0.6-1.1 0.8-0.7 0.4-1.5 0.5-2.2 0.9-2.2 1.1-5.6 3.4-8.3 3-0.9-0.4-3.1-2.6-2.9-3.6-0.4-0.5-1.2-1-1.6-1.5 0-0.1-0.1-0.6-0.1-0.7-0.8-1.2-1.5-2.6-2.4-3.8-0.9-1.2-3.2-2.9-4.6-3.5-1.2-0.6-2.6-1-3.8-1.6-1-0.5-1.9-1.3-2.9-1.8-1.3-0.5-3.2-1.1-4.6-1.4-0.1 0-2.8-0.3-2.9-0.3-0.7 0-1.4 0.9-3.2 0.6l-3.8 2.7c-1.9 1.4-4.5 3.7-7.2 2.9-0.7-0.7-1.8-1.7-2.4-2.6-0.5-0.8-0.8-1.8-1.3-2.6-0.5-0.7-3.4-1.7-4.1-1.9l-3-4.1c-0.7-0.3-1.6-0.8-2.3-1-3.1-0.9-12-0.2-15.3-0.1-0.1 0-0.6 0.3-0.7 0.3l-3.6 0.2c-0.1 0-3.1-1.1-3.4-1.2-0.7-1-1-3.3-1.1-4.5-0.5-0.5-1.8-1.7-2-2.5l-0.9-0.2-0.9-0.8c-1.2 0-2.4 0.7-3.5 0.6-1 0-5.4-2.2-6.4-2.7-0.1 0-1.4-1.7-1.5-1.8v-2.8l-0.7-1c-1.2-0.3-4.6-1.3-5.4-2.2-0.6-0.7-0.6-1.3-1.5-1.9l-1.1-0.8c-1.1 0.6-2.1-0.5-3.3-0.2-2.5 0.6-4.1 1-5.4 3.2l-0.5 0.9-0.7 6.5h0.1c-0.8 1.5-4 4.3-5.5 5-2-0.7-4.7-2-6.6-2.5-1.5-0.3-3.2-0.8-4.7-0.7-1.4 0.2-2.7 1-4.2 0.8-0.1 0-1.3-0.5-1.5-0.6-1.7-0.7-2.6-3.2-2.7-4.9 0-0.8 0.3-1.7 0.2-2.5-0.1-0.9-0.6-2-0.9-2.8 0.1-0.8 1.6-2.1 2.1-2.4 0.3-1.2 0.6-2.5 1.1-3.6 0.5-1.4 1.6-2.7 1.7-4.2 0.1-2.4-1.2-4.8-1.1-7.3-0.2-0.1-1.6-1-1.6-1.1-0.6-0.7-1.1-1.9-1.6-2.7-0.2-0.1-0.9-0.2-1.2 0-0.6 1-2.1 2.3-3.3 2.6-0.9-0.2-1.9-1.2-2.6-1.7-1.1 0.2-3.4-0.9-4.3-1.6 0 0 0.3-1.9 0.3-3.4 0-1.5 0.5-2.5 1.8-3.7 1.2-1.3 3.2-3.8 3.2-3.8 0 0-1.2-2.7-2-5-0.7-2.2-1.7-4.5-1.5-6.2 0.3-1.8-0.2-3 0.8-4.3 1-1.2 1.5-3.2 1.5-3.2l2.2-1.7c0.8-1.1 1.9-3.4 0.7-4.5-2.2-2.1-2.2-0.5-4.2-0.1-2.8-2-2.6-0.2-4.5-0.8-1-1.5 2.3-7.3-3.2-7.1-0.1-0.5-0.1-0.9-0.1-1.4 0.3-3.7-0.5-2.4-1.3-3.7 1.2-0.1 2.3-0.1 3.3-0.8l0.3-0.3c0.6-0.7 1-1.7 1.1-2.6v-0.5c-0.3-1.3-0.9-2.2-1.4-2.9-0.9-1.4-0.8-2.9-1.7-4.2-1.2-2-2.5-2.8-4.6-3.1-3.2-0.5-3.7-4.7-6.9-6.1-0.9-0.7-3.2-2.1-3.5-2.9q0.3-1.1 0.3-1.9c0 0 3.4-0.2 3.6-2.9 0.3-2.8 1.5-3 3.9-3.3 2.2-0.2 5.5-1.5 8.7 0 3.3 1.5 4 1 6.5 3.5 2.5 2.5 4.8 2.8 5.8 0.8 1-2 2-4.5 5.2-3.5 3.3 1 5 0 6.5-2 1.5-2 3.5-2 6.3-2.3 2.7-0.2 4.7-0.2 6.7-0.2 2 0 3.5 1 5 2.7 1.5 1.8 2 3.3 3.8 3.3 1.7 0 3 1 4 2.2 1 1.3 3 2.8 5.5 4.3 2.5 1.5 7.2 3 7.7 0 0.5-3 0.5-4.3 3-4.5 2.5-0.3 4.3-0.3 5-2 0.8-1.8 0.3-3.8 2.8-4.5 2.5-0.8 2.5-1.8 4.2 0 1.8 1.7 4.3 1.7 4-1.3-0.2-3-1.2-4.5 2-4.5 3.3 0 0.8-2.2 3.8-3.7 3-1.5 3-1.3 2.5-4.3-0.5-3-0.5-5.2-0.5-6.5 0-1.2 2.5-0.7 4.7-1 2.3-0.2 0.8-1.7 3.3-2.2 2.5-0.5 6.2 0 6.5-1.6 0.2-1.5 1.7-2.8 3.5-1.3 1.7 1.6 1.2 2.1 3.7 3.1 2.5 1 3.8 1.8 7.5 0.5 3.8-1.2 5-2.3 6.5-2.6 1.5-0.2 2.5-4.7 2.5-4.7 0 0 1.3-6.6 4-7.1 2.8-0.5 3.8-1.3 4.3-3.3 0.5-2 1.2-3.2 4-3.2 2.7 0 4-1.5 6.5 0 2.6 1.5 4.3 2.2 5.3 3.5 1 1.2 1.5 2.7 3.3 2.5 1.7-0.3 0.2-2 2.2-4 2-2 2-2.8 2.3-5 0.2-2.3 0.7-2.5 3-2.5 2.2 0 4 2 7.2 0.7 3.3-1.2 5-1.7 5.8-2.7 0.7-1 1.2-2 1.2-2 0 0-2.7-3-4-4.5-1.2-1.5-3.5-2.8-3.7-4.5-0.3-1.8-3.3-3.5-0.8-5.5 2.5-2 3-2.5 3-4.8 0-2.2 0.3-5 0.3-5 0 0 4 2 6 3 2 1 3.7 2.5 4.5 3.5 0.7 1 2.2 1.8 5.5 2.5 3.2 0.8 4 1 5.5 2.8 1.5 1.7 2.7 3.2 4.7 4.2 2 1 5 2 7.5 3 2.5 1 3 1 4.5 0 1.5-1 2.5-0.7 2.5-0.7 0 0 0.8 2 0.5 3.2-0.2 1.3-1.2 4.5-0.7 5.8 0.5 1.2 1 2 3.2 1.7 2.3-0.2 1-1.7 4-3 3-1.2 5.5-4.7 6.3-5.7 0.7-1 1.7-2.5 4-2.5 2.2 0 3.5-0.5 4.5-1 0.4-0.3 1.8-0.8 3.2-1.3q-0.1 0.1-0.1 0.1l0.6 0.5c0.5 0 1.1 0.2 1.6 0.4 1.5 0.8 1.8 1.2 2.7 2.7 0.1 0.2 0.1 0.4 0.3 0.6 0.6 0.6 1.6 1.2 2.2 1.8 0.1 0 0.3 0.1 0.3 0.2 0.8 1.1 1.7 2.2 2.4 3.3 0.8 1.3 0 3.3 0.6 4.9l1.2 1.1 3.7 0.1c1.9-0.6 2.8-2.6 2.9-4.5l0.9-0.9c0.7-0.1 3.2-0.7 3.7-1.3l0.1-1.1 0.3-2.3c0.6-1.2 2.9-3.6 3.7-4.9 0.3-0.5 0-3.1-0.1-3.7l1.7-1.8 3.2 0.2c0.6 0 0.9-0.1 1.5 0.1 0.3 0 0.4 0.2 0.6 0.3 1.3 0.7 1.7 0.7 2 2.2l0.3 1.7 0.8 0.6c0.3 0 5.5 0.3 5.6 0.3 1.2-0.4 4.8-1.9 6-1.2 0.4 0.6 0.7 1.7 0.6 2.4-0.8 0.7-1.8 2-2 3l0.1 0.8 4.7 0.5 1.9-1.3 0.8 0.2z"/>
			<path id="Matam" class="s0" d="m852.5 210.6c0.7 1.3 4.3 4.5 5.4 5.5l-0.1 0.4c-0.6 0.3-1.8-0.2-2.3-0.5l-1.1 0.3c-0.6 0.5-1.2 1.8-1.3 2.6 0.1 0.2 1 2.6 1 2.6 4.8 4.2 9.5 8.5 14.3 12.6 0.9 1.7-1.2 4.3-2.7 4.8-0.8-0.5-3-1.3-3.9-0.8-2.4 2.2 1.7 9 2.7 11 0 0 1.8 1.6 1.9 1.6 0 0.1 1 0.4 1.1 0.4l3.7-2.7c0.7-0.2 2.8-0.2 3.5 0.1 1.5 0.6 2.9 1.7 4.3 2.5 4 2 8 3.9 12 5.9l0.4 1-0.4 1.4c0.1 0.2 0.9 1.7 0.9 1.8l0.1 2.2c-0.5 1.8-1.5 3.7-2.2 5.4-0.4 0.8-0.3 2.4-0.1 3.2 0.5 1.5 3 2.6 4.2 3.2 1.1 0.7 2.8 1.7 4.1 2.1l1.7 0.2c0.3 0 0.5 0.1 0.8 0.1 0.7-0.1 1-0.3 1.6-0.4l3.3-0.8c1.4-0.6 2.4-2.4 4.1-2.7 2.8-0.6 1.9 0.2 4.8-1.4l1-0.6 0.8 0.5c0.4 0.6 0 2.4-0.2 3l0.9 2.6-0.6 3.1 0.6 1.9 0.7 0.3c2.1 0.9 1.5 0.2 3.4 0.4 0.1 0 0.7 0.3 0.8 0.3 0.3 0.1 0.6 0.7 0.8 0.9v0.8l-1.4 1.8c-2.3 2.9-2.1 5-1.8 8.4 0.2 1.3 0.4 2.8 0.7 4.1l1.3 1.1 2.6 2.1c1.1 0.8 2.5 0.6 3.7 0.8 1.5 0.3 2.9 0.9 4.3 1.5l2.9 1.4 2.5 2.5c0.4 0.5 0.7 0.8 1.2 1.3 0.6 0.8 1.6 3.2 1.6 4.2l-0.2 1.8c-0.1 0.9-0.6 2.1-1.3 2.8l-1.8 0.8c-1.9-0.3-4.3-1.6-5.8-2.6l-1.3 0.2-1.2 1-0.1 1.5 0.7 1.6c2.1 1.1 5.2 3.4 6.6 5.3 0.7 1 1.4 2.5 2 3.6 0 0.1 0.6 0.6 0.7 0.7l1.5-0.4c1.4-1.5 4.4-4 6.6-2.5l1.2 1c0.5 0.5 1.1 1.5 1.2 2.2l-0.1 1.7c-0.1 2.1-0.4 4.3-0.1 6.5 0.7 1.7 3.3 2.2 4.7 2.9 0.6 0.3 1.6 0.9 2.2 1.3 1.6 1.3 3 2.8 4.7 4.1 0.9 0.7 2 1.5 3 2.1 0.7 0.5 1.7 0.7 2.4 1.2 0.1 0 1.7 1.9 1.9 2.2l0.5 0.1c0.3-0.5 0.4-0.6 0.5-0.8 1.4 1.3 2.5 2.9 3.7 4.4 0.1 0.3 0.5 0.4 0.6 0.6 0.5 0.5 0.8 1.1 1.2 1.6 0.4 0.5 0.9 1 1.3 1.5 0.1 0.2 0.2 0.6 0.4 0.9 0.8 1 1.8 1.8 2.5 2.8 0.6 0.8 0.9 1.9 1.4 2.7 0.1 0.1 0.6 0.5 0.7 0.6 0.6 0.8 1 1.8 1.6 2.5 0.2 0.3 0.5 0.4 0.7 0.7 0.3 0.5 0.8 1.1 1.1 1.6 0.1 0.2 0.3 0.8 0.4 0.9 0.4 0.5 1.1 0.8 1.4 1.3 0.9 1.2 2.1 2.8 2.7 4.1 0.6 1.1 1.2 2.9 1.6 4.1 0.3 0.9 0.9 5.2 0.6 6-1.3 3.3-2.7 6.8-4 10.1-0.5 1.2-0.8 2.3-1.2 3.4l-6.2 16c-1.2 3.1-1.5 5-3.1 7.9-2 3.7-3.7 5.6-6 9.1l-12.2 18.3c-0.2 0-0.4 0.1-0.6 0.2l-36.8 4.2-1.9-0.4c-2.5-0.6-4.9-0.9-7.3-1.4l-40.7-8.2c-1.1-0.3-2.3-0.4-3.4-0.6l-54.3 39.2c-1.6-0.3-3.2 0-4.8 0h-20.3c-1.1 0-2.2 0.2-3.4 0.2-2.2 0-4.4-0.1-6.7-0.1l-15.7 0.2-7.8 0.1-88.4-34.2c-1.1-0.4-2.3-0.8-3.5-1.2l-10.7-18.8-5 4.5-8 0.5-12.5 13h-8l-16.9 4.8c-5.9-1.9-11.9-3.4-17.9-5.1-2.2-0.6-4.4-1.4-6.7-2-1.1-0.4-2.4-0.6-3.5-0.9-4.5-1.2-9-2.5-13.5-3.8q-0.5-0.6-1-1.3l0.5-0.2 9.5-10 2-13.5 7.5-4.5 8.5-15.6-8-17.1-6.5-19.5 13-5.5 22-1.5 14-4.5-7.5-6 11.5-47.5-15.5 3.5-24-12-9.5-3.5 7-11 1.5-35 16-6.1 23.5-20q1.2 1.6 2.1 3c1.6 2.9 3.1 5.8 4.6 8.7l34.8 18.4 3.5 4 57.1-44.6 24-22.5 2-5.5 20.5-8.5 4.8-13c0.9 1.2 1.8 2.1 2.4 2.4 0 0 1.2 0.2 1.3 0.3 0.7-0.5 3.6-2.6 4.5-2.6 1 0 2.1 0.6 3.2 0.6 0.2 0 0.3-0.1 0.5-0.2 1.1-0.4 1.4-0.8 2.3-1.3 0.8-0.3 1.7-0.4 2.4-0.8 1.2-0.7 2.4-1.6 3.8-2.5 0.7-0.3 1.7-0.9 2.4-1.1 0.6-0.1 2.6 0 3.1 0.1l2 0.2c1.4 0.3 2.9 1 4.3 1.2 0.3 0 0.5-0.1 0.8-0.1 2.3-0.2 2.6-0.2 4.5-1.6l2.5-1.9 0.8 0.1c0.8 0.5 2.3 1.8 2.5 2.7l-0.5 1.2c-1.3 0.8-2.8 0.6-3.9 1.1-0.1 0.1-2 1.6-2.2 1.7-0.6 0.5-1.7 2.1-1.6 2.9 0.3 1.1 1.9 2.5 2.8 3l1.6 0.1c2.3-1.5 2.5-5.4 5.8-5.2 1.3 0.6 1.6 2.6 2.1 3.8 0.4 0.7 1.4 1.3 2.1 1.7 0.1 0.1 0.2 0.2 0.3 0.2 3.8 1.4 7.7 2.8 11.4 4.5 2.1 2.1-1.3 6.1 0.2 9.6-0.9 1.1-0.3 5.1-0.3 6.4 0.5 0.6 1.1 1.3 1.5 2 0.2 0.3 1.6 3.1 1.7 3.2 1.1 1.2 4.3 3.5 5.8 4.6 0 0.1 0.8 1.3 0.9 1.4-0.9 0.9-2.4 2.9-2.6 4.2 0.1 0.9 0.9 2.2 1.6 2.7 0.4 0.3 1.3 0.3 1.8 0.7 0.9 0.7 1.9 1.8 2.4 2.9-0.2 1.1-0.7 2.6-0.7 3.8 0 0.6 1.4 4.8 1.6 5.2z"/>
			<path id="Saint-Louis" class="s0" d="m623 214.4c-7-8.8-23-19.4-31.5-26.5-2.1 0-8-0.8-8.5-1l-11.7-0.5c-0.8-0.5-14.9-10.3-15.8-10.8-44.7 0.1-105.2 1.5-105.2 1.5 0 0 0.2 15-1.2 15l-30 1.4c-8.3-9.8-16.7-19.4-25.1-29.1-1.9-2.1-3.6-4.4-5.4-6.5-5.1-5.9-10.2-11.7-15.3-17.6l-1.3-1.5c-1 0.9-1.5 1.9-2.3 2.8-2.7 2.5-5.2 3.6-8.5 5.2-0.1 0-0.6 0.6-0.6 0.7 0.2 1.5-1.7 4.3-2.5 5.5-0.2 0.2-0.5 0.4-0.7 0.6-0.1 0.2-0.8 1.3-0.8 1.3-7.3 4-14.5 8-21.7 12l-16.8 9.6c0 0-3.9 2.1-7.1 0.9-3.3-1.3-5.5-1-7-1-1.5 0-5.5 0.5-5.5 0.5 0 0-2.3 2 0 2 2.2 0 3.7-0.3 3 1.2-0.8 1.5-1.3 3.3 0.2 2.5 1.5-0.7 4.5-1 4.3 1.3-0.3 2.2-2 5-3.3 6.5-1.2 1.5-3.5 3.7-3.5 3.7h-4.2l-3.5 5-3.8 1c0 0-0.5 4-1.5 5-1 1-6 1.8-7.7 1.8-1.8 0-4.3 0.2-5 1.2-0.8 1-4 4.3-7.3 4-3.2-0.2-9.7-0.7-10.7-0.7-1 0-6 0.5-7 0.5-1 0-8.3-0.5-8.3-0.5l-0.4-0.1 0.6-3.2 0.4-5.9 0.4-7 0.7-4.3 1-9.5-0.2-3.6v-2.3l-0.6-4.9 5.8-7c0.8-0.6 2.2-3.2 3.2-2.9 0.2-0.6 1.3-1.5 1.8-1.8l1.6-0.1 1.1-1.3-0.1-1 1.6-0.9 0.3-0.8c0-0.6-2.1-2.3-2.5-2.7-0.5-1.1 1.9-3.2 0.3-5.5 0.2-0.4 0.6-1.5 0.6-1.8-0.1-1.3-0.4-3-0.3-4.2 0-0.7 2.6-5.1 3-5.8 0.4-0.7 4.2-2.3 5.1-2.2 0.7 0.6 2.1 1.3 3 1.2 0.7-0.4 1.4-0.8 1.9-1.4 0.6-0.9 1.6-1.9 2.2-2.9 0.6-1.2 0.8-2.7 1.4-3.8l1.5-2 0.8-1c0.2-1.5-1.9-3.1-2.5-4.3l-0.5-1.7-0.2-0.8c0.5-1.1 1.9-5.5 2.9-6h1.8l0.4-0.4c0.6-1.1 1.4-2.2 1.8-3.3 0.6-1.3-0.4-4.3-0.5-5.7l0.4-1.6c0-0.3 0-0.6 0.1-0.9l0.9-1.1 0.5-0.6 1.7-0.1 0.9-0.8c0.1-3.4 0.1-7.9 2-11.1l1.5-0.8c1.3-0.7 1.6-1.5 1.5-3.1 0-0.5-0.3-1.3-0.2-1.9l0.3-1.4c0.1-0.6 0.4-1.4 1-1.8h0.3l0.4-0.8c0.9 0.1 1.5-1 2.2-1.4 0.8-0.3 3.3-0.6 4.1-0.4 3 0.5 2.9 2.6 7 2.2l2.8-0.2 1.4-0.9c0.7-0.5 1.9-1.3 2.5-2.1 0.9-1.1 1.4-2.5 2.8-3.1 2.3-1 4.7-1.2 7.1-1.6 0.6-0.1 1.4 0.4 1.9 0.7 3.3 1.8 0.5 4.4 1.8 6.1 2.1 1 5.3 3.5 6.7 5.2 0.7 1 0.8 2.5 1.9 3.1l1.2 0.2 1-0.5 2.1-1c1.1-0.7 1.9-2 3-2.7 0.7-0.5 2.8-0.5 3.8-0.5 1.2 0.7 3 2.1 4.3 2.5 0 0.1 2.4 0.2 2.6 0.2 2.2-2.1 5.5-4.2 8.3-5.3 2.5-0.9 6.9-0.7 9.3 0.5 0.6 0.7 0.9 2.7 1 3.6 2.2-0.7 3.2-1.7 4.9-2.5 0 0 1.5-0.2 1.6-0.2 4-0.2 3.3 0.6 6.7 2 0.7 0.3 4.3 1 5.1 1.1 1.7 0.1 4.2-0.2 5.8 0.6 1.5 0.8 3.2 1.9 4.7 2.9l1-0.1 1.3-1.3 7.4-1.1c1.6-0.2 3.5-0.5 4.7-1.9 0.6-1.3-0.3-3.1-0.9-4.2l0.5-1.5 1.1-0.8c1.4-0.1 3.8-0.5 5.1-0.4 0.1 0 2.6 1 2.8 1.1l0.1 0.4c0.6 0.3 1.4 0.9 2 1.1 0.5 0.2 3.9 0.5 4.4 0.5 2.3-0.4 4.4-1.4 6.4-2.4l0.1-0.5 0.3 0.1 0.6-0.8-0.1-0.5c-1.2-1.5-1.6-1.7-1.9-3.5l-0.1-0.7 1.1-2.4c1.5-1.1 3.5-1.2 5.1-1.9 0.9-0.4 1.3-1.6 2-2.1 0.2-0.2 0.3-0.2 0.6-0.4 1.7-0.8 2.1-0.8 3.8 0.1 0.2 0.1 0.4 0.1 0.6 0.3 0.4 0.4 0.5 0.7 0.9 1.1l2 2.2c0.1 1.3 0.4 2.8 0.9 4.1 1 1.3 2.5 1.7 4.1 1.9 0.3 0 0.5 0.2 0.8 0.1 0.1 0 3-1.2 3.4-1.3 0.6-0.5 1.4-1 2-1.5 0.7-0.6 1.4-2 2.6-2 1.2-0.1 2.6 0.2 3.8 0.1 1.8-0.1 4-3.5 5.7-3.4 1.1 0 2.8 0.2 3.9 0.5 0.9 0.2 1.8 0.7 2.6 0.9 1 0.2 2.2-0.2 3.2-0.1 1.9 0.3 3 2.9 5.6 2.8 2.3-0.5 4.3-2.5 6.2-3.8 0.8-0.5 1.9-0.7 2.6-1.3 0.1 0 1.4-1.5 1.5-1.7l1.2-0.3c1.4 0.5 2.5 0.8 3.9 1l0.4 0.4c2.1 1.3 6.6 0.7 8.7-0.6 0.5-0.3 0.8-0.8 1-1.3l0.5-1.3c0.2-0.6-0.8-2-1.2-2.4-0.8-0.7-1.4-0.3-2.1-0.6-0.6-0.2-1.3-0.6-2-0.9-0.9-1.2-0.6-2.2-0.2-3.5 0-0.1 0.2-0.6 0.2-0.6 1.6-2.5 3.4-5.5 6.7-4.8 0.3 0 1.4 0.5 1.6 0.7 1.6 1.8 3.4 5 4.5 7.2 0.3 0.4 0.9 0.5 1.4 0.6l1.2 0.3c2.3 0.1 4.9-2.3 6.2-3.8 0.3-0.9 1.4-5.6 1.7-6.2 0-0.1 0.5-0.9 0.5-1 0.6-0.6 2.8-1.2 3.5-0.9 0.5 0.1 1.1 0.5 1.5 0.7 0.3 0.8 0.9 0.8 1.4 1.2 0.4 0.5 0.8 1.1 1.2 1.6 0.3 0.5 0.7 1.5 0.9 2.1 0.3 1.6 0.6 4.1 1.6 5.3 0.5 0.2 1.8 0.4 2.2 0l3-3 0.8-0.1c0.6 0.5 1 2 1 2.6l0.6 0.5 1.2 0.1 0.5-0.3c0.8-1.4 1.3-3.2 1.8-4.7l0.8-0.6 1.3 0.2 3.5 4.2 3.5-0.3 1.5 1.2h0.9l0.3-0.2 0.3-2.5 0.9-0.9 1-0.2c0.7 0.6 4.1 4.4 4.9 4.3 0.4-0.7 2.6-4.8 3.3-4.8 1.3-0.1 3.5 1.3 3.7 2.6-0.3 0.6-0.3 1.8-0.2 2.4l2.1 1.7h0.6l-0.3-1.7c0.3-0.4 1.1-0.7 1.6-0.7l0.2-2.4 1.4-0.1q0.7 0.5 1.4 1.1c2.2 0.5 4.2-0.8 6.3-1.6l1 0.2 2.1 0.4c1.3 0 2.3-1 4.5-0.5l1 1c0.5 2-0.8 2.7-2.6 2.8l1.7 1.5 0.8 0.1 1.1-1.5c0.1 0 1.5-0.3 1.6-0.3 1.3 0.2 3.2 0.8 4.1 1.9l0.9-0.8c0.9-0.4 1.3 0.2 2 0.3 2.3 0 2.2-0.7 4.7 0.1l0.7 0.2 1.1-3.6c0.1-0.4 1-0.9 1.4-1 1.3 0.7 1.8 1.8 2.8 2.7 0.3 0.3 1 0.2 1.3 0.7 1.3-0.1 3.4 1.1 4.2 1.9 0.6 0.1 1.4-0.1 1.9-0.2l0.3-0.5 0.7-0.1 0.9-0.9c1.3 0.1 4.9 0.3 6-0.1 2.1-1.3 0.7-3.5 4.9-4.8l1.1 0.2c0.3 0.8 1.3 1.9 1.9 2.6 1.5 0.3 2.9 0.1 4.4 0.2 1 0 2.1 0.2 3.1 0.3h0.2c1.1-0.4 2.5-1.1 3.7-1.3l1.3 0.2 0.6 0.1c2.2 0.9 1.9 3.7 2 5.6 0 0.6 0.1 0.9 0 1.5-0.3 2.2-2.4 4.7-0.7 7l0.5 0.1c1.6-1.1 2.5-1 4.3-1.3 0.3 0 0.5 0 0.8-0.1l1.8-1.4 0.9-0.7c0.6-0.1 1.7 0.4 2.2 0.8l0.8 1.7-0.2 1.3-0.3 2.6c0 1.8 1.5 5.2 2.4 6.7h0.6l-0.6-2.6c0.3-1.2 0.7-2.2 1.7-3 2.3-1.8 9.4 1.3 9.9 3.8-0.2 0.8-0.4 2.6 0 3.4 0.5 0.2 6.1 3 6.1 3.1 0.6 0.9 2.7 4.1 3.8 4.3 0.6-0.6 2-1.1 2.9-0.9l0.3 0.6-1.2 2.2 0.5 1.8c0.6 0.6 2 1.4 2.9 1.3 1.7 1 1.8 3.5 3.2 4.4 1.2 0.7 2.6 1.2 3.8 1.9 1 0.6 1.9 2.3 2.7 3.2 0.4 0.6 1 1.3 1.5 1.7 0.2 0.1 0.7 0.2 0.8 0.3 2.1 1.6 4.4 5.3 5.6 7.3 1.7 0.9 2.2 0.2 3.4 0.3 1.6 0.1 2.8 1.4 4.2 2 0.8 0.3 1.9 0.4 2.6 0.8 1 0.5 2 2.2 2.1 3.3l0.3 0.2c0.2 0.8 0.4 1.5 0.6 2.3-0.8 1.3-4 0.8-5.2 0.7l-0.5 0.2c-0.5 0.9 0.4 4.2 0.8 5.1l3.5-0.4 2.1 1.2 0.5 1-2.3 2c-0.5 1.6-1.7 4.8-1.4 6.4l0.6 0.1c0.7-0.5 3.8-2.8 4.9-2.5l1.9 1.2 1.9-0.3 0.7 0.4 0.3 0.9c-0.8 1.5 0.7 5.7 2.6 6.2 1.3-0.3 3.3-1.1 4.5-0.4 2.9 2.5-0.2 4.5 0 7 0.2 2.7 2.2 3.4 2.7 5.9l1.8 0.6c0.4 0.4 0.7 2.4 0.7 2.9l1 0.7c0.4-0.7 0.9-1.9 1.4-2.6l1.8-1.7c0.5-0.5 1-1.1 1.6-1.4 1.2-0.6 3.7-1.2 4.9-1.3 1.6-0.2 3.3 0 4.9-0.2l2.2-0.7c0.4-0.1 0.7-0.1 1.1-0.3 1.4-0.7 3.3-4.8 5.6-6.1 1.2-0.2 2.9 0.9 3.4 2 0 0.6 0.1 1.2 0 1.8-0.2 2-2.3 3.1-3 5.1 0.2 1 1.7 3.4 3.1 5.2l-4.8 13-20.5 8.5-2 5.5-24 22.5-57.1 44.6-3.5-4-34.8-18.4c-1.5-2.9-3-5.8-4.6-8.7q-0.9-1.4-2.1-3z"/>
			<path id="Kolda" class="s0" d="m622.5 701.1c0.7 0.1 1.5 0.5 2.2 0.6 1.8 0.3 3.8 0.3 5.6 0.4 0.1 0 0.9 0.2 1.1 0.3 1.1 1.4 2.1 3 3.3 4.3 0.7 0.7 6.2 5.1 7 5.7 2 1.2 5.2 2.6 7.6 2.9 0.8 0.1 1.8-0.1 2.6 0 0.2 0 0.8 0.2 0.9 0.2 2.4-0.4 4.9-0.9 7.3-1.1 0.8-0.1 1.7 0.1 2.4 0 1.2-0.1 2.5-0.5 3.7-0.5l2.6 0.6c1.2 0.7 2.9 2.4 4 3.2 0.6 0.5 7.8-0.3 8.9-0.4 1.6-0.2 3.3 0.1 4.9 0 1 0 1.9-0.2 2.9-0.3 0.1 0 0.5 0.2 0.6 0.2 2.2-0.2 3.2-0.8 4.4-2.6 0.2-0.3 0.4-0.4 0.5-0.6 0.2-0.9 0.3-1.4 0.4-2.3l1-4.3c0.6-1.4 2.9-1.9 4.1-2.3 0.2 0 0.3-0.1 0.5-0.1 1.9-0.3 4.1-0.8 6.1-0.9 1.5 0 2.1 0.5 2.9 0.6 0.8 0.1 2 0 2.6-0.1 0.6-0.1 1.1-0.4 1.6-0.5 1.5-0.2 3-0.2 4.4-0.5 3.3-0.7 4.7-2.4 7.5-3.7 0.7-0.4 1.9-0.6 2.8-0.9 0.1 0 0.2-0.1 0.3-0.1 0.7 0 1.5-0.2 2.2-0.2 2.2 0 3.6 0.3 5.9-0.3l0.5 0.4c3.7 0 8.5-2.9 11.3-5 0.7-0.5 1.4-1.3 2-1.9 0.1-0.1 0.3-0.2 0.3-0.3 0.7-1 1.6-2 2.2-3.1 1.6-2.8 4.6-10.4 3.5-13.8-0.1-0.2-0.2-0.3-0.4-0.6-1.2-1.9-1.3-1.2-2.6-2.5-1-1-2.1-3.7-3.1-4.9-1.6-1.8-3.6-3.5-5.3-5.2-0.8-0.7-1.3-1.6-1.9-2.5l0.1-0.1c1.4-0.8 2.6-0.6 4.1-0.5h0.2c0.3-4.3 2.7-5.4 6-4.1 1.5-0.5 5.5-0.5 5.5 1.9v1.1c0 0.7-1.1 2.2-1.5 2.8 0.9 4.4-1.4 3.1-2 5.7-0.3 1.6 0.9 2.6 2.2 1.4 0.4-0.4 0.8-0.9 1.4-1.2l0.2-0.1c3-0.9 2-0.8 5.1-0.3h0.2c0.8 0.2 1.7 1 2.7 1.2 1.2 0.4 4.2 0.6 4.2 2.3v1.1c0 2.2-6 4.4-6 7.7 0 1.1 0.2 2.1 0.2 3.2 0 2.2-1.7 3.5-3.1 5.2 2.7 0.8 5.7 0.6 8.3-0.3 3.8-1.3 11.4-0.2 6.1 5.6-0.5 0.6-1.2 1.2-1.6 1.9v0.2c1.1 0.8 5.2-0.9 3.4 6-0.2 0.9-0.5 1.9-0.8 2.8 0.2 0.4 0.5 0.9 0.8 1.3l0.6 0.2c2.6 0.8 5.5-0.5 6 3.6 0.1 1.2-0.2 3.6 0.5 4.4 3-0.1 3.4-1.7 5.7 0.6l0.4 0.3c1.4 1.3 1.8 3.1 1.5 5 1.7 1.3 1.6 3.3-0.5 3.9l0.1 0.4c0.4 0.6 0.7 1.2 0.8 1.9v0.4c-0.2 0.9-0.6 1.6-1.2 2.3-0.3 0.4-0.5 0.7-0.6 0.6 1.5 1.5 2.1 0.3 2.4 3.4 0 0.7-0.9 1.8-1.2 2.5q0.2 0.2 0.5 0.4c1.3 1.3 2.1 2.1 1.9 4.1 1.5 0.6 1.9 0.9 2.4 2.5 3.9-0.6 3.6 2 2.7 4.6-0.2 0.8-0.3 1.4-0.5 1.4l0.4 0.1c0.3 0 0.6 0 0.9 0.2l0.3 0.1 1.6 0.9 0.2 0.2c0.4 0.3 2.4 2.9 2.5 3.2 0.4 0.2 0.7 0.6 0.9 1l0.4 0.7c1.9 0.9 3.1 1.4 2.1 3.8-0.4 0.6-0.9 1.1-1.4 1.6 3.4-0.1 5.6 1 4 4.9 0.5 1.2 2.8 1.6 2.3 4.3l-0.1 0.3c-0.5 1.1-1.8 1.7-2.8 2.1l0.2 0.6c3.4-0.6 1.7 3.1 1.5 4.7-0.2 0.8 1.9 3.2 3.4 3.6h0.7l1.3 0.1c2 0.2 1.9 3.3 1.5 4.7-0.1 0.2-0.6 1.3-0.5 1.5 1.7 1.5 2.3 0.7 2.2 3.6-0.1 1.4-1.2 1.9-2.6 2q0.2 0.4 0.3 0.9c0.4 1.8-3.5 2.8-3.2 7.2 2.9 0.6 2.8 0.7 2.5 3.7 1.6 2.2 0.5 4.7 0.4 7.1-0.2 3.7 0.6 2.9-1.6 5.9 0.6 0.4 1.4 1.5 1.2 2.3 1.9-0.9 4.6 1.6 5.5 3 3 1.1 4.4-0.4 6.7 0.9 1.3-1.2 4.1-4.2 6-2.4 5.3-0.1 3.7 2.5 4.4 5.8l-2.2 1.3q-8.6-0.6-17.2-1.2-0.1 0-0.2 0c-0.5 0.1-1.2 0.2-1.6 0.2-0.2 0-0.9-0.3-1.1-0.3l-21-1.6h-0.3l-24.5-0.3c-4.6 0-9.2 0.1-13.9 0.1-2.5 0-5.2 0.1-7.7-0.3v0.3q-15.9 0-31.8 0c-0.8 0-1.7-0.3-2.6-0.3l-14.2 0.2c-0.4 0-0.9 0.3-1.4 0.3-1.6 0-3.4-0.1-5.1-0.2-0.5-0.1-1.1-0.3-1.7-0.4-1.9 0-3.9 0.2-5.8 0.3-0.2 0-0.8 0.3-0.9 0.3-0.6 0-1.3-0.3-2-0.3-8.8-0.1-17.7-0.2-26.5 0.1v0.2c-0.4-0.1-1-0.3-1.5-0.3-3-0.2-6.2 0-9.2 0l-18.6-0.1q-28.4-0.1-56.8-0.2c-1 0-2 0.3-3 0.2-13.8-0.2-27.7-0.3-41.4-0.4-2.2 0-4.5-0.2-6.7-0.2-1.4 0-2.8 0.2-4.2 0.2-0.8 0-1.8-0.3-2.7-0.3-1.9 0-3.8 0.5-5.7 0.6-0.6 0-1.4-0.4-2-0.4-2-0.1-4 0-6 0v-0.2c0 0-1.7-7.7-2-9.5-0.2-1.7-0.5-3.7 0.5-5.5 1-1.7 3.5-7.5 4.3-8.7 0.7-1.3 1.2-3.5 1.2-5.5 0-2-0.2-7.5-0.2-7.5l1.5-4.3c0 0-8-10.5-9.3-11.7-1.2-1.3-2-2-0.7-5 1.2-3 1.5-5 1.5-5 0 0-5.5-4-7.3-4.8-1.7-0.7-8-3.5-8-3.5 0 0 1.8-2.5 2-4 0.3-1.5-0.7-5.5-1.5-6.5-0.7-1-3.2-5.7-3.2-5.7l-0.3-6.5c0 0-3-2.3-5.1-2.8-2-0.5-6 0.3-6 0.3 0 0-2-1.3-4-2.8-2-1.6-4-2.8-4-5.6 0-2.7-0.7-4.7 0.3-7.6 1-2.7 2.2-6 2.2-6l-0.2-11.7c0.8-0.2 1.6-0.4 2.3-0.6 3.4-1 7.2-1.5 10.1-3.8 0.1-0.1 0.8-1.1 0.9-1.2 0.7-0.7 1.6-1.2 2.2-1.8 1.8-1.8 3.8-3.6 5.5-5.5l0.9-1.4c1.3-2.2 2.5-4.5 2.6-7.1 0-1.3-0.3-2.6-0.2-3.9 0-0.1 0.5-1.3 0.6-1.5 0.1-0.8 0.1-1.6 0.3-2.3 0.3-1.5 0.9-3.3 1.5-4.7 0.7-1.7 2.9-4.2 4.3-5.5 1.1-1 1.9-1.4 3-2.8l0.6 0.1c2.4-1.8 7.2-4.3 10.1-5.2 0 0 1.8 0 1.9 0 1.5 2.9 2.5 4.9 4.5 7.4l0.1 0.5 1.7 1.6 3.5 3.3c2.9 2.4 6.2 4.6 9.2 6.8 0.3 0.2 0.6 0.5 1 0.7 1.5 0.7 3.1 1.4 4.6 2.3 0.7 0.4 1.4 1 2.1 1.4 1.6 1 3.7 2.2 5.6 2.7 0.3 0.1 0.8 0 1.2 0.1 2.2 0.5 4.2 1.2 6.4 1.5 1.7 0.3 5.6 0.2 6.9 0.9 1.5 0.9 2.8 2.3 4.3 3.2 2.9 1.9 6.2 1.7 9.5 1.7 0.1 0 0.7-0.2 0.7-0.3 0.7 0.1 1.5 0.5 2 0.9 1.4 1.2 1.6 2 2.5 3.6 0.2 0.4 0.3 0.6 0.6 1 2.9 3.5 12.9 8.2 17 10.3 0.8 0.5 6.3 0.9 6.9 0.7 0.6-0.1 0.8-0.4 1.4-0.7 1.6-0.9 3.4-1.9 5.3-2 1.6 0.2 2.7 2.7 3.7 3.7 0.4 0.5 1.3 1 1.8 1.4 0.7 0.5 1.5 1.1 2.2 1.6 1.3 0.8 4.7 1.5 6.2 1.8 0.1 0 0.4-0.1 0.6-0.1z"/>
			<path id="Tambacounda" class="s0" d="m659.7 669.8c-0.5 0.1-0.8 0-1.2 0-3.6 0.1-4.6-0.3-7.9-1.8-1.2-0.6-2.7-1.1-3.9-1.8-0.5-0.3-1-0.9-1.5-1.2-3.5-2.1-10.4-5.8-13-9.1-0.2-0.1-2.2-3-2.2-3-1.5-3.2-2.3-6.9-3.7-10.1-0.2-0.6-2.2-2.7-2.6-3.2-1.7-1.6-3.4-3.2-5.4-4.4-0.7-0.5-1.6-0.8-2.4-1.2-3.9-1.8-5.9-2.9-10.3-2.7v0.2l-3 0.2v-0.2c-3.9 0.9-8.4 2.2-11.8 4.4-2.2 1.4-4.7 4.4-7.7 3.4l-2.5-1.2c-2.1-1-4.3-2.2-6.1-3.6-1.4-1.1-4.7-3.8-4.9-5.6-0.1-1.6-0.1-3.5-0.3-5.2-0.5-2.8-1.7-6.3-3.2-8.8-0.8-1.3-2.2-2.3-3.3-3.3q-0.5-0.4-1-0.8c0.6-0.7 2.4-2.8 3-3.8 0.8-1.2 3.3-2.5 5.3-2.5 2 0 11.7-1 11.7-1 0 0 1.8-3 1.8-4.2 0-1.3 0.4-8.4 0.4-8.4 0.4-0.1 1.1-1.1 1.4-1.3 0.7-0.6 1.6-1 2.3-1.6 1.2-0.9 2.5-2 3.6-3.1 0 0 10.3-6.1 11.5-8.1 1.3-2 3-9.3 4-11l1.7-4.8c0.4-1-0.3-3.4-0.1-4.9 0.1-0.6 1.5-3 1.6-3.4 0.2-1.1 0.3-7.1 0.2-8.1-0.3-1.9-1.1-4-1.5-5.8l-1.2-0.6c0-3.5 0.1-7 0.1-10.5-0.1-1.1-0.3-2.2-0.3-3.3-0.1-2.4 0.2-4.4-0.3-6.8l-9.1-10.4c0.5-5.2 0.4-10.4 0.6-15.7 0.2-6.7 0.5-13.4 0.8-20 0-1.2 0.2-2.3 0.2-3.5 0.1-1.1-0.1-2.2-0.1-3.4 0.1-0.6 0.3-1.3 0.3-2 0.2-2.2 0.3-4.4 0.5-6.6l16.9-4.8h8l12.5-13 8-0.5 5-4.5 10.7 18.8c1.1 0.4 2.3 0.8 3.4 1.2l88.4 34.2 7.9-0.1 15.6-0.2c2.3 0 4.5 0.1 6.8 0.1 1.1 0 2.2-0.2 3.3-0.2h20.3c1.6 0 3.2-0.3 4.9 0l54.2-39.2c1.1 0.2 2.2 0.3 3.4 0.6l40.7 8.2c2.4 0.5 4.8 0.8 7.3 1.4l1.9 0.4 36.9-4.2c0.1-0.1 0.4-0.2 0.5-0.2l12.2-18.3c2.3-3.5 4-5.4 6-9.1 1.6-2.9 1.9-4.8 3.1-7.9l6.2-16c0.4-1.1 0.8-2.2 1.2-3.4 1.3-3.3 2.7-6.8 4-10.1 0.4-0.8-0.3-5.1-0.6-6-0.4-1.2-1-3-1.6-4.1-0.6-1.3-1.8-2.9-2.6-4.1-0.4-0.5-1.1-0.8-1.5-1.3-0.1-0.1-0.3-0.7-0.4-0.9-0.3-0.5-0.7-1.1-1.1-1.6-0.2-0.3-0.5-0.4-0.7-0.7-0.6-0.7-1-1.7-1.6-2.5-0.1-0.1-0.6-0.5-0.7-0.6-0.5-0.8-0.8-1.9-1.4-2.7-0.7-1-1.7-1.8-2.5-2.8-0.2-0.3-0.2-0.7-0.4-0.9-0.4-0.5-0.9-1-1.3-1.5-0.4-0.5-0.7-1.1-1.1-1.6-0.2-0.2-0.6-0.3-0.7-0.6-1.2-1.5-2.3-3.1-3.7-4.4 0.1-0.2 0.1-0.4 0.2-1.1 0.2-0.8 0.5-1 1.1-1.6 2.6-1 4.1-0.3 6.6 0.8 1.6 0.6 3.5 1.2 5 2.1 4.1 2.3 7.7 6.4 11 9.7 2.3 2.2 7.8 3 10.7 3.7 1.6 0.4 2.8 1.4 4.1 2.3 0 0 0.8 1 0.9 1.1 0.5 0.6 1.3 1.5 1.5 2.2 0.5 1.4 1.5 4.5 1.7 5.9 0.7 3.7 0.9 7.7 1.3 11.4l0.3 1c0.7 0.9 2.9 3.3 3.7 4.1 1.7 1.6 3.6 3.1 5.4 4.5 1.6 1.1 5.7 3.2 7.5 3.7 1.7 0.6 3.6 0.3 5.3 0.9 0 0 1.5 0.9 1.6 0.9 0.8 0.7 1.7 2 2.5 2.8 1.4 1.5 2.7 2.9 4.2 4.4 0.4 0.4 0.6 0.7 1.1 1 0.1 0 4.3 1.9 4.5 2 1.4 0.5 2.6 0.6 3.9 1.3-0.4 1.3 0.1 3.4 0.8 4.5 0.9 1.2 3.1 0.6 4.3 2.4 0.1 0.2 0.5 1.8 0.5 1.9-0.1 1.1-0.8 2.6-0.1 3.7l1 0.9c1.1 0.3 2.5 0.2 3.6 0l2.2 1.7 1.8-0.1c0.4 0.2 0.9 0.7 0.9 1.1-0.2 0.7-2.5 2.1-3.1 2.4l-0.3 1.6 4.8 1.2 0.5 0.4c0.2 0.1 0.7 0.7 0.8 0.9 0.4 1.3 0.1 5-0.9 5.8-0.9 0.4-3.7 1.3-4.2 2.2-0.2 1.3-0.3 3-0.7 4.2-0.1 0.2-1.2 1.6-1.3 1.9-0.4 1.2 0.2 3.4-1.1 4.4-0.9 0.4-2.8 0.4-3.8 0.3l-1.1 0.9c-0.8 1.2 0 2.5 0 3.8-0.1 1.4-1.7 4.5-1.5 6.7 0.4 0.7 0.9 1.6 1.4 2.3l2.2 0.9 0.4 0.7c-0.2 0.5-1 2.7-0.7 3.3l2.4 4.3c-0.8 1.2-2.1 4.1-1.7 5.6 1.1 0.1 2.6 1.3 3.2 2.2 1.4 0.5 1.6-1.2 3.9 0.4l1.7 1.2c1.1 0.3 3.8-0.6 4.8-1.1l0.4 0.2 0.3 0.4c-0.1 0.6-0.3 2.5 0.3 3 1-0.4 4.1-0.8 5.1 0.1l0.5 1.2q-0.5 1.3-1.1 2.6l1 2.9-0.3 0.4-1.2-0.1-0.6 0.3-0.4 0.9 0.5 0.6 1.5-0.2c-0.1 1.1-0.5 2.5 0 3.5 0.5 0.9 8.7 3.4 10.1 3.9q2 0.7 4.2 0.9c0 0.3 0.3 3.6 0.3 3.7 0.8 2.8 2.7 6.9 3.8 9.8 0.1 0.4 0 1.1 0.2 1.5 0.4 0.9 1.1 1.7 1.5 2.6 0.8 2.1 1.6 5 1.4 7.3-0.3 2-0.7 4.2-0.8 6.2 0 1.6 0.8 4.2 0 5.8l-4.3 8.9c-0.1 0.3-0.4 3.4-0.4 3.7 0 0.7 0 1.1 0.1 1.8l0.2 3.6c0.1 0.4 0.2 0.6 0.4 0.9l0.8 1.9c1.5 2.5 3.8 4.8 6 6.6 0.3 0.3 0.8 0.4 1.1 0.7 0.7 0.6 1.2 2 2.4 1.9 0.7 0.4 3.1 2.4 3.2 3.4 0.1 0.5 0 0.8 0 1.4v2.8c-0.3 1.6-1.2 3.2-1.6 4.7-0.5 1.8 0 3.6 0 5.4-0.1 1.1-0.9 3.5-0.4 4.6-0.1 0.3-0.8 2-0.8 2-1.6 1.9-3.1 4-4.8 5.8-0.6 0.6-1.6 1-2.2 1.5-0.9 0.8-1.6 1.8-2.5 2.6-0.6 0.6-1.4 1.1-2 1.6-1.4 0.9-2.8 2-4.3 2.8-0.6 0.4-1.4 0.5-2 0.9-1.9 1.2-3.8 2.6-5.6 3.9 0.5 1 0.9 2.2 1.5 3.1 0.9 1.4 2.6 2.5 3.1 4.2 1.2 4.4 2 9.2 4.4 13.2 0.5 0.8 2.5 2.8 3.2 3.4 0.2 0.2 1.4 1.1 1.5 1.2 0.6 0.9 1 2.2 1.5 3.1 1.6 2.8 3.8 6.8 6.4 9 1.4 1.1 3.5 1.5 5.1 2.3 2.3 1.3 10 8 11.9 10l1 2 0.1 1.1c0.2 2.6-1.7 4.2-2.6 6.3-0.7 1.9-0.9 3.9-2.1 5.6-1.3 0.5-2.7 1-3.2 1.3-1 0.5-2.2 1-4.5 1-2.2 0-3.2 1.5-4 2.5-0.7 1-3.2 4.5-6.2 5.7-3 1.3-1.8 2.8-4 3-2.3 0.3-2.8-0.5-3.3-1.7-0.5-1.3 0.5-4.5 0.8-5.8 0.2-1.2-0.5-3.2-0.5-3.2 0 0-1-0.3-2.5 0.7-1.5 1-2 1-4.5 0-2.5-1-5.5-2-7.5-3-2-1-3.3-2.5-4.8-4.2-1.5-1.8-2.2-2-5.5-2.8-3.2-0.7-4.7-1.5-5.5-2.5-0.7-1-2.5-2.5-4.5-3.5-2-1-6-3-6-3 0 0-0.2 2.8-0.2 5 0 2.3-0.5 2.8-3 4.8-2.5 2 0.5 3.7 0.7 5.5 0.3 1.7 2.5 3 3.8 4.5 1.2 1.5 4 4.5 4 4.5 0 0-0.5 1-1.3 2-0.7 1-2.5 1.5-5.7 2.7-3.3 1.3-5-0.7-7.3-0.7-2.2 0-2.7 0.2-3 2.5-0.2 2.2-0.2 3-2.2 5-2 2-0.5 3.7-2.3 4-1.7 0.2-2.2-1.3-3.2-2.5-1-1.3-2.8-2-5.4-3.5-2.5-1.5-3.7 0-6.5 0-2.7 0-3.5 1.2-4 3.2-0.5 2-1.5 2.8-4.2 3.3-2.8 0.5-4 7.1-4 7.1 0 0-1 4.5-2.5 4.7-1.5 0.3-2.8 1.3-6.5 2.6-3.8 1.3-5 0.5-7.5-0.5-2.5-1.1-2-1.6-3.8-3.1-1.7-1.5-3.2-0.2-3.5 1.3-0.2 1.6-4 1-6.5 1.6-2.5 0.5-1 2-3.2 2.2-2.3 0.3-4.8-0.2-4.8 1 0 1.3 0 3.5 0.5 6.5 0.5 3 0.5 2.8-2.5 4.3-3 1.5-0.5 3.7-3.7 3.7-3.3 0-2.3 1.5-2 4.5 0.2 3-2.3 3-4 1.3-1.8-1.8-1.8-0.8-4.3 0-2.5 0.7-2 2.7-2.7 4.5-0.8 1.7-2.5 1.7-5 2-2.5 0.2-2.5 1.5-3 4.5-0.5 3-5.3 1.5-7.8 0-2.5-1.5-4.5-3-5.5-4.3-1-1.2-2.2-2.2-4-2.2-1.7 0-2.2-1.5-3.7-3.3-1.5-1.7-3-2.7-5-2.7-2 0-4 0-6.8 0.2-2.7 0.3-4.7 0.3-6.2 2.3-1.5 2-3.3 3-6.5 2-3.3-1-4.3 1.5-5.3 3.5-1 2-3.2 1.7-5.7-0.8-2.5-2.5-3.3-2-6.5-3.5-3.3-1.5-6.5-0.2-8.8 0-2.3 0.3-3.6 0.5-3.8 3.3-0.3 2.7-3.7 2.9-3.7 2.9q0 0.8-0.3 1.9c0.3 0.8 2.6 2.2 3.5 2.9 3.2 1.4 3.7 5.6 6.9 6.1 2.2 0.3 3.5 1.1 4.6 3.1 0.9 1.3 0.8 2.8 1.8 4.2 0.4 0.7 1 1.6 1.3 2.9v0.5c-0.1 0.9-0.5 1.9-1.1 2.6l-0.3 0.3c-1 0.7-2.1 0.7-3.3 0.8 0.8 1.3 1.7 0 1.3 3.7 0 0.5 0 0.9 0.1 1.4 5.5-0.2 2.2 5.6 3.2 7 1.9 0.7 1.8-1.1 4.5 0.8 2-0.4 2-2 4.2 0.2 1.2 1.1 0.1 3.4-0.6 4.5l-2.3 1.7c0 0-0.5 2-1.5 3.2-1 1.3-0.5 2.5-0.7 4.3-0.3 1.7 0.7 4 1.5 6.2 0.7 2.3 2 5 2 5 0 0-2 2.5-3.3 3.8-1.2 1.2-1.7 2.2-1.7 3.7 0 1.5-0.4 3.4-0.4 3.4l-1 0.2-1.1 1.3-1.4-0.9c-1.5 0-3.7-0.1-5.1 0.6l-1 1.7h-0.5c-0.8-1.2-2.7-2.5-4.2-2.8 0-0.4-0.4-1.1-0.8-1.3l-1.5 0.1-2.2 1.7c-0.9 0.2-1.9-0.7-2.7-1-0.8-0.3-2.1-0.7-3-0.9-0.7-0.1-1.5 0.1-2.2 0-0.8-0.1-1.7-0.4-2.5-0.6l-0.5 0.1-0.9 1c-0.6-0.1-1.2 0.7-1.7 0.8-1.2 0.2-4.3 0.3-5.4-0.4-0.2-0.5-0.6-1.7-1-2l-0.8 0.2-0.7 0.8-0.7-0.7-0.2-1.2q-1-0.1-1.9-0.1l2.2-1.3c-0.7-3.3 0.9-5.9-4.4-5.8-1.9-1.8-4.7 1.2-6 2.4-2.3-1.3-3.7 0.2-6.7-0.9-0.9-1.4-3.6-3.9-5.5-3 0.2-0.8-0.6-1.9-1.2-2.3 2.2-3 1.4-2.2 1.6-5.9 0.1-2.4 1.2-4.9-0.4-7.1 0.3-3 0.4-3.1-2.5-3.7-0.3-4.4 3.6-5.4 3.2-7.2q-0.1-0.5-0.3-0.9c1.4-0.1 2.5-0.6 2.6-2 0.1-2.9-0.5-2.1-2.2-3.6-0.1-0.2 0.4-1.3 0.5-1.5 0.4-1.4 0.5-4.5-1.5-4.7l-1.3-0.1h-0.8c-1.4-0.4-3.5-2.8-3.3-3.6 0.2-1.6 1.9-5.3-1.5-4.7l-0.3-0.6c1.1-0.4 2.4-1 2.9-2.1v-0.3c0.6-2.7-1.7-3.1-2.2-4.3 1.6-3.9-0.6-5-4-4.9 0.5-0.5 1-1 1.3-1.6 1.1-2.4-0.1-2.9-2-3.8l-0.4-0.7c-0.2-0.4-0.5-0.8-0.9-1-0.1-0.3-2.1-2.9-2.5-3.2l-0.2-0.2-1.6-0.9-0.3-0.1c-0.3-0.2-0.6-0.2-0.9-0.2l-0.4-0.1c0.2 0 0.3-0.6 0.5-1.4 0.9-2.6 1.2-5.2-2.7-4.6-0.5-1.6-0.9-1.9-2.4-2.5 0.1-2-0.6-2.8-1.9-4.1q-0.3-0.2-0.5-0.4c0.3-0.7 1.2-1.8 1.2-2.5-0.3-3.1-0.9-1.9-2.4-3.4 0.1 0.1 0.3-0.2 0.6-0.6 0.5-0.7 1-1.4 1.2-2.3v-0.4c-0.1-0.7-0.4-1.4-0.8-2l-0.1-0.3c2.1-0.6 2.2-2.6 0.5-3.9 0.3-1.9-0.1-3.7-1.6-5.1l-0.3-0.3c-2.3-2.2-2.7-0.6-5.7-0.5-0.7-0.8-0.4-3.2-0.5-4.4-0.6-4.1-3.4-2.8-6-3.6l-0.6-0.2c-0.3-0.4-0.6-0.9-0.8-1.3 0.3-0.9 0.6-1.9 0.8-2.8 1.8-6.9-2.3-5.2-3.4-6v-0.2c0.4-0.7 1.1-1.3 1.6-1.9 5.3-5.8-2.3-6.9-6.2-5.6-2.5 0.9-5.6 1.1-8.2 0.3 1.4-1.7 3.1-3 3.1-5.2 0-1.1-0.2-2.1-0.2-3.2 0-3.3 6-5.5 6-7.7v-1.1c0-1.7-3-1.9-4.2-2.3-1-0.2-1.9-1-2.8-1.2h-0.1c-3.1-0.5-2.1-0.6-5.1 0.3l-0.2 0.1c-0.6 0.3-1 0.8-1.4 1.2-1.3 1.2-2.5 0.2-2.2-1.4 0.5-2.6 2.9-1.3 1.9-5.7 0.5-0.6 1.5-2.1 1.5-2.8v-1.1c0-2.4-3.9-2.4-5.4-1.9-3.4-1.3-5.7-0.2-6 4.1h-0.3c-1.4-0.1-2.6-0.3-4 0.5l-0.1 0.1c-0.6-0.8-1.1-1.6-1.7-2.2-1.2-1.3-6.3-4.5-7.7-5.2-2.1-1.1-4.6-1.9-6.8-2.7l-0.1-0.6c-1.3-0.3-4.5 0.5-5.7 0.9-1.2 0.4-2.4 1.1-3.6 1.7q-0.5 0.2-0.9 0.3c-1.5 0.5-3.2 1.4-4.8 1.7-1.8 0.4-7.2-0.1-9.1-0.3l-0.4-0.4-6.6 1.9c-0.2 0.1-0.8 0-1 0-1.2 0.4-2.4 1.3-3.6 1.8-3.5 1.5-7.2 2.8-10.6 4.8-0.7 0.4-1.3 1.2-2 1.6-0.1 0.1-0.9 0.3-1 0.4-1.3 1.2-4.1 4-5.9 4.5l-8.4 2.4c-1.7 0.5-2.6 0.8-4.2 1.2z"/>
			<path id="Kaffrine" class="s0" d="m378.7 491q-0.1-0.4-0.1-0.8l18-18.3 8.8-1.7 15.7-12.8c0 0 13.3-1.2 15.3-1.2 2 0 9-1.5 10.2-1.8 0.8-0.1 2.3-1 3.8-1.9 1-0.6 1.9-1.2 2.5-1.6 1.5-1 3.5-7.2 4.5-9.5 1-2.2 3.5-14.5 3.5-14.5l0.1-0.1 10.4 13.1 47.1 7.8 19-1.5 7.5-15.8c2.3 4.3 9 9.3 12.5 13.5q0.5 0.7 1 1.3c4.5 1.3 9 2.6 13.5 3.8 1.1 0.3 2.4 0.5 3.5 0.9 2.3 0.6 4.5 1.4 6.8 2 5.9 1.7 11.9 3.2 17.9 5.1-0.2 2.2-0.3 4.4-0.5 6.6 0 0.7-0.2 1.4-0.3 2 0 1.2 0.2 2.3 0.1 3.4 0 1.2-0.2 2.3-0.2 3.5-0.3 6.6-0.6 13.3-0.8 20-0.2 5.3-0.1 10.5-0.6 15.7l9.1 10.4c0.5 2.4 0.2 4.4 0.3 6.8 0 1.1 0.2 2.2 0.3 3.3 0 3.5-0.1 7-0.1 10.5l1.2 0.6c0.4 1.8 1.2 3.9 1.5 5.8 0.1 1 0 7-0.2 8.1-0.1 0.5-1.5 2.8-1.6 3.4-0.2 1.5 0.5 3.9 0.1 4.9l-1.7 4.8c-1 1.7-2.7 9-4 11-1.2 2-11.5 8.1-11.5 8.1-1.1 1.1-2.4 2.2-3.6 3.1-0.7 0.6-1.6 1-2.3 1.6-0.3 0.2-1 1.2-1.4 1.3 0 0-0.4 7.1-0.4 8.4 0 1.2-1.8 4.2-1.8 4.2 0 0-9.7 1-11.7 1-2 0-4.5 1.3-5.3 2.5-0.6 1-2.4 3.1-3 3.8-1.8-1.4-3.5-2.6-5.8-3.6-2.7-1.3-6.2-3.3-9.2-3.8-0.6-0.1-1.5 0.2-2.1 0.2-1.5-0.2-3.2-0.7-4.6-0.7-1.6 0.1-3.4 0.7-5 0.9-2.1 0.3-5.7-1.6-7.8-2.2-0.2-0.1-0.8 0-0.9-0.1-3.7-1.7-5.8-3-9.9-3.6l-1.6 0.1c-2.5 0.7-9.9 4.9-12 6.1-1.5 0.9-2.9 2.1-4.5 3-2.9 1.8-7.3 3.8-10.4 5l-1.7 0.3c-0.4 0-1.9 0.2-2.3 0-2.2-1.1-5.6-3.1-7.8-4-0.6-0.2-0.9-0.1-1.5-0.3-4.6-0.9-5.5-0.6-10.1 0.4-0.5 0.1-1.3 0.2-1.8 0.4-0.9 0.4-1.7 1.1-2.6 1.5-0.7 0.3-1.7 0.5-2.4 0.8 0 0-2.4-4.4-3.9-6.2-1.5-1.7-5.3-3.5-8-3.5-2.8 0-8-0.2-8-0.2l-15.5-8c0 0-1.8 0.5-2.5 2.5-0.8 2-3 4.5-4 5.5-1 1-2.3 4-2.3 4l-2.7 3c0 0-2.8 0.7-3.5-1-0.8-1.8-4-4.8-5.8-6.3-1.7-1.5-3.5-1-4.5-3.7-1-2.8-2-5.8-2-5.8 0 0 2.3-3 3.5-4 1.3-1 1.8-5.5 0.3-7.2-1.5-1.8-6.9-5-8.4-6-1.5-1-3.5-2.5-3.5-2.5 0 0-6.2-6.8-6.2-7.8 0-1-0.3-3.2-0.3-4.2 0-1-0.7-3.3-0.7-3.3 0 0-6-2.5-7.8-2.7-1.7-0.3-3-1.1-2.5-2.9 0.5-1.7-2.5-6-2.5-6l2.7-5.2-0.1-0.3c-0.2-1-0.5-2.2-0.5-3.1l-0.2-4.5c0.1-0.4 0.2-0.6 0.3-1l0.5-1.9c0.9-2.3 2.7-4.7 3.7-7.2 1.6-4.1 3.1-8.2 4.6-12.3 1.2-3.2 0.8-6.8 0.8-10-0.1-2.1 0-4 0-6 0-1.2-0.1-2.3-0.2-3.4z"/>
			<path id="Kaolack" class="s0" d="m453.8 606c1.5 1.8 4 6.2 4 6.2-0.8 0.6-1.2 1-2 1.5l-4.1 3c-0.7 0.6-0.9 1-1.5 1.7-2.1 2.1-3.1 3.2-4.7 5.5l-0.4 0.6c-0.5 0.8-1.4 1.8-1.8 2.7-1 2.4-1.7 5.2-2.6 7.7-1 2.8-1.9 7.6-1.8 10.6-1.7 0-3.6-0.2-5.4-0.1-0.3 0-0.7 0.3-1.1 0.3-1.1 0-2.2-0.1-3.4-0.1-1 0-2.1 0.2-3.1 0.2-2.1 0-4.1-0.2-6.1-0.2-15.7-0.2-31.5 0.5-47.2 0.4-4.2-0.1-8.4-0.4-12.7-0.5-4.7 0-9.4 0.1-14.1 0.1-1.1 0-2.2-0.3-3.2-0.3-0.2 0-1 0.3-1.3 0.3-1 0.1-2.3 0-3.2 0-2.3 0-4.6 0-6.8-0.1v-0.1h-7.5l0.7-2.1-0.2-1.3c-0.5-0.8-1.7-1.8-2.6-1.9l-1-1.3c0.2-0.8 0.1-2.2-0.3-2.9-0.9 0.2-1.9 0.3-2.8 0.3-0.8-0.9-1.7-1.8-2.4-2.7-0.4-0.4-0.6-1-0.9-1.4-0.4-0.4-1.1-0.7-1.5-1.2-1.2-1.5-1.9-6.8-2.1-8.7-0.1-0.9-0.1-1.9-0.2-2.7-0.2-1.4-0.6-2.8-0.9-4.2-1.3-1.6-4.1-2.1-5.8-3.4-1.5-1.1-2.8-2.6-4.3-3.7-1.5-1.2-5.1-1.6-6.3-3.2l-1-8.7c1.3-1.5 6.6-2.5 7.6-3.8 0.8-0.9 1.3-2 1.9-2.9 0.7-1 0.4-1.9 0.5-3.1 0.3-1.9 0.7-8.4 0.3-10.2-0.1-0.9-0.7-1.9-0.8-2.8-0.2-1.4 0.3-3 0-4.4-1.2-1.4-1.8-1.2-3-1.9-1.4-0.9-3.2-0.4-4-1.4-1-1.5-4.8-2.7-5.7-4.3-0.4-1.6 5.4-4.3 6.2-5.5 0.6-0.8 2.4-4.4 2.3-5.4-0.1-1.4-0.3-6.6-0.9-7.7-0.9-0.5-2.1-1-3-1.6-0.5-0.4-1.2-1.8-2.5-2.6-2.8-1.7-5-2.4-7.4-5-0.6-0.9-1-1.3-1-1.3l-3.3-0.3-3.6 0.2-2.4-0.3c0 0-0.5-1-1.2-0.9q-0.5 0-0.9 0c-0.7 0-1.3 0-1.3 0 0 0-1.3-4.9-1.5-6.4-0.3-1.5-1-4.5 1-5.5 2-1 6.2-4 6.2-4l3.3-2.5 7.7-10c0.9-1.2 2.5-3 4-3.6 1.4-0.5 3.1-0.2 4.5-0.3 1.5-0.1 3.1-0.3 4.6-0.6 3.9-0.5 7.6-1.9 11.3-2.6l5.4-1.7c2.3-0.1 3.5 0 5.8 0.7 0 0.1-0.4 1.2-0.5 1.4 0 0 2.3 0.4 3.7 0.3 1.4-0.1 3.4-0.5 5.1 0.1 1.8 0.6 5.6 1.3 5.6 1.3l4.5 1.1h0.4c0.8-1.5 2.3-3.8 4.4-5.4 3.1-2.4 3.7-3.7 4.7-4.3 1-0.6 2.7-1.3 4.7 0.2 1.9 1.5 4.7 2.5 6.8 2.5 2 0 8.8 0.4 8.8 0.4l8.1-1.2c0.1 1.1 0.2 2.2 0.2 3.4 0 2-0.1 3.9-0.1 6 0.1 3.2 0.5 6.8-0.7 10-1.5 4.1-3 8.2-4.6 12.3-1 2.5-2.9 4.9-3.7 7.2l-0.5 1.9c-0.1 0.4-0.3 0.6-0.3 1l0.2 4.5c0 0.9 0.3 2.1 0.5 3.1v0.3l-2.6 5.2c0 0 3 4.3 2.5 6-0.5 1.8 0.7 2.6 2.5 2.9 1.7 0.2 7.7 2.7 7.7 2.7 0 0 0.8 2.3 0.8 3.3 0 1 0.2 3.2 0.2 4.2 0 1 6.3 7.8 6.3 7.8 0 0 2 1.5 3.5 2.5 1.5 1 6.8 4.2 8.3 6 1.5 1.7 1 6.2-0.2 7.2-1.3 1-3.5 4-3.5 4 0 0 1 3 2 5.8 1 2.7 2.7 2.2 4.5 3.7 1.7 1.5 5 4.5 5.7 6.3 0.8 1.7 3.5 1 3.5 1l2.8-3c0 0 1.2-3 2.2-4 1-1 3.3-3.5 4-5.5 0.8-2 2.5-2.5 2.5-2.5l15.5 8c0 0 5.3 0.2 8 0.2 2.8 0 6.5 1.8 8 3.5z"/>
			<path id="Sédhiou" class="s0" d="m360.2 868.1c0 0-1.2-3.9-1.7-5.1-0.5-1.3-2.8-0.5-4.5-0.3-1.8 0.3-2 0-2.8-1.2-0.7-1.3 0.3-1.8 1.8-2 1.5-0.3 0-2.8-0.3-4.3-0.2-1.5-0.5-2-1.7-3.2-1.3-1.3-3-2.3-3-2.3 0 0-1-3.5-2-5.5-1-2 1.8-5 1.5-5.6h-0.1c0.9 0.3 1.8 0.5 2.6 1.1 1 0.7 1.5 2 2.7 2.5 0.1 0 5.7 0.6 6 0.6 2.4-0.2 4.4-1.4 7-0.6 2.6 0.9 4.2 4.9 6.8 5.3 0.8 0.1 1.9-0.1 2.5-0.1 2.8-1.1 6.6-7.5 9.7-7.4 1.2 0 2.4 0.7 3.5 0.8 1.5 0.1 2.8-0.7 4.1-0.2 0.9 0.3 1.5 1.2 2.5 1.6 1-0.2 2.4-0.6 3.4-0.2 2.5 1 1.5 5.8 3.6 7.4 0.8 0.6 3.4 1 4.4 1.3 1.2 0.2 2.7 0.7 3.9 0.7 2.9 0.1 4.7-4.2 6.9-5.2 0.9-0.5 2.7-0.4 3.7-0.4 1.5-1 1.6-2.8 2.6-4 0.7-0.8 1.7-1 2.1-2-1.3-5.9 11.5-5.1 7.9-11.8-0.8-0.6-2-0.4-2.7-1.2l-0.3-1.1c1.8-6-1.6-7.5-2.8-9.7q-0.3-0.6-0.3-1.3c0-0.9 0.6-2.1 0.8-3 0.2-0.9 1.3-8.6 1.3-9 1.6-2 5.8 0.4 7.7 0 1.2-0.3 2.5-1.2 4.8-1.6 0.5-0.1 0.2-0.1 0.7-0.3l0.6-0.3c0.3-0.3 1.5-4 1.8-4.7l0.9-0.5c1.2 0.7 1.7 1.9 2.5 2.9 2.1 0.7 3.8 1.4 6 1.9l0.9-0.5c1-1 0-3.5 0.3-4.8 0.1-0.7 0.5-1.3 0.6-2l-0.7-0.4c-1.9 0.9-1.8 2.9-2.9 3.7-2.8 0.8-3.6-3.5-6.9-3.3-3.2 0.1-6.3 5.4-8.9 6-0.4 0.1-0.9 0-1.3 0.1-0.8 0.1-1.3 0.5-2.3 0.4-0.9-0.5-0.7-1.7-1.7-2.3l-1 0.3c-0.6 0.8-1.4 1.3-2.1 2-0.5 0.5-2.6 3.2-2.9 3.7-0.8 1.5-0.3 3-0.7 4.5-0.3 1.5-2 3.1-1.6 4.8 0.5 1.6 2.1 2.8 2.6 3.8q0.1 0.1 0.1 0.2c0.5 1.4 0.1 3.4 0.4 4.9 0.4 1.7 1.4 3.6 1.6 5.2 0.1 0.6 0 1.8-0.2 2.3-0.9 2.3-5.4 5.8-7.3 7.4-0.9 0.8-2.2 1.5-3 2.4-0.2 0.3-0.3 0.7-0.5 0.9-1.2 1.7-5.7 5.7-7.6 6.6-0.8 0.4-2.6 0.6-3.4 0.4-0.7-0.7-1.6-1-2.3-1.8l-0.1-0.9c1.4-1.7 1.2-5.4-0.1-7.2-1-0.5-2.3 0-3.4-0.1-2.2-2.2-5.5-1.4-8 0.2-2.4 0.1-3.7-2.5-6.7-2.6-1.5 0-2.3 1.4-3.8 1.4l-0.8-0.5h-1c-2.3 1.6-2.8 5-6 5.3-0.6 0-1.3 0.1-1.8-0.3-0.3-4.7-5.2-4.8-8.4-3-1 0.6-1.9 1.8-3.1 2.1-0.7 0.3-1.7 0.2-2.5 0.1-2.6-0.5-1-2.7-4.2-3.6-0.8-0.3-1.3-0.6-2.4-0.7-1.6-1.4-0.6-3.2-1.7-4.7-0.7-0.8-3.6-1.2-4.7-1.9-1.4-0.9-1.3-3.4-2.1-4.7-0.9-1.6-3.6-1.9-4.8-3.2-0.7-1.4 0.5-4.9-1.2-6.7q0-0.1 0-0.2c-0.1-1.5-0.9-3.2-0.4-4.7 0.3-0.9 1.4-1.4 1.9-2.2l0.1-1.2-0.7-0.6-0.2-0.9 0.4-0.9 0.8-2c0.6-2.2-0.3-4.9 0.5-7.4 0.4-1 3.5-2.5 4.5-4.9 0.5-1.2-0.5-3.3-0.4-4.6 0.2-0.6 1.1-2 1.7-2.3-1.3-1.9-1.7-4.4-3.2-6.2 1.1-0.7 1.7-2.9 1.8-4.1 1-1.4 1.9-1.4 2.6-2.1 1-1.1 0.9-3 1.6-4.3 0.3-0.2 2.8-2.1 2.9-2.2 0.8-1 2.7-5.6 3.1-7 0.4-1.2 0.7-3 1.4-4.1 1-1.5 4.9-6.9 5.2-8.4l-0.7-1.6c-1.8-1.5-4.8 0.6-6.5-2.7-0.6-2.4 3-5.2 4.6-6.4 1-0.7 1.9-1 2.7-1.9l0.1-1.7q7.9 0 15.8 0.1l0.8-35.7c2 0.2 6.1 0.7 7.8 0.6 1.4-0.1 4.1-0.9 5.6-1.2 0.9-0.2 1-0.2 1.8-0.2l0.5-0.1c2.1-0.7 5-1.9 7-2.4 0.5-0.1 0.7 0 1.1 0h2.2c2.9 0.4 5.9 1.8 8.6 2.9q0.2 0.1 0.4 0.1c1.2 0.3 2.6 0.9 3.7 1.1 1.6 0.2 4.3-0.4 5.8-1.2l0.3-0.5c1.8-1.4 9.2-7.6 11.5-8 1-0.2 3.1 0.6 3.8 0.8l3.9 1.3c0.3 0.1 1.5 0.1 1.6 0.1 0.8 0.3 1.6 1.1 2.4 1.4l2.2 0.5c0.4 0.1 0.6 0.2 1 0.3 1.2 0.1 1.6-0.5 3.1 0.2 2.1 0.9 4 2.5 5.9 3.8 2.1 0.5 4.8 0 7.1-0.6l0.2 11.7c0 0-1.3 3.3-2.3 6-1 2.9-0.2 4.9-0.2 7.6 0 2.8 2 4 4 5.6 2 1.5 4 2.8 4 2.8 0 0 4-0.8 6-0.3 2.1 0.5 5.1 2.8 5.1 2.8l0.2 6.5c0 0 2.5 4.7 3.3 5.7 0.7 1 1.7 5 1.5 6.5-0.3 1.5-2 4-2 4 0 0 6.2 2.8 8 3.5 1.7 0.8 7.2 4.8 7.2 4.8 0 0-0.2 2-1.5 5-1.2 3-0.5 3.7 0.8 5 1.2 1.2 9.2 11.7 9.2 11.7l-1.5 4.3c0 0 0.3 5.5 0.3 7.5 0 2-0.5 4.2-1.3 5.5-0.7 1.2-3.2 7-4.2 8.7-1 1.8-0.8 3.8-0.5 5.5 0.2 1.8 2 9.5 2 9.5v0.2c-2.2 0-4.4 0-6.6-0.2-1.3 1-2.4 0.4-3 0.7-2.4 1.1-5.2 2.1-7.6 3.4-2.1 1.2-4.3 2.8-6.3 4.2-0.3 0.1-0.5 0.3-0.7 0.4-1.2 0.6-2.3 1.2-3.4 1.7-2.5 1.1-5.1 1.8-7.6 3-2.7 1.3-4.6 3.8-6.8 5.8-1.4 1.3-3.2 2.6-4.8 3.7-0.6 0.4-1.4 0.7-2 1.1-0.4 0.3-0.7 0.9-1 1.2-1.9 1.7-6.3 4.6-8.5 5.6-0.8 0.4-2.2 0.6-3.1 0.8l-0.5 0.7c-1.2 0.5-2.8 0.8-3.9 1.4-0.5 0.3-0.9 0.7-1.4 0.9-0.4 0.2-0.9 0.1-1.3 0.2-1.5 0.5-3.2 1.1-4.6 1.7-0.7 0.3-1.6 0.8-2.2 1.2-0.1 0.1-0.3 0.5-0.4 0.6l-11 5.4c-0.5 0.3-1.2 0.6-1.8 0.9-0.1 0.1-0.3 0.4-0.4 0.5-0.8 0.3-2.8 1.1-3.2 1.8l-4.4 1.6c-2.2 0.7-4.5 1.3-6.8 1.6-2.8 0.3-10.7-1.2-13.5-1.6-1.1-0.2-2.3 0.1-3.4 0-0.4-0.1-0.7-0.4-1-0.4-1-0.1-2.1 0-3.1-0.2-0.9-0.1-1.8-0.4-2.7-0.6-4.8-0.8-10.5-1.7-15.5-1.4z"/>
			<path id="Louga" class="s0" d="m205.4 286.5c-1-1.3-5-2.3-5-2.3l-0.4-0.3 3.7-5.2 5.6-7.8 2.9-4.1 3.7-6.7 6.6-9.9 2.4-3.5 1.2-2.5 3.1-8.1 1-1.6 3.4-6.2 0.5-1 2-2.6 1-1.8 1.1-3.6 1.2-2.5 0.4-1.8-1-0.2 0.6-1.5v-0.2l0.4-1.8 0.4 0.1c0 0 7.3 0.5 8.3 0.5 1 0 6-0.5 7-0.5 1 0 7.5 0.5 10.7 0.7 3.3 0.3 6.5-3 7.3-4 0.7-1 3.2-1.2 5-1.2 1.7 0 6.7-0.8 7.7-1.8 1-1 1.5-5 1.5-5l3.8-1 3.5-5h4.2c0 0 2.3-2.2 3.5-3.7 1.3-1.5 3-4.3 3.3-6.5 0.2-2.3-2.8-2-4.3-1.3-1.5 0.8-1-1-0.2-2.5 0.7-1.5-0.8-1.2-3-1.2-2.3 0 0-2 0-2 0 0 4-0.5 5.5-0.5 1.5 0 3.7-0.3 7 1 3.2 1.2 7.1-0.9 7.1-0.9l16.8-9.6c7.2-4 14.4-8 21.7-12 0 0 0.7-1.1 0.8-1.3 0.2-0.2 0.5-0.4 0.7-0.6 0.8-1.2 2.7-4 2.5-5.5 0-0.1 0.5-0.7 0.6-0.7 3.3-1.6 5.8-2.7 8.5-5.2 0.8-0.9 1.3-1.9 2.3-2.8l1.3 1.5c5.1 5.9 10.2 11.7 15.3 17.6 1.8 2.1 3.5 4.4 5.4 6.5 8.4 9.7 16.8 19.3 25.1 29.1l30-1.4c1.4 0 1.2-15 1.2-15 0 0 60.5-1.4 105.2-1.5 0.9 0.5 15 10.3 15.8 10.8l11.7 0.5c0.5 0.2 6.4 1 8.5 1 8.5 7.1 24.5 17.7 31.5 26.5l-23.5 20-16 6.1-1.5 35-7 11 9.5 3.5 24 12 15.5-3.5-11.5 47.5 7.5 6-14 4.5-22 1.5-13 5.5 6.5 19.5 8 17.1-8.5 15.6-7.5 4.5-2 13.5-9.5 10-0.5 0.2c-3.5-4.2-10.2-9.2-12.6-13.5l-7.5 15.8-19 1.5-47.1-7.8-10.3-13.1-0.9-1.1-11.8-19-2.5-6.4c0 0-7.5-2.7-11.5-0.5-4 2.3-9 1.3-9 1.3 0 0-5.5-3.8-6.7-4.5-1.3-0.8-5.3-3.4-8-3.4-2.8 0-12.8-0.2-14.5-2.2-1.8-2-4.4-3.5-6.4-3.5-1.8-1-4.5-1.8-6-2.3-0.4-0.2-1.8-1.6-2-2-0.4-0.9-0.5-3.4-1.4-3.9-1.1-0.3-2.9-1-3.8-1.7-1.2-0.9-1.2-7.4-1.3-8.6 0-0.4-16.5 0.2-16.5 0.2l-3 3.5-15.2 0.8-2.3 3.2-12.5-1.7-22.2-0.3c0 0 1.7-5 0.2-7.7-1.5-2.8-3.5-6.3-3.2-9.3 0.2-3 0.2-6.5 0.2-6.5l-4-4-5.5-2 1.3-6-5.8-6.5c0 0-1.2-9.3-0.6-10.6 0.6-1.4-1.6-3.6-2.9-4.6-1.2-1-3.7-1.5-4.2 1.2-0.5 2.8-2 3.8-3.5 2.8-1.5-1-5-2.3-3-4 2-1.8 2-3.3 0.7-5-1.2-1.8-3.2-5.3-5-5.3-1.7 0-11 0.5-11 0.5l-6.2-4.5c0 0-8 7.3-8.8 9.3-0.7 2-6.8 10.5-7.6 11.7-0.7 1.3-5 9.5-5 9.5l-7.7 9.5c0 0 0.5-8.2-1.3-10.2-1.7-2-8.2-9.3-9.7-10.3-1.5-1-11.5-9-11.5-9 0 0-3.3 0.3-1.8-3 1.5-3.2 3.5-11.5 3.5-11.5 0 0 4.5-6.7 5.3-7.7 0.7-1 0-3.8-1-5z"/>
			<path id="Diourbel" class="s0" d="m246.4 447.7c-1.6 0.2-3.4-0.4-4.9 0.4q-0.2 0.7-0.4 1.3h-0.4l-1.7-2c0 0-5.9 1-8.1 1-2.3 0-6.3-2.6-7.1-3.8-0.7-0.9-2.2-4.6-2.2-5.7 0 0 1.3-1.2 2.5-3.5 1.3-2.2 1.5-3 1-6-0.5-3-0.7-4.5-0.2-6.7 0.5-2.3 0.5-5.8-1.5-8-2-2.3-2.8-4-4.8-5-2-1-2.7-1.5-1.2-2.8 1.5-1.2 3.5-4.3 3.5-4.3 0 0 0-4-2-5.8-2-1.8-3.5-2.6-4.5-5.1-1-2.5-4.5-5.2-4.5-5.2 0 0 3.5-5.8 7.5-6.5 4-0.8 21.1-5.3 22.8-6.5 1.8-1.3 10.3-5.5 13-5.8 2.8-0.2 5-0.5 6.3-0.2 1.2 0.2 7.5 0.2 9 0.7 1.5 0.5 6.2 1.5 6.2 1.5l4.5 0.5h2.5c0.5 0.6 1 1.2 1.5 1.7 0.5 0.4 1.1 0.7 1.6 1.1 0.3 0.2 0.4 0.5 0.7 0.7 0.4 0.4 1 0.7 1.5 1.1 0.1 0.1 0.5 0.6 0.6 0.7l1.9 0.9c0.9 0.4 3.2 0.4 3.8 1.3 0.7 1.2 0.7 1.9 0.7 2.6 0 0 3 0.9 5.2 0.7 2.3-0.3 4.5-1.8 4.5-1.8l-0.2-4.5 22.2 0.3 12.5 1.7 2.3-3.2 15.2-0.8 3-3.5c0 0 16.5-0.6 16.5-0.2 0.1 1.2 0.1 7.7 1.3 8.6 0.9 0.7 2.7 1.4 3.8 1.7 0.9 0.5 1 3 1.4 3.9 0.2 0.4 1.6 1.8 2 2 1.5 0.5 4.2 1.3 6 2.3 2 0 4.6 1.5 6.4 3.5 1.7 2 11.7 2.2 14.5 2.2 2.7 0 6.7 2.6 8 3.4 1.2 0.7 6.7 4.5 6.7 4.5 0 0 5 1 9-1.3 4-2.2 11.5 0.5 11.5 0.5l2.5 6.4 11.8 19 0.9 1.1-0.2 0.1c0 0-2.5 12.3-3.5 14.5-1 2.3-3 8.5-4.5 9.5-0.5 0.4-1.5 1-2.4 1.6l-0.1-0.1-2-6-1.7-2.5-30.5-12.2-9-6.5-3.3-0.5c0 0-1.2 1-3.2 2.2-2 1.3-5.8 0.3-5.8 0.3l-11.8-8.8-4.8 2.3c-2.3 3.3-0.1 6.5-0.2 10.2-0.2 3-0.6 6-0.8 9-0.1 0.8 0.1 1.7 0 2.5-0.2 1-0.6 2.4-1.1 3.3-1 2-4.4 4.7-6 6.2-0.7 0.6-1.3 1.3-2 2-0.2 0.2-0.6 0.4-0.8 0.6-0.7 0.7-1.1 1.5-1.9 2.2-0.9 0.6-1.7 0.8-2.7 1.3-0.2 0.1-0.5 0.4-0.8 0.5-2.6 1.2-5.6 2.1-8.4 2.5-1.6 0.2-3.4 0.1-5 0.3-0.8 0.1-1.6 0.4-2.4 0.4-0.4 0.1-0.8-0.1-1.2 0l-6.2 0.8c-0.3 0-0.7 0.2-1.1 0.2-2.6 0.1-7.2 0-9.7-0.9-1.5-0.5-2.7-1.1-4.2-1.4-1.7-0.3-3.4 0.3-5.1 0.3-2 0.1-5-0.3-6.7-1.4-1.6-1-2.7-2.9-4.1-4.1-1.3-1.3-3.6-2.3-5.3-3-0.5-0.2-1.1-0.2-1.6-0.3-1.2-0.4-2.4-1.1-3.7-1.3-1.2-0.3-2.5-0.1-3.7-0.3-1.1-0.2-2.2-0.7-3.5-0.7-2.6 0-5 1.4-7.5 1.9-1.9 0.4-3.9 0.6-5.9 0.9-1.6-0.5-3.9-3.3-5.1-4.4-1.3-1.2-5.6 0.2-6.9 0.2-2.5 0.2-4.9-0.6-7.2-1l-2.6-0.3c-0.5 0-0.8-0.2-1.3-0.1-2.3 0.1-4.8 0.7-7.1 0.9z"/>
			<path id="Thies" class="s0" d="m194.6 550.7c-1.5 1.2-3.7 3-3.7 3h-0.1c-0.2-1.4-0.3-2.9-0.5-4-0.1-0.4-0.3-0.7-0.3-1-0.1-0.4-0.1-0.9-0.2-1.3-0.1-0.3-0.4-0.6-0.5-0.9-0.1-0.3-0.2-0.7-0.3-1-0.2-0.7-1.9-4.1-2.2-4.6-0.2-0.3-0.5-0.5-0.6-0.8-0.8-1.4-0.1-2.3-1.6-4-1.7-0.3-3.6-0.4-5.2-1.2-1-0.3-1.5-1.1-2.3-1.8-0.4-0.4-1-0.8-1.4-1.2-1.9-2.1-1.8-7.4-2.3-10.1-0.4-1.7-0.9-3.9-1.5-5.5-0.3-0.6-0.7-1.1-1.1-1.6-0.1-0.3-0.2-0.7-0.4-1-0.5-1-2.4-2.8-3.3-3.4-1.7-1.1-4-0.8-5.1-2.9-0.1-0.2-0.2-0.6-0.2-0.9l1.9-6.2-0.4-2-0.7-1.5-4.4-6.3-4.4-5-1-0.7-1.2-1-2.1-3.3-5.1-2.1-2.9-1-1.4-0.5-0.4-1.3-0.8-1.9-0.5-0.4-1.4-0.6-1.1-1.3-1-2.3-0.6-2.7-1-3.6-1.5-2.9-2-3-1.8-0.6-1.3-0.4-1-1.2-0.9-2.7-1.7-3.5 1.6-10.7c0 0 0.8-20.6 0.8-22.6 0-2-0.2-3.8-1.5-5.3-1.2-1.5-1-2.2-1.5-3.7-0.5-1.5-1-3.4-2-4.9-1-1.5-5.1-8.7-5.1-8.7l2.3-0.9 0.4-0.2 2.5-1 3-2.1 3.7-2.8 1.6-2.2 1.3-2.5 1.1-2.4 0.9-2 2-1.9 2.1-2.7 1.6-1.7 2.5-2.6 2.3-2.6 1.7-1.8 2-2.3 2.8-3.3 2.4-1.9 0.4-0.3 1.5-1.7 1-1.5 9.9-13.9 4.8-5.8 1.9-2.1 6.1-8.4 1.9-3.8 3.2-4.3 0.9-1.5 8.4-14.4 2.7-3.5 1.4-3.2 1.5-3.6 2.8-3.8 0.4 0.3c0 0 4 1 5 2.3 1 1.2 1.7 4 1 5-0.8 1-5.3 7.7-5.3 7.7 0 0-2 8.3-3.5 11.5-1.5 3.3 1.8 3 1.8 3 0 0 10 8 11.5 9 1.5 1 8 8.3 9.7 10.3 1.8 2 1.3 10.2 1.3 10.2l7.7-9.5c0 0 4.3-8.2 5-9.5 0.8-1.2 6.9-9.7 7.6-11.7 0.8-2 8.8-9.3 8.8-9.3l6.2 4.5c0 0 9.3-0.5 11-0.5 1.8 0 3.8 3.5 5 5.3 1.3 1.7 1.3 3.2-0.7 5-2 1.7 1.5 3 3 4 1.5 1 3 0 3.5-2.8 0.5-2.7 3-2.2 4.2-1.2 1.3 1 3.5 3.2 2.9 4.6-0.6 1.3 0.6 10.6 0.6 10.6l5.8 6.5-1.3 6 5.5 2 4 4c0 0 0 3.5-0.2 6.5-0.3 3 1.7 6.5 3.2 9.3 1.5 2.7-0.2 7.7-0.2 7.7l0.2 4.5c0 0-2.2 1.5-4.5 1.8-2.2 0.2-5.2-0.7-5.2-0.7 0-0.7 0-1.4-0.7-2.6-0.6-0.9-2.9-0.9-3.8-1.3l-1.9-0.9c-0.1-0.1-0.5-0.6-0.6-0.7-0.5-0.4-1.1-0.7-1.5-1.1-0.3-0.2-0.4-0.5-0.7-0.7-0.5-0.4-1.1-0.7-1.6-1.1-0.5-0.5-1.1-1.1-1.5-1.7h-2.5l-4.5-0.5c0 0-4.7-1-6.2-1.5-1.5-0.5-7.8-0.5-9-0.7-1.3-0.3-3.5 0-6.3 0.2-2.7 0.3-11.2 4.5-13 5.8-1.7 1.2-18.8 5.7-22.8 6.5-4 0.7-7.5 6.5-7.5 6.5 0 0 3.5 2.7 4.5 5.2 1 2.5 2.5 3.3 4.5 5.1 2 1.8 2 5.8 2 5.8 0 0-2 3.1-3.5 4.3-1.5 1.3-0.8 1.8 1.2 2.8 2 1 2.8 2.7 4.8 5 2 2.2 2 5.7 1.5 8-0.5 2.2-0.3 3.7 0.2 6.7 0.5 3 0.3 3.8-1 6-1.2 2.3-2.5 3.5-2.5 3.5 0 1.1 1.5 4.8 2.2 5.7 0.8 1.2 4.8 3.8 7.1 3.8 2.2 0 8.1-1 8.1-1l1.7 2h0.4c-0.4 1.3-0.9 2.7-1.1 4-0.1 0.4 0 0.9-0.1 1.3-0.1 0.3-0.4 0.6-0.5 1-0.2 0.7-0.2 1.6-0.4 2.3-0.1 0.3-0.3 0.7-0.4 1-0.2 0.6-0.3 1.4-0.5 2-0.8 2.2-2.2 4.3-3.5 6.2-0.9 1.2-2 2.7-3 3.8-1.2 1.2-4 2.6-4.7 3.6-5.6 0.5-4.7 4.1-7.9 6l-0.7 0.3-7.5 0.5c-2.4 0.1-3.2 3.3-3.9 5-1.1 2.9-2 5.7-2.7 8.7-0.2 0.7-0.3 1.5-0.5 2.3-0.2 0.7-0.5 1.3-0.8 2-0.5 1.7-0.9 3.4-1.5 5.1-0.7 2-1.5 4-2.2 6-0.5 1.2-2 2.9-3.1 3.6-0.3 0.7-0.3 1.6-0.1 2.3l1.1 4.4c0.3 1.4 2.7 1.3 3.3 3.5l-0.1 1.4c-0.4 0.5-0.8 1.1-1.2 1.5-0.1 0.1-0.7 0.3-0.9 0.4-1.1 0.7-2.1 1.4-3.2 2.1-0.6 0.3-1.3 0.6-1.8 0.9-0.1 0.1-0.5 0.8-0.5 0.8-0.4 2.8 2.3 1.9 2.9 4.7 0.1 0.4 0 1.1-0.2 1.5-2.1 1.7-6.3-1.3-7.3 1.8 0 0 0.8 2.3 2.3 3.3 1.5 1 2.7 3 3.7 4 1 1 2 2.7 0.5 4z"/>
			<path id="Fatick" class="s0" d="m271.3 531.1q0.4 0 0.9 0c0.7-0.1 1.2 0.9 1.2 0.9l2.4 0.3 3.6-0.2 3.3 0.3c0 0 0.4 0.4 1 1.3 2.4 2.6 4.6 3.3 7.4 5 1.3 0.8 2 2.2 2.5 2.6 0.9 0.6 2.1 1.1 3 1.6 0.6 1.1 0.8 6.3 0.9 7.7 0.1 1-1.7 4.6-2.3 5.4-0.8 1.2-6.6 3.9-6.2 5.5 0.9 1.6 4.7 2.8 5.7 4.3 0.8 1 2.6 0.5 4 1.4 1.2 0.7 1.8 0.5 3 1.9 0.3 1.4-0.2 3 0 4.4 0.1 0.9 0.7 1.9 0.8 2.8 0.4 1.8 0 8.3-0.3 10.2-0.1 1.2 0.2 2.1-0.5 3.1-0.6 0.9-1.1 2-1.9 2.9-1 1.3-6.3 2.3-7.6 3.8l1 8.7c1.2 1.6 4.8 2 6.3 3.2 1.5 1.1 2.8 2.6 4.3 3.7 1.7 1.3 4.5 1.8 5.8 3.4 0.3 1.4 0.7 2.8 0.9 4.2 0.1 0.8 0.1 1.8 0.2 2.7 0.2 1.9 0.9 7.2 2.1 8.7 0.4 0.5 1.1 0.8 1.5 1.2 0.3 0.4 0.5 1 0.9 1.4 0.7 0.9 1.6 1.8 2.4 2.7 0.9 0 1.9-0.1 2.8-0.3 0.4 0.7 0.5 2.1 0.3 2.9l1 1.3c0.9 0.1 2.1 1.1 2.6 1.9l0.2 1.3-0.7 2.1-8 0.1c-0.3 0-0.6-0.3-0.9-0.3q-12 0.1-24 0.1c-4.3 0-9.3-0.4-13.4 0.3l-0.7-0.3h-18.7c-0.4 0-0.8-0.3-1.2-0.3-0.5 0-1.2 0.2-1.7 0.2-6.8 0-14.5-0.1-21.3-0.1-1.2-2.2-2.4-4.2-3-4.4-0.4-0.5-0.6-1.5-0.6-2.1 0-1.8 2.6-5.8 4.1-6.6 0.3-0.1 0.7-0.1 1-0.2q0.6-0.3 1.2-0.6c0.7-0.2 1.5-0.3 2.2-0.5 1.3-0.5 5.1-2.4 5.7-3.8l-0.3-1c-0.8-0.5-1.7-0.9-2.7-1.1v-0.9c1.2-0.7 1.9-1.9 1.9-3.4 0.8-1.4 1.5-0.7 2.2-3.1-0.6-1.8-2.4-2.1-4.1-2.2l-0.4 1c0.4 1.1 0.8 2.2 0.7 3.4-0.2 0.7-2 2.2-2.5 2.8-0.4 1.2-0.2 3.5-1 4.3l-1 0.4c-0.5-0.2-1.1-0.8-1.5-1.3-0.8 0.7-1.3 2.4-2 3.3-1.1 1.7-2.9 2.7-4.5 3.7-0.5 0.4-1 0.9-1.6 1.1-0.7 0.2-1.6 0.2-2.2-0.2-0.3-0.2-1.8-1.7-2-2.1-0.8-0.9-4.7-7.6-4.8-8.5-0.4-2.5 2.1-4 2.3-5.6 0.2-2.2-1.9-2.7-0.7-5.2 1-2.1 2.1-4 3.6-5.7 0.6-0.7 1.4-1.3 1.9-2.1q0.3-0.4 0.5-0.8 0.3-0.4 0.6-0.7c0.9-1 2.1-1.6 3-2.4 0.6-0.5 0.7-1 1.2-1.6 0.3-0.5 0.8-0.9 1.2-1.4l1.3-0.2c1.1 0.4 1.4 2 2.9 2.6l0.4-0.8c0-0.6-0.4-1.5-1-1.8l0.2-1.3c2-0.2 3.5-0.4 4.8-2.1l1 0.3c0.6 1.1 0.1 2.3 0.3 3.5 0.3 1.6 1.6 4.3 2.7 5.6 0.6 0.6 1.5 1.2 2.1 1.9l0.8-0.1 0.4-0.9c-0.1-0.8-0.4-1.5-0.5-2.3-0.1-0.4 0-0.9-0.1-1.3-0.1-0.7-1.1-2-1.7-2.4-1.3-2.8 2.5-5.5 0.5-8.3-0.5-0.4-1.4-0.7-2-0.8l-0.7-0.6c0.1-1.5 0.7-1.7 1.1-2.8 0.9-2.5 0.1-6 0.8-7.8l0.1-0.4c3.3-2 1.7-6.2 2.4-9.3 0.3-1.1 0.8-1.8 0.8-3-0.1 0.1-0.7 0.2-0.8 0.3-0.5 0.4-3.2 4.1-3.2 4.7-0.2 1.2 0.6 2.4 0.3 3.6-0.2 0.8-2 2.4-2.3 3.1-0.1 0.1-0.3 0.8-0.3 1-0.7 1.9-0.3 1.7-0.6 3.3-0.1 0.9-3.9 9.6-4.5 10.2-0.4 0.4-1.2 0.8-1.9 0.8l-0.8-0.4-0.4-1.1c-1.7 0.2-1.5 0.6-2.5 1.4-1.2 0.9-7.1 3.1-8.7 3.6-1.9 0.4-4.1 0.6-5.8 1.7-0.1 0-0.2 0.1-0.3 0.1-1.6 1.5-1 3.8-1.2 5.2q0 0.4-0.2 0.7c-1.7 2.8-4.5 0.5-5.2 5.5-0.6 0.8-1.4 1.1-2.3 1.2-1 0-2.3-0.8-2.5-1.9-0.4-1.7 0.5-3-0.5-4.8-1-1.9-2.9-1-3.6-2.7-0.5-1.2-0.2-3.2-0.7-4.8-0.5-0.4-1-0.9-1.3-1.4l-0.1-1.1c0.5-0.8 1.2-1.4 1.5-2.4 0.5-1.9-0.4-4-0.7-5.8-0.4-1.6-0.6-3.4-0.7-5q-0.1-0.6-0.2-1.2c0-0.7-0.3-1.5-0.3-2.3-0.1-3.7 2.6-6.1 5.3-8.1 1.6-1.2 4-2.6 6.2-2.4 2.9 0.3 4 2.8 5.8 3.1 1 0.2 2.4-0.2 3.6-0.1l0.7 0.6 0.2 1c-0.3 0.5-0.6 1.1-1 1.7l0.1 0.9 1 0.1 1-0.5c1.4-2.1 0.7-5.4 3.3-7.2 2.1-0.8 5 2.4 6.9 1.8 0.2-1-0.4-2.1-0.9-3 0.2-1 0.4-2.1 0.9-3 2.7-1.2 2.8-0.6 5.7-2.6l0.2-0.8c-1.4 0-1.8 0.7-3 1.2-1.4 0.6-4.1 0.4-5.2-0.9l-0.2-1c0.5-1.9 3.7-2.3 5.2-3 0.3-0.1 2.3-1.4 2.6-1.6 1-0.9 1.6-2 2.4-3 0.5-0.6 1.3-1.6 1.9-2.1 0.3-0.2 0.6-0.4 0.8-0.6 1.4-1.2 4-4.4 4.4-6.2 1.1-0.8 2.3-1.6 3.7-1.8 0.8-0.2 1.7 0 2.5-0.2 2.2-0.4 3.4-1.9 4.1-4l1-0.5c3.4 0.2 2.7 1.6 4.6 2 1 0.2 2.2-0.1 3.2-0.3 0.6-0.1 1.1-0.1 1.7-0.2 1.6-0.3 3.6-1.8 4.3-3.5q-0.3-0.1-0.8-0.1z"/>
			<path id="Fatick" class="s0" d="m195.6 584.2c0.1 2.2-0.2 4.3-0.2 6.3 0.1 1.3 0.8 2.3 0.7 3.7-0.1 0.7-0.3 1.4-0.4 2.2l-0.7 0.6-1.1 0.1c-0.1-0.8 0.1-1.6 0.1-2.4 0-0.8-0.1-1.8-0.2-2.6-0.2-1.7-0.2-3.5-0.4-5.2-0.1-0.9-0.3-1.6-0.4-2.4-0.2-1.8 0-3.6 0-5.3-0.1-1.7-1-2.6-0.9-4.2 0-0.8 0.6-5 0.7-5.7 0.5-1.6 0.7-2.5 1-4.2 0.1-0.4 0.3-0.8 0.3-1.1 0.1-1-0.6-3.5-1.1-4.3-0.6-0.9-1.2-1.7-1.6-2.7q-0.5-1.4-0.6-3.3h0.1c0 0 2.2-1.8 3.7-3 1.5-1.3 0.5-3-0.5-4-1-1-2.2-3-3.7-4-1.5-1-2.3-3.3-2.3-3.3 1-3.1 5.2-0.1 7.3-1.8 0.2-0.4 0.3-1.1 0.2-1.5-0.6-2.8-3.3-1.9-2.9-4.7 0 0 0.4-0.7 0.5-0.8 0.5-0.3 1.2-0.6 1.8-0.9 1.1-0.7 2.1-1.4 3.2-2.1 0.2-0.1 0.8-0.3 0.9-0.4 0.4-0.4 0.8-1 1.2-1.5l0.1-1.4c-0.6-2.2-3-2.1-3.3-3.5l-1.1-4.4c-0.2-0.7-0.2-1.6 0.1-2.3 1.1-0.7 2.6-2.4 3.1-3.6 0.7-2 1.5-4 2.2-6 0.6-1.7 1-3.4 1.5-5.1 0.3-0.7 0.6-1.3 0.8-2 0.2-0.8 0.3-1.6 0.5-2.3 0.7-3 1.6-5.8 2.7-8.7 0.7-1.7 1.5-4.9 3.9-5l7.5-0.5 0.7-0.3c3.2-1.9 2.3-5.5 7.9-6 0.7-1 3.5-2.4 4.7-3.6 1-1.1 2.1-2.6 3-3.8 1.3-1.9 2.7-4 3.5-6.2 0.2-0.6 0.3-1.4 0.5-2 0.1-0.3 0.3-0.7 0.4-1 0.2-0.7 0.2-1.6 0.4-2.3 0.1-0.4 0.4-0.7 0.5-1 0.1-0.4 0-0.9 0.1-1.3 0.2-1.3 0.7-2.7 1.1-4q0.2-0.6 0.4-1.3c1.5-0.8 3.3-0.2 4.9-0.4 2.3-0.2 4.8-0.8 7.1-0.9 0.5-0.1 0.8 0.1 1.3 0.1l2.6 0.3c2.3 0.4 4.7 1.2 7.2 1 1.3 0 5.6-1.4 6.9-0.2 1.2 1.1 3.5 3.9 5.1 4.4 2-0.3 4-0.5 5.9-0.9 2.5-0.5 4.9-1.9 7.5-1.9 1.3 0 2.4 0.5 3.5 0.7 1.2 0.2 2.5 0 3.7 0.3 1.3 0.2 2.5 0.9 3.7 1.3 0.5 0.1 1.1 0.1 1.6 0.3 1.7 0.7 4 1.7 5.3 3 1.4 1.2 2.5 3.1 4.1 4.1 1.7 1.1 4.7 1.5 6.7 1.4 1.7 0 3.4-0.6 5.1-0.3 1.5 0.3 2.7 0.9 4.2 1.4 2.5 0.9 7.1 1 9.7 0.9 0.4 0 0.8-0.2 1.1-0.2l6.2-0.8c0.4-0.1 0.8 0.1 1.2 0 0.8 0 1.6-0.3 2.4-0.4 1.6-0.2 3.4-0.1 5-0.3 2.8-0.4 5.8-1.3 8.4-2.5 0.3-0.1 0.6-0.4 0.8-0.5 0.9-0.5 1.8-0.7 2.7-1.3 0.8-0.7 1.2-1.5 1.9-2.2 0.2-0.2 0.6-0.4 0.8-0.6 0.7-0.7 1.3-1.4 2-2 1.6-1.5 5-4.2 6-6.2 0.5-0.9 0.9-2.3 1.1-3.3 0.1-0.8-0.1-1.7 0-2.5 0.2-3 0.6-6 0.8-9 0.1-3.7-2.1-6.9 0.2-10.2l4.8-2.3 11.8 8.8c0 0 3.8 1 5.8-0.3 2-1.2 3.2-2.2 3.2-2.2l3.3 0.5 9 6.5 30.5 12.2 1.7 2.5 2 6 0.1 0.1c-1.5 0.9-3 1.8-3.8 1.9-1.3 0.3-8.3 1.8-10.3 1.8-2 0-15.2 1.2-15.2 1.2l-15.8 12.8-8.7 1.7-18 18.3q0 0.4 0 0.8l-8.1 1.2c0 0-6.8-0.4-8.8-0.4-2.1 0-4.9-1-6.8-2.5-2-1.5-3.7-0.8-4.7-0.2-1 0.6-1.6 1.9-4.7 4.3-2.1 1.6-3.6 3.9-4.4 5.4h-0.4l-4.5-1.1c0 0-3.8-0.7-5.6-1.3-1.7-0.6-3.7-0.2-5.1-0.1-1.4 0.1-3.7-0.3-3.7-0.3 0.1-0.2 0.5-1.3 0.5-1.4-2.3-0.7-3.5-0.8-5.8-0.7l-5.4 1.7c-3.7 0.7-7.4 2.1-11.3 2.6-1.5 0.3-3.1 0.5-4.6 0.6-1.4 0.1-3.1-0.2-4.5 0.3-1.5 0.6-3.1 2.4-4 3.6l-7.7 10-3.3 2.5c0 0-4.2 3-6.2 4-2 1-1.3 4-1 5.5 0.2 1.5 1.5 6.4 1.5 6.4 0 0 0.6 0 1.3 0v1.4c-1.7 0-4.1 1.3-5.5 1.6-3.8 0.8-3.5-1.3-5.4-2.4-0.5-0.3-2.6-0.7-3.3-0.6-0.4 0-0.8 0.2-1.2 0.2-1.3-0.1-1.8-1.5-1.8-2.6-0.1-1.1 0.3-2.1 1.2-2.8-2.9 1.8-6.3 3.7-3.8 7.7 0.5 0.9 1.3 1.4 1.8 2.3l-0.2 0.8c-0.7 0.5-1.5 0.4-2.3 0.4-0.9 0.1-1.5 0.1-2.4-0.1-1.2-0.3-3.3-2.2-4.4-1.9l-0.5 0.8c0.3 0.9 0.3 2.5-0.2 3.3-0.4 0.8-1.3 1.5-1.8 2.3-0.4 0.5-0.6 1.1-1 1.7-0.3 0.5-0.8 0.9-1.1 1.5-0.8 1-1.3 2.3-1.9 3.4-0.1 0.3-0.4 0.6-0.5 0.9-0.2 0.3-0.2 0.7-0.4 0.9-0.1 0.3-1.8 1.9-2 2-2 1-4.6-0.3-6.6 1.8-0.2 0.3-0.3 0.7-0.5 0.9-0.4 0.5-0.9 0.9-1.3 1.4-0.2 0.2-0.3 0.6-0.5 0.8-0.2 0.3-0.5 0.5-0.7 0.8-0.2 0.3-0.8 1.3-0.9 1.6-0.9 1.8-1.2 3.5-2.8 5l-0.2-0.4c-0.7 0.9-2 0.9-3 1-4 0.6-4.3 0.5-7.7-1.7l-1.9-1.1c-1-0.3-2.4 0.1-3.5 0.1l-0.7-0.4c0.4-0.4 0.8-1 1.2-1.3 0.3-0.2 0.7-0.3 1-0.5 1.3-0.8 1.7-1.7 2.4-2.9 0.2-1.1-0.6-1.9-0.7-2.9l0.7-0.8c6.6-0.4 4-3.3 5.5-5.4 0.7-0.4 1.7-1 2.6-1.1-0.4-0.2-1.1-0.2-1.5-0.1-2.6 0.8-1.3 3.2-3.4 4.2-0.5 0.3-3.7 1.3-4.2 1.4-1.1 0-2.2-0.5-3.2-0.4l-0.8 0.5-0.2 1.1c0.3 2.2 1.4 1.8 2.4 3.1v1c-0.2 0.3-0.6 0.8-1.1 0.9v-0.1c-1.1 0.8-3.4 1.5-3.7 3.1-0.3 1.5 0.6 3-0.4 4.4-0.4 0.6-1 0.9-1.5 1.3-1.5 1.4-3.5 3-4.2 5.1-0.6 1.6-0.2 1.9 0 3.4 0.2 1.1-0.1 2.5-0.1 3.7q0 0.9 0.2 1.8c0.1 1 0.3 2 0.3 3z"/>
			<path id="Ziguinchor" class="s0" d="m208 848l0.1 1.1c1.1 0.3 3.1 0.5 4.2-0.2-0.1-4 2.8-3.1 5.1-4.3 0.6-0.3 1.2-0.7 1.7-1 5.3-3.2 3.7-6.3 5.2-8.1 0.9-1 2.6-0.9 3.6-1.9 0.7-0.7 0.8-1.6 1.9-2.1 1.2-0.1 2.2 0.5 3.3 1.1 5.3 3.2 2.3 6.4 3.6 10.5 0.5 1.7 2.4 3.3 3.7 4.4l1.2 0.1-0.2-0.9c-2.7-1.7-1.6-8.1 4.6-8.1 4.6 0 11.5 6.3 15.1 7.3 1.4 0.4 2.8 0.1 4.2 0.6 1.2 0.4 2.3 1.7 3.5 2.1 2.2 0.6 5.1-1.2 6.7-2.6 1.8-1.6 1.2-3 2.2-4.4 1.1-0.5 2.4-0.1 3.3-0.8 0.3-0.6 0.7-1.2 1-1.7l1-0.4c0.5 0.3 1 0.7 1.5 1 2.8 1.3 9.6 1.9 12.1 0 0.3-0.2 0.4-0.6 0.6-0.8 0.6-0.4 1.2-0.2 1.6-1 1.3-0.9 3.7 0.3 4.4 1.6 0 1 0.3 2.3 1 3 2.3-0.2 2.8-1.5 4.6-2.2 2.2-0.9 4.6-0.7 6.7-1.5 1.5-0.5 2.8-2 4.3-2.5 3.1-1 6.6 0.5 9.7-0.8 3.9-1.6 2.9-4.3 8.4-3.6 4.4 0.5 5.5 3.9 8.4 6.1q0.6 0.4 1.1 0.6h0.1c0.3 0.6-2.5 3.6-1.5 5.6 1 2 2 5.5 2 5.5 0 0 1.7 1 3 2.3 1.2 1.2 1.5 1.7 1.7 3.2 0.3 1.5 1.8 4 0.3 4.3-1.5 0.2-2.5 0.7-1.8 2 0.8 1.2 1 1.5 2.8 1.2 1.7-0.2 4-1 4.5 0.3 0.5 1.2 1.7 5.1 1.7 5.1-2.3 0.1-4.7 0.3-7.1 0.5-1.5 0.1-2.8 0.7-4.4 0.3-1.1-0.3-2.3-0.7-3.4-1.1l-12.7-4.2c-0.1 0-2.2 0-2.5 0-0.2 0-1.1-0.3-1.2-0.3-2.3 0.4-4.8 0.7-7.1 1.3-3.1 0.6-6.1 2.2-9.3 1.8l-0.7 0.5c-0.1 0-2.9 0.1-3 0.1-1.1-0.4-2.4-0.8-3.6-1.1-2.1-0.4-5.2-0.3-7.1 0.7-1.6 0.9-3 2.1-4.6 3-2.1 1.3-4.3 2.3-6.5 3.4-0.4 0.2-0.7 0.8-1.1 1-0.8 0.5-1.8 0.9-2.6 1.3-0.1 0-0.3 0.5-0.4 0.5-1.4 0.8-2.8 1.7-4.2 2.4-2 1-4.1 1.9-6.1 2.9-2.6 1.3-3.6 3.4-6.6 3.5-4.4 0.3-9.2 0.3-13.6 0.7-2.4 0.3-4.8 1.5-7.5 1.4l-0.4-0.4c-2.2-0.2-4.6-0.7-6.9-0.8 0 0-1.9 0.2-2 0.2-0.1 0.1-0.6 0.5-0.8 0.5-2.4 0.6-5.4 1.6-8 1.1l-8.7-1.6c-0.2 0-0.4-0.1-0.6-0.1-3-0.1-3.8-0.5-6.4 0.7-2.2 1-2.5 1.2-4.3 2.7-0.5 0.5-2 2-2.3 2.7l-0.8-0.3c-0.3-0.8-0.8-1.1-1.1-1.7-1.3-2.6-1-6.1-3.4-8.9-1.6-1.8-4.3-2.8-6-4.6-1.7-1.9-4-7-4.2-9.6-0.1-1.2 0.2-2.4 0.3-3.6 0-1.2-0.1-2.5 0.3-3.6 0.9-2.5 4.4-6.6 6.3-8.4 2.1-2 3.8-0.8 4.8-1.7 0.3-0.6 0.7-1.2 1.1-1.6 1.3-0.2 2.6-0.1 3.8-0.4 1-0.3 1.8-1 3-1.1 0 0.5-0.2 1.4-0.6 1.8z"/>
			<path id="Ziguinchor" class="s0" d="m192.8 797.6c-0.4 0.4-0.6 1.2-0.8 1.7-0.5 0.9-1.2 1.6-1.7 2.4l-0.5-0.4c-0.4-0.9-0.4-2-0.5-2.9-0.1-3.5 0.8-5.2 2.5-8 0.3-0.5 0.5-1 0.8-1.4 0.4-0.5 1-0.9 1.4-1.4 1.1-1.6 1.8-3.5 2.6-5.2 0.2-0.3 0.5-0.6 0.6-0.9 0.1-0.3 0.6-2.9 0.6-3.2 0-1-0.2-4.5-0.3-5.4-0.2-1.1-0.7-2.3-0.7-3.4-0.1-1.8 1-3.5 1.5-5.1 1.1-4.2 1.1-10.3 0.5-14.7-0.1-0.7 0-1.5-0.2-2.4 1.3-0.5 1.7-1.9 1.9-3.3l0.4-2.5-1-2.3c0-0.8 0.5-1.5 1.3-1.9h0.8l0.1 0.4 1.4-0.4c0.5-0.9 1.7-2.2 2.7-2.6 0.3-1.1 0-2.4-0.6-3.3 0.2-2.5 4.4-2.2 5-3.3 3 0.6 6.3 0.1 9.3 0.1l46.1 0.4c0.1 0 1.2 0.4 1.5 0.5 0.9 0 2-0.6 2.9-0.5 9.7 0 19.4 0.3 29.1 0.2 3.8 0 7.5-0.2 11.3-0.2 5.1 0 10.2 0.2 15.3 0.3 0.1 0 0.9-0.4 1-0.4 0.9 0 1.9 0.4 2.8 0.5 3.3 0.1 6.6-0.1 9.8-0.1 0.1 0 1.1-0.4 1.2-0.4 0.7 0.1 1.7 0.4 2.4 0.4q8.6 0 17.2 0.1l-0.1 1.7c-0.8 0.9-1.7 1.2-2.7 1.9-1.6 1.2-5.2 4-4.6 6.4 1.7 3.3 4.7 1.2 6.5 2.7l0.7 1.6c-0.3 1.5-4.2 6.9-5.2 8.4-0.7 1.1-1 2.9-1.4 4.1-0.4 1.4-2.3 6-3.1 7-0.1 0.1-2.6 2-2.9 2.2-0.7 1.3-0.6 3.2-1.6 4.3-0.7 0.7-1.6 0.7-2.6 2.1-0.1 1.2-0.7 3.4-1.8 4.1 1.5 1.8 1.9 4.3 3.2 6.2-0.6 0.3-1.5 1.7-1.7 2.3-0.1 1.3 0.9 3.4 0.4 4.6-1 2.4-4.1 3.9-4.5 4.9-0.8 2.5 0.1 5.2-0.5 7.4l-0.8 2-0.4 0.9 0.2 0.9 0.7 0.6-0.1 1.2c-0.5 0.8-1.6 1.3-1.9 2.2-0.5 1.5 0.3 3.2 0.4 4.7q0 0.1 0 0.2-0.2-0.3-0.6-0.6l-0.5 0.8c-0.1 2.5-0.3 5.3-2.6 6.6-0.6 0.4-1.2 0.5-1.7 1.1l-0.1 0.9c3.4 3.8-0.1 4.5-1.3 5.9-0.4 0.5-2.6 3-3 3.2-1.5 0.7-5.5 0.1-7.4 0.4-0.8 0.1-1.5 0.4-2.3 0.5-1.1 0.2-1.8 0-2.9 0.4-0.8 0.6-0.9 1.7-1.5 2.5-0.5 0.7-0.9 0.7-1.7 1-2.5 0.8-3.7 0.4-5.8-1.2-1.1 0.1-2.2 0.8-3.4 0.4-4.7-4.1-8.4 1.7-12.3 2.6-2 0.4-4.1-0.3-5.8-1.1-1.4-0.7-2.6-1.3-3.3-1.3-2 0.7-2.7 2.7-5.3 2.8l-0.6 0.7 0.1 2.1c-0.5 0.3-1.8 2.7-1.9 3.2l-0.8 0.5c-2.7 0.3-5.4-1.8-8.2-2.1-0.8 0-1.6 0-2.3-0.3-0.8-0.3-2.3-1.7-2.8-2.5l-0.2-1.2-0.8-0.3c-0.7 0.3-1.6 0.4-2.4 0.4-1.1-0.8-0.6-2.8-1.5-3.9-0.6-0.3-1.1-0.7-1.6-1-1.6-0.8-4.8-0.8-4.2-3.6 0.7-0.7 0.6-2 0.4-2.9 0.3-2.1 2.9-1.7 4.2-2.7l-0.4-0.7c-1.2 0-2.3 0.1-3.5 0-0.9-0.7-2.1-4.9-2.2-6.1l-0.6-0.2c-0.7 2.2 1.2 7.1 0.7 9.3-1.5 1.9-1.7 3.5-2 5.9h-0.7c-0.5-0.2-4-4.8-5.1-5.8-2-1.7-3.4-1.5-5.5-2.6l-0.5-0.7c-0.1-0.7 0.1-1.6 0.4-2.2l-0.3-1.1c-0.7 0.2-1.4 0.5-2 0.8-0.6 1.1-1.4 3.5-2.2 4.2-0.8 0.5-5.6 1.7-6.3 1.3-2-0.9-2.9-7.8-2.1-9.5 1.8-3.9 7.2-2.5 8.3-7.8 0.3-1.6 0.1-3.4 0.2-5 0.1-1.3 0.1-3.4-1.1-4.1-0.5 1.3-1.5 3.6-1.7 4.9-0.4 2.1 0.3 3.4-1 5.4-1.3 1.1-5 0.2-6.8 2.9-0.6 1-0.3 8.5-0.2 10.1 0.2 2.4 1.3 4.6 0.8 7.3-1.6 1.9-3.6 2.5-5.6 3.7-2 1.4-5.1 3.6-6.9 5.2-0.4 0.4-0.8 1.1-1.3 1.5-0.8 0.6-2.2 0.6-3.2 0.6-1.1 0.6-1.2 2-2.8 2.6-4.7-0.2-5.8-3-5.7-6.9 0-0.6-0.1-1.2 0-1.8 0.1-0.8 0.4-1.5 0.3-2.3-0.1-2.7-1.6-5.2-1.3-8.1 0.1-1.6 1.2-4.5 1.9-5.9 0.3-0.6 0.8-1 1.2-1.5 1.1-1.5 3.8-4.7 5.7-5.1 1.4-0.4 1.9 0.4 3.2 0.6 1.3 0.3 2.7-0.6 4 0.7l0.9-0.5 0.1-1.2c-0.9-0.8-1.8-2-3-2.3-0.6-0.2-1.2-0.2-1.8-0.4-0.4-0.2-0.7-0.5-1.1-0.7-1.9-0.7-3.6 0.3-5.2 1.2-0.8 0.5-1.7 1-2.3 1.9-0.1 0.2-0.2 0.6-0.3 0.9-0.7 1.5-2.2 3.8-3.8 4.2l-0.8-0.4-0.4-1.1c0.5-0.9 0.7-2 1.1-2.9-0.1-1.1-0.9-2.2-0.9-3.3 0-2.2 2.1-4.4 3.4-5.9 0.4-0.5 0.7-1.2 1-1.7-0.2-1.3-0.6-4.4-1.6-5.3-0.1 0.1-0.8 0.5-0.8 0.6z"/>
			<path id="Dakar" class="s0" d="m52.9 420.9l-1.8-0.8-0.7-0.4 0.1-0.4 0.4-0.4 0.6 0.1 0.5 0.3 0.6 0.2h0.7l0.5-0.3 0.4-0.4 0.2-0.4 0.5-0.5 0.5-0.7 0.6-0.8 0.9-0.1 0.8 0.1 1.1-0.1 0.6-0.5 0.4-0.5 0.6-0.3 1 0.5 1.2 0.5 1.2-0.1 1.1-0.2 2.2-0.9 2.4-1.2 1.4-0.2 1.6-0.2 2.7-1.1 2.7-1.2 1.3-0.7 0.8 0.1 2.6-1.7 3.3-1.3 2.6-0.9 3.2-1.3 1.6-1.1h1.1l1.1-0.2 1.8-1 3.5-2.1 3.1-1.3 6.1-3.6 3.1-2 2.3-1.2c0 0 4.1 7.2 5.1 8.7 1 1.5 1.5 3.4 2 4.9 0.5 1.5 0.3 2.2 1.5 3.7 1.3 1.5 1.5 3.3 1.5 5.3 0 2-0.8 22.6-0.8 22.6l-1.6 10.7-0.1-0.3-1.3-4.3-2.6-3-6.5-6.2-4.7-3.7-2.9-0.9-1.7-0.9-1.2-0.8-2.1-1.4-1.8-0.1-1.2-0.2-1.2-1-1.6-0.8-2.4-1.1-5.6-2.1-2.6-0.1-5.5 1.2-4.6 1.6-1.9 0.7-0.4 1-0.2 1.2-0.1 1-0.4 0.9-0.6 0.4-0.6 1-0.3 0.9 0.1 0.6 0.7 0.7 0.9 0.4 0.4 0.8-0.3 0.4-0.4 0.2-0.5 0.6-0.4 1.1-0.3 1.4-0.8 1.1h-0.7l-0.3-1.1-0.2-1.5-0.2-1.6v-0.6l-0.8-0.2-0.8 0.1-0.8-0.1-0.4-0.2-0.3-0.6-0.8-0.2-0.6-0.2-0.6-0.3-0.3-0.8-0.5-2.1v-0.7l-0.6-0.1h-0.6l-0.4-0.6-0.8-1.8-0.5-0.5-1 0.3-0.9 0.1-0.7-0.3-0.5-1.3-0.4-1.6-0.3-1.4-0.3-0.3z"/>
		</g>
		<g id="labels">
		</g>
		<path id="Region_borders" class="s1" d="m115.4 392.6c0 0 4.1 7.2 5.1 8.7 1 1.5 1.5 3.4 2 4.9 0.5 1.5 0.3 2.2 1.5 3.7 1.3 1.5 1.5 3.3 1.5 5.3 0 2-0.8 22.6-0.8 22.6l-1.5 10.7m67.7 105.2c0 0 2.2-1.8 3.7-3 1.5-1.3 0.5-3-0.5-4-1-1-2.2-3-3.7-4-1.5-1-2.3-3.3-2.3-3.3 1-3.1 5.2-0.1 7.3-1.8 0.3-0.4 0.3-1.1 0.2-1.5-0.6-2.8-3.3-1.9-2.9-4.7 0 0 0.5-0.7 0.5-0.8 0.5-0.3 1.2-0.6 1.8-0.9 1.1-0.7 2.1-1.4 3.2-2.1 0.2-0.1 0.8-0.3 0.9-0.4 0.4-0.4 0.8-1 1.2-1.5l0.1-1.4c-0.6-2.2-3-2.1-3.3-3.5l-1.1-4.4c-0.2-0.7-0.2-1.6 0.1-2.3 1.1-0.7 2.6-2.4 3.1-3.6 0.7-2 1.5-4 2.2-6 0.6-1.7 1-3.4 1.6-5.1 0.2-0.7 0.6-1.3 0.7-2 0.2-0.8 0.3-1.6 0.5-2.3 0.7-3 1.6-5.8 2.7-8.7 0.7-1.7 1.5-4.9 3.9-5l7.5-0.5 0.7-0.3c3.2-1.9 2.3-5.5 7.9-6 0.7-1 3.5-2.4 4.7-3.6 1-1.1 2.1-2.6 3-3.8 1.5-1.9 2.7-4 3.5-6.2 0.2-0.6 0.3-1.4 0.5-2 0.1-0.3 0.3-0.7 0.4-1 0.2-0.7 0.2-1.6 0.4-2.3 0.1-0.4 0.4-0.7 0.5-1 0.1-0.4 0-0.9 0.1-1.3 0.3-1.7 1-3.6 1.5-5.3 1.5-0.8 3.3-0.2 4.9-0.4 2.3-0.2 4.8-0.8 7.1-0.9 0.5-0.1 0.8 0.1 1.3 0.1l2.6 0.3c2.3 0.4 4.7 1.2 7.2 1 1.3 0 5.7-1.4 7-0.2 1.1 1.1 3.4 3.9 5 4.4 2-0.3 4-0.5 5.9-0.9 2.5-0.5 4.9-1.9 7.5-1.9 1.3 0 2.4 0.5 3.5 0.7 1.2 0.2 2.5 0 3.7 0.3 1.3 0.2 2.5 0.9 3.7 1.3 0.5 0.1 1.1 0.1 1.6 0.3 1.7 0.7 4 1.7 5.3 3 1.4 1.2 2.5 3.1 4.1 4.1 1.7 1.1 4.7 1.5 6.7 1.4 1.7 0 3.4-0.6 5.1-0.3 1.5 0.3 2.7 0.9 4.2 1.4 2.5 0.9 7.1 1 9.7 0.9 0.4 0 0.8-0.2 1.1-0.2l6.2-0.8c0.4-0.1 0.8 0.1 1.2 0 0.8 0 1.6-0.3 2.4-0.4 1.6-0.2 3.4-0.1 5-0.3 2.8-0.4 5.9-1.3 8.4-2.5 0.3-0.1 0.6-0.4 0.8-0.5 0.9-0.5 1.8-0.7 2.7-1.3 0.8-0.7 1.2-1.5 1.9-2.2 0.2-0.2 0.6-0.4 0.8-0.6 0.7-0.7 1.3-1.4 2-2 1.6-1.5 5-4.2 6-6.2 0.5-0.9 0.9-2.3 1.1-3.3 0.1-0.8-0.1-1.7 0-2.5 0.2-3 0.6-6 0.8-9 0.1-3.7-2.1-6.9 0.2-10.2l4.8-2.3 11.8 8.8c0 0 3.8 1 5.8-0.3 2-1.2 3.2-2.2 3.2-2.2l3.3 0.5 9 6.5 30.5 12.2 1.7 2.5 2 6m149.8 4.6l16.9-4.8h8l12.5-13 8-0.5 5-4.5 10.8 18.8c1.1 0.4 2.3 0.8 3.4 1.2l88.4 34.2 7.8-0.1 15.7-0.2c2.3 0 4.5 0.1 6.7 0.1 1.2 0 2.3-0.2 3.4-0.2h20.3c1.6 0 3.2-0.3 4.8 0l54.3-39.2c1.1 0.2 2.2 0.3 3.4 0.6l40.7 8.2c2.4 0.5 4.8 0.8 7.3 1.4l1.9 0.4 36.8-4.2c0.2-0.1 0.5-0.2 0.6-0.2l12.2-18.3c2.3-3.5 4-5.4 6-9.1 1.6-2.9 1.9-4.8 3.1-7.9l6.2-15.9c0.4-1.2 0.8-2.3 1.2-3.5 1.3-3.3 2.7-6.8 4-10.1 0.3-0.8-0.3-5.1-0.6-6-0.4-1.2-1-3-1.6-4.1-0.6-1.3-1.8-2.9-2.7-4.1-0.3-0.5-1-0.8-1.4-1.3-0.1-0.1-0.3-0.7-0.4-0.9-0.3-0.5-0.8-1.1-1.1-1.6-0.2-0.3-0.5-0.4-0.7-0.7-0.6-0.7-1-1.7-1.6-2.5-0.1-0.1-0.6-0.5-0.7-0.6-0.5-0.8-0.8-1.9-1.4-2.7-0.7-1-1.7-1.8-2.5-2.8-0.2-0.3-0.2-0.7-0.4-0.9-0.4-0.5-0.9-1-1.3-1.4-0.4-0.6-0.7-1.2-1.2-1.7-0.1-0.2-0.5-0.3-0.6-0.6-1.2-1.5-2.3-3.1-3.7-4.4l-1.5-2.8m-188.8-198.9l-5.7 15.2-20.5 8.5-2 5.5-24 22.5-57.1 44.6-3.5-4-34.8-18.4c-1.5-2.9-3-5.8-4.6-8.7-5.2-9.2-24.1-21.5-33.6-29.5-2.1 0-8-0.8-8.5-1l-11.7-0.5c-0.8-0.5-14.9-10.3-15.8-10.8-44.7 0.1-105.2 1.5-105.2 1.5 0 0 0.2 15-1.2 15l-30 1.4c-8.3-9.8-16.7-19.4-25.1-29.1-1.9-2.1-3.6-4.4-5.4-6.5-5.1-5.9-10.2-11.7-15.3-17.6l-1.3-1.5c-1 0.9-1.5 1.9-2.3 2.8-2.7 2.5-5.2 3.6-8.5 5.2-0.1 0-0.6 0.6-0.6 0.7 0.2 1.5-1.7 4.3-2.5 5.5-0.2 0.2-0.5 0.4-0.7 0.6-0.1 0.2-0.8 1.3-0.8 1.3-7.3 4-14.5 8-21.7 12l-16.8 9.6c0 0-3.9 2.1-7.1 0.9-3.3-1.3-5.5-1-7-1-1.5 0-5.5 0.5-5.5 0.5 0 0-2.3 2 0 2 2.2 0 3.7-0.3 3 1.2-0.8 1.5-1.3 3.3 0.2 2.5 1.5-0.7 4.5-1 4.3 1.3-0.3 2.2-2 5-3.3 6.5-1.2 1.5-3.5 3.7-3.5 3.7h-4.2l-3.5 5-3.8 1c0 0-0.5 4-1.5 5-1 1-6 1.8-7.7 1.8-1.8 0-4.3 0.2-5 1.2-0.8 1-4 4.3-7.3 4-3.2-0.2-9.7-0.7-10.7-0.7-1 0-6 0.5-7 0.5-1 0-8.3-0.5-8.3-0.5m120.3 517.6l-0.1 1.7c-0.8 0.9-1.7 1.2-2.7 1.9-1.6 1.2-5.2 4-4.6 6.4 1.7 3.3 4.7 1.2 6.5 2.7l0.7 1.6c-0.3 1.5-4.2 6.9-5.2 8.4-0.7 1.1-1 2.9-1.4 4.1-0.4 1.4-2.3 6-3.1 7-0.1 0.1-2.6 2-2.9 2.2-0.7 1.3-0.6 3.2-1.6 4.3-0.7 0.7-1.6 0.7-2.6 2.1-0.1 1.2-0.7 3.4-1.8 4.1 1.5 1.8 1.9 4.3 3.2 6.2-0.6 0.3-1.4 1.7-1.7 2.3-0.1 1.3 0.9 3.4 0.4 4.6-1 2.4-4.1 3.9-4.5 4.9-0.8 2.5 0.1 5.2-0.5 7.4l-0.8 2-0.4 0.9 0.2 0.9 0.7 0.6-0.1 1.2c-0.5 0.8-1.6 1.3-1.9 2.2-0.5 1.5 0.3 3.2 0.4 4.7 0.1 0.7 0.3 8.5 0.4 8.6 1 2.4 2.1 3.4 3.4 5.5l7 11.1c0.3 0.6-2.5 3.6-1.5 5.6 1 2 2 5.5 2 5.5 0 0 1.7 1 3 2.3 1.2 1.2 1.5 1.7 1.7 3.2 0.3 1.5 1.8 4 0.3 4.3-1.5 0.2-2.5 0.7-1.8 2 0.8 1.2 1 1.5 2.8 1.2 1.7-0.2 4-1 4.5 0.3 0.5 1.2 1.7 5.1 1.7 5.1m197.8-424.4l9.5-10 2-13.5 7.5-4.5 8.5-15.6-8-17.1-6.5-19.5 13-5.5 22-1.5 14-4.5-7.5-6 11.5-47.5-15.5 3.5-24-12-9.5-3.5 7-11 1.5-35 16-6.1 23.5-20m120.9 444.5c1.4-0.8 2.6-0.6 4-0.5h0.3c0.3-4.3 2.7-5.4 6-4.1 1.5-0.5 5.4-0.5 5.4 1.9v1.1c0 0.7-1 2.2-1.5 2.8 1 4.4-1.4 3.1-1.9 5.7-0.3 1.6 0.9 2.6 2.2 1.4 0.4-0.4 0.8-0.9 1.4-1.2l0.2-0.1c3-0.9 2-0.8 5.1-0.3h0.2c0.8 0.2 1.7 1 2.7 1.2 1.2 0.4 4.2 0.6 4.2 2.3v1.1c0 2.2-6 4.4-6 7.7 0 1.1 0.2 2.1 0.2 3.2 0 2.2-1.7 3.5-3.1 5.2 2.7 0.8 5.7 0.6 8.2-0.3 3.9-1.3 11.5-0.2 6.2 5.6-0.5 0.6-1.2 1.2-1.6 1.9v0.2c1.1 0.8 5.2-0.9 3.4 6-0.2 0.9-0.5 1.9-0.8 2.8 0.2 0.4 0.5 0.9 0.8 1.3l0.6 0.2c2.6 0.8 5.4-0.5 6 3.6 0.1 1.2-0.2 3.6 0.5 4.4 3-0.1 3.4-1.7 5.7 0.6l0.3 0.3c1.5 1.3 1.9 3.1 1.6 5 1.7 1.3 1.6 3.3-0.5 3.9l0.1 0.4c0.4 0.6 0.7 1.2 0.8 1.9v0.4c-0.2 0.9-0.7 1.6-1.2 2.3-0.3 0.4-0.5 0.7-0.6 0.6 1.5 1.5 2.1 0.3 2.4 3.3 0 0.7-0.9 1.9-1.2 2.6q0.2 0.2 0.5 0.4c1.3 1.3 2 2.1 1.9 4.1 1.5 0.6 1.9 0.9 2.4 2.5 3.9-0.6 3.6 2 2.7 4.6-0.2 0.8-0.3 1.4-0.5 1.4l0.4 0.1c0.3 0 0.6 0 0.9 0.2l0.3 0.1 1.6 0.9 0.2 0.2c0.4 0.3 2.4 2.9 2.5 3.2 0.4 0.2 0.7 0.6 0.9 1l0.4 0.7c1.9 0.8 3.1 1.4 2 3.8-0.3 0.6-0.8 1.1-1.3 1.6 3.4-0.1 5.6 1 4 4.9 0.5 1.2 2.8 1.6 2.3 4.3l-0.1 0.3c-0.5 1.1-1.8 1.7-2.8 2.1l0.2 0.6c3.4-0.6 1.7 3.1 1.5 4.7-0.2 0.8 1.9 3.1 3.4 3.6h0.7l1.3 0.1c2 0.2 1.9 3.3 1.5 4.7-0.1 0.2-0.6 1.3-0.5 1.5 1.7 1.5 2.3 0.7 2.2 3.6-0.1 1.4-1.2 1.9-2.6 2q0.2 0.4 0.3 0.9c0.4 1.8-3.5 2.8-3.2 7.2 2.9 0.6 2.8 0.7 2.5 3.7 1.6 2.2 0.5 4.7 0.4 7.1-0.2 3.6 0.6 2.9-1.6 5.9 0.6 0.4 1.4 1.5 1.2 2.3 1.9-0.9 4.6 1.6 5.5 3 3 1.1 4.4-0.4 6.7 0.9 1.3-1.2 4.1-4.2 5.9-2.4 5.4-0.1 3.8 2.5 4.5 5.8l-2.7 1.6m-277.9-214.5c0 0 2.4-2.7 3.2-4 0.7-1.2 3.2-2.5 5.2-2.5 2 0 11.8-1 11.8-1 0 0 1.7-3 1.7-4.2 0-1.3 0.5-8.4 0.5-8.4 0.4-0.1 1.1-1.1 1.4-1.3 0.7-0.6 1.6-1 2.3-1.6 1.2-0.9 2.5-2 3.6-3.1 0 0 10.2-6.1 11.5-8.1 1.2-2 3-9.3 4-11l1.7-4.8c0.4-1-0.3-3.4-0.1-4.9 0.1-0.6 1.5-2.9 1.6-3.4 0.2-1.1 0.3-7.1 0.2-8.1-0.3-1.9-1.1-4-1.5-5.8l-1.3-0.6c0.1-3.5 0.2-7 0.2-10.5-0.1-1.1-0.3-2.2-0.3-3.3-0.1-2.4 0.1-4.4-0.3-6.8l-9.1-10.4c0.5-5.2 0.4-10.4 0.6-15.7 0.2-6.7 0.5-13.4 0.8-20 0-1.2 0.2-2.3 0.2-3.5 0-1.1-0.1-2.2-0.1-3.4 0.1-0.6 0.3-1.3 0.3-2 0.2-2.2 0.3-4.4 0.4-6.6-5.9-1.9-11.9-3.4-17.9-5.1-2.2-0.6-4.4-1.4-6.7-2-1.1-0.4-2.4-0.6-3.5-0.9-4.5-1.2-9-2.5-13.5-3.8-3-4.5-10.9-10.1-13.6-14.8l-7.5 15.8-19 1.5-47.1-7.8-11.2-14.2-11.8-19-2.5-6.4c0 0-7.5-2.7-11.5-0.5-4 2.3-9 1.3-9 1.3 0 0-5.5-3.8-6.7-4.5-1.3-0.8-5.3-3.4-8-3.4-2.8 0-12.8-0.2-14.5-2.2-1.8-2-4.4-3.5-6.4-3.5-1.8-1-4.5-1.8-6-2.3-0.4-0.2-1.8-1.6-2-2-0.4-0.9-0.5-3.4-1.4-3.9-1.1-0.3-2.9-1-3.8-1.7-1.2-0.9-1.2-7.4-1.3-8.6 0-0.4-16.5 0.2-16.5 0.2l-3 3.5-15.2 0.8-2.3 3.2-12.5-1.7-22.2-0.3m66.1 165.7c-0.2-1-0.5-2.2-0.5-3.1l-0.2-4.5c0-0.4 0.2-0.6 0.3-1l0.5-1.9c0.9-2.3 2.7-4.7 3.7-7.2 1.6-4.1 3.1-8.2 4.6-12.3 1.2-3.2 0.8-6.8 0.7-10 0-2.1 0.1-4 0.1-6 0-1.4-0.2-2.8-0.2-4.2l18-18.3 8.7-1.7 15.8-12.8c0 0 13.2-1.2 15.2-1.2 2 0 9-1.5 10.3-1.8 1.2-0.2 4.7-2.5 6.2-3.5 1.5-1 3.5-7.2 4.5-9.5 1-2.2 3.5-14.5 3.5-14.5m-260.4-142.7c0 0 4 1 5 2.3 1 1.2 1.7 4 1 5-0.8 1-5.3 7.7-5.3 7.7 0 0-2 8.3-3.5 11.5-1.5 3.3 1.8 3 1.8 3 0 0 10 8 11.5 9 1.5 1 8 8.3 9.7 10.3 1.8 2 1.3 10.2 1.3 10.2l7.7-9.5c0 0 4.3-8.2 5-9.5 0.8-1.2 6.9-9.7 7.6-11.7 0.8-2 8.8-9.3 8.8-9.3l6.2 4.5c0 0 9.3-0.5 11-0.5 1.8 0 3.8 3.5 5 5.3 1.3 1.7 1.3 3.2-0.7 5-2 1.7 1.5 3 3 4 1.5 1 3 0 3.5-2.8 0.5-2.7 3-2.2 4.2-1.2 1.3 1 3.5 3.2 2.9 4.6-0.6 1.3 0.6 10.6 0.6 10.6l5.8 6.5-1.3 6 5.5 2 4 4c0 0 0 3.5-0.2 6.5-0.3 3 1.7 6.5 3.2 9.3 1.5 2.7-0.2 7.7-0.2 7.7l0.2 4.5c0 0-2.2 1.5-4.5 1.8-2.2 0.2-5.2-0.7-5.2-0.7 0-0.7 0-1.4-0.7-2.6-0.6-0.9-2.9-0.9-3.8-1.3l-1.9-0.9c-0.1-0.1-0.5-0.6-0.6-0.7-0.5-0.4-1.1-0.7-1.5-1.1-0.3-0.2-0.4-0.5-0.7-0.7-0.5-0.4-1.1-0.7-1.6-1.1-0.5-0.5-1-1.1-1.5-1.7h-2.5l-4.5-0.5c0 0-4.7-1-6.2-1.5-1.5-0.5-7.8-0.5-9-0.7-1.3-0.3-3.5 0-6.3 0.2-2.7 0.3-11.2 4.5-13 5.8-1.7 1.2-18.8 5.7-22.8 6.5-4 0.7-7.5 6.5-7.5 6.5 0 0 3.5 2.7 4.5 5.2 1 2.5 2.5 3.3 4.5 5.1 2 1.8 2 5.8 2 5.8 0 0-2 3.1-3.5 4.3-1.5 1.3-0.8 1.8 1.2 2.8 2 1 2.8 2.7 4.8 5 2 2.2 2 5.7 1.5 8-0.5 2.2-0.3 3.7 0.2 6.7 0.5 3 0.3 3.8-1 6-1.2 2.3-2.5 3.5-2.5 3.5 0 1.1 1.5 4.8 2.2 5.7 0.8 1.2 4.8 3.8 7.1 3.8 2.2 0 8.1-1 8.1-1l1.7 2m262 372.8c0 0-1.8-7.7-2-9.5-0.3-1.7-0.5-3.7 0.5-5.5 1-1.7 3.5-7.5 4.2-8.7 0.8-1.3 1.3-3.5 1.3-5.5 0-2-0.3-7.5-0.3-7.5l1.5-4.3c0 0-8-10.5-9.2-11.7-1.3-1.3-2-2-0.8-5 1.3-3 1.5-5 1.5-5 0 0-5.5-4-7.2-4.8-1.8-0.7-8-3.5-8-3.5 0 0 1.7-2.5 2-4 0.2-1.5-0.8-5.5-1.5-6.5-0.8-1-3.3-5.7-3.3-5.7l-0.2-6.5c0 0-3-2.3-5.1-2.8-2-0.5-6 0.3-6 0.3 0 0-2-1.3-4-2.8-2-1.6-4-2.8-4-5.6 0-2.7-0.8-4.7 0.2-7.6 1-2.7 2.3-6 2.3-6l-0.3-12.2m418.7 137.8c0 0 0.3-1.9 0.3-3.4 0-1.5 0.5-2.5 1.8-3.7 1.2-1.3 3.2-3.8 3.2-3.8 0 0-1.2-2.7-2-5-0.7-2.2-1.7-4.5-1.5-6.2 0.3-1.8-0.2-3 0.8-4.3 1-1.2 1.5-3.2 1.5-3.2l2.3-1.7c0.7-1.1 1.8-3.4 0.6-4.5-2.2-2.2-2.2-0.6-4.2-0.2-2.7-1.9-2.6-0.1-4.5-0.8-1-1.4 2.3-7.2-3.2-7-0.1-0.5-0.1-0.9-0.1-1.4 0.4-3.7-0.5-2.4-1.3-3.7 1.2-0.1 2.3-0.1 3.3-0.8l0.3-0.3c0.6-0.7 1-1.7 1.1-2.6v-0.5c-0.3-1.3-0.9-2.2-1.4-2.9-0.9-1.4-0.8-2.9-1.7-4.2-1.2-2-2.5-2.8-4.6-3.1-3.2-0.5-3.7-4.7-6.9-6.2-0.9-0.6-3.2-2-3.5-2.8q0.3-1.1 0.3-1.9c0 0 3.4-0.2 3.6-3 0.3-2.7 1.5-3 3.9-3.2 2.2-0.3 5.5-1.5 8.7 0 3.3 1.5 4 1 6.5 3.5 2.5 2.5 4.8 2.7 5.8 0.7 1-2 2-4.5 5.2-3.5 3.3 1 5 0 6.5-2 1.5-2 3.5-2 6.3-2.2 2.7-0.3 4.7-0.3 6.7-0.3 2 0 3.5 1 5 2.8 1.5 1.7 2 3.2 3.8 3.2 1.7 0 3 1 4 2.3 1 1.2 3 2.7 5.5 4.2 2.5 1.5 7.2 3 7.7 0 0.5-3 0.5-4.2 3-4.5 2.5-0.2 4.3-0.2 5-2 0.8-1.7 0.3-3.7 2.8-4.5 2.5-0.7 2.5-1.7 4.2 0 1.8 1.8 4.3 1.8 4-1.2-0.2-3-1.2-4.5 2-4.5 3.3 0 0.8-2.3 3.8-3.8 3-1.5 3-1.2 2.5-4.2-0.5-3-0.5-5.3-0.5-6.5 0-1.3 2.5-0.8 4.7-1 2.3-0.3 0.8-1.8 3.3-2.3 2.5-0.5 6.2 0 6.5-1.6 0.2-1.5 1.7-2.7 3.5-1.2 1.7 1.6 1.2 2.1 3.7 3.1 2.5 1 3.8 1.7 7.5 0.5 3.8-1.3 5-2.4 6.5-2.6 1.5-0.3 2.5-4.8 2.5-4.8 0 0 1.3-6.6 4-7.1 2.8-0.5 3.8-1.2 4.3-3.2 0.5-2 1.2-3.3 4-3.3 2.7 0 4-1.5 6.5 0 2.6 1.5 4.3 2.3 5.3 3.5 1 1.3 1.5 2.8 3.3 2.5 1.7-0.2 0.2-2 2.2-4 2-2 2-2.7 2.3-5 0.2-2.2 0.7-2.5 3-2.5 2.2 0 4 2 7.2 0.8 3.3-1.3 5-1.8 5.8-2.8 0.7-1 1.2-2 1.2-2 0 0-2.7-3-4-4.5-1.2-1.5-3.5-2.7-3.7-4.5-0.3-1.7-3.3-3.5-0.8-5.5 2.5-2 3-2.5 3-4.7 0-2.3 0.3-5 0.3-5 0 0 4 2 6 3 2 1 3.7 2.5 4.5 3.5 0.7 1 2.2 1.7 5.5 2.5 3.2 0.7 4 1 5.5 2.7 1.5 1.8 2.7 3.3 4.7 4.3 2 1 5 2 7.5 3 2.5 1 3 1 4.5 0 1.5-1 2.5-0.8 2.5-0.8 0 0 0.8 2 0.5 3.3-0.2 1.2-1.2 4.5-0.7 5.7 0.5 1.3 1 2 3.2 1.8 2.3-0.3 1-1.8 4-3 3-1.3 5.5-4.8 6.3-5.8 0.7-1 1.7-2.5 4-2.5 2.2 0 3.5-0.5 4.5-1 1-0.5 6.4-2.4 6.4-2.4m-662.8-71.6c0 0-2.5-4.4-4-6.2-1.5-1.7-5.2-3.5-8-3.5-2.7 0-8-0.2-8-0.2l-15.5-8c0 0-1.7 0.5-2.5 2.5-0.7 2-3 4.5-4 5.5-1 1-2.2 4-2.2 4l-2.8 3c0 0-2.7 0.7-3.5-1-0.7-1.8-4-4.8-5.7-6.3-1.8-1.5-3.5-1-4.5-3.7-1-2.8-2-5.8-2-5.8 0 0 2.2-3 3.5-4 1.2-1 1.7-5.5 0.2-7.2-1.5-1.8-6.8-5-8.3-6-1.5-1-3.5-2.5-3.5-2.5 0 0-6.3-6.8-6.3-7.8 0-1-0.2-3.2-0.2-4.2 0-1-0.8-3.3-0.8-3.3 0 0-6-2.5-7.7-2.7-1.8-0.3-3-1.1-2.5-2.9 0.5-1.7-2.5-6-2.5-6l2.6-5.2m-45.8 104.7l0.7-2.1-0.2-1.3c-0.5-0.8-1.7-1.8-2.6-1.9l-1-1.3c0.3-0.8 0.1-2.2-0.3-2.9-0.9 0.2-1.9 0.3-2.8 0.3-0.8-0.9-1.7-1.8-2.4-2.7-0.3-0.4-0.6-1-0.9-1.4-0.4-0.4-1.1-0.7-1.5-1.2-1.2-1.5-1.9-6.8-2.1-8.7-0.1-0.9-0.1-1.9-0.2-2.7-0.2-1.4-0.6-2.8-0.9-4.2-1.3-1.6-4.1-2.1-5.8-3.4-1.5-1.1-2.8-2.6-4.3-3.7-1.5-1.2-5.1-1.6-6.3-3.2l-1-8.7c1.3-1.5 6.6-2.5 7.7-3.8 0.7-0.9 1.2-2 1.8-2.9 0.7-1 0.4-1.9 0.5-3.1 0.3-1.9 0.7-8.4 0.3-10.2-0.1-0.9-0.7-1.9-0.8-2.8-0.2-1.4 0.3-3 0-4.4-1.2-1.4-1.8-1.2-3-1.9-1.4-0.9-3.2-0.4-4-1.5-1-1.4-4.8-2.6-5.7-4.2-0.4-1.6 5.4-4.3 6.2-5.5 0.6-0.8 2.4-4.4 2.3-5.4-0.1-1.4-0.3-6.6-0.9-7.8-0.9-0.4-2.1-0.9-2.9-1.5-0.6-0.4-1.3-1.8-2.6-2.6-2.8-1.7-5-2.4-7.4-5-0.6-0.9-1-1.3-1-1.3l-3.3-0.3-3.6 0.2-2.4-0.3c0 0-0.5-1-1.2-0.9-0.7 0-2.2 0-2.2 0 0 0-1.3-5-1.5-6.5-0.3-1.5-1-4.5 1-5.5 2-1 6.2-4 6.2-4l3.3-2.5 7.7-9.9c0.9-1.2 2.5-3 4-3.6 1.4-0.5 3.1-0.2 4.5-0.3 1.5-0.1 3.1-0.3 4.7-0.6 3.8-0.5 7.5-1.9 11.2-2.6l5.4-1.7c2.3-0.2 3.5 0 5.8 0.7 0 0.1-0.4 1.2-0.5 1.4 0 0 2.3 0.4 3.7 0.3 1.4-0.2 3.4-0.5 5.1 0.1 1.8 0.6 5.6 1.2 5.6 1.2l4.5 1.2h0.4c0.9-1.5 2.4-3.8 4.4-5.4 3.1-2.4 3.7-3.7 4.7-4.3 1-0.6 2.7-1.4 4.7 0.2 1.9 1.5 4.7 2.5 6.8 2.5 2 0 8.8 0.4 8.8 0.4l8.2-1.2"/>
		<text id="Dakar" style="display: none;transform: matrix(1,0,0,1,31,279)" >
			<tspan x="0" y="0" class="t2">D</tspan><tspan  y="0" class="t2">a</tspan><tspan  y="0" class="t2">k</tspan><tspan  y="0" class="t2">a</tspan><tspan  y="0" class="t2">r
</tspan>
		</text>
		<g id="TT_Regions_1_">
			<g>
				<path class="s3" d="m15.9 366.7h6.3q5.2 0 7.7 0.8 2.6 0.8 4.4 2.8 1.6 1.7 2.4 4 0.8 2.2 0.8 5.1 0 2.9-0.8 5.1-0.8 2.3-2.4 4-1.8 2-4.4 2.8-2.6 0.9-7.7 0.9h-6.3zm5.9 4.9v15.6h2.2q3.6 0 5.5-2 1.9-2 1.9-5.8 0-3.8-1.9-5.8-1.9-2-5.5-2z"/>
				<path class="s3" d="m57.9 381.3v10.9h-5.5v-2.9q-1.1 1.8-2.5 2.6-1.4 0.8-3.4 0.8-2.7 0-4.3-1.8-1.7-1.7-1.7-4.5 0-3.3 2.1-4.9 2.1-1.6 6.5-1.6h3.3v-0.5q0-1.4-1-2.1-1.1-0.7-3.2-0.7-1.8 0-3.3 0.4-1.6 0.4-2.9 1.2v-4.7q1.8-0.4 3.6-0.7 1.8-0.2 3.5-0.2 4.7 0 6.8 2 2 2.1 2 6.7zm-8.4 2.3q-1.7 0-2.6 0.6-0.8 0.7-0.8 1.9 0 1.2 0.7 1.8 0.7 0.7 1.9 0.7 1.6 0 2.6-1.2 1.1-1.3 1.1-3.1v-0.7c0 0-2.9 0-2.9 0z"/>
				<path class="s3" d="m63.1 365.6h5.5v14.5l6.3-7.1h6.4l-8.4 8.8 9.1 10.4h-6.7l-6.7-8v8h-5.5c0 0 0-26.6 0-26.6z"/>
				<path class="s3" d="m100.1 381.3v10.9h-5.5v-2.9q-1.1 1.8-2.5 2.6-1.4 0.8-3.4 0.8-2.7 0-4.3-1.8-1.7-1.7-1.7-4.5 0-3.3 2.1-4.9 2.1-1.6 6.5-1.6h3.3v-0.5q0-1.4-1.1-2.1-1-0.7-3.2-0.7-1.7 0-3.3 0.4-1.5 0.4-2.8 1.2v-4.7q1.8-0.4 3.6-0.7 1.7-0.2 3.5-0.2 4.7 0 6.8 2 2 2.1 2 6.7zm-8.4 2.3q-1.7 0-2.6 0.6-0.9 0.7-0.9 1.9 0 1.2 0.7 1.8 0.7 0.7 2 0.7 1.5 0 2.6-1.2 1.1-1.3 1.1-3.1v-0.7c0 0-2.9 0-2.9 0z"/>
				<path class="s3" d="m118 378.2q-0.7-0.3-1.4-0.5-0.7-0.2-1.5-0.2-2.1 0-3.2 1.5-1.2 1.5-1.2 4.4v8.8h-5.5v-19.2h5.5v3.2q1.1-1.9 2.5-2.8 1.3-0.8 3.3-0.8 0.3 0 0.6 0 0.3 0 0.9 0.1z"/>
			</g>
			<g>
				<path class="s3" d="m248.8 394.5h6.3q5.2 0 7.8 0.9 2.5 0.8 4.4 2.8 1.6 1.7 2.4 4 0.8 2.2 0.8 5.1 0 2.9-0.8 5.1-0.8 2.3-2.4 4-1.9 2-4.5 2.8-2.6 0.9-7.7 0.9h-6.3zm6 4.9v15.6h2.1q3.6 0 5.5-2 1.9-2 1.9-5.8 0-3.8-1.9-5.8-1.9-2-5.5-2z"/>
				<path class="s3" d="m274.7 393.5h5.5v5h-5.5zm0 7.4h5.5v19.2h-5.5z"/>
				<path class="s3" d="m293.7 400.5q4.5 0 7 2.6 2.5 2.7 2.5 7.4 0 4.7-2.5 7.4-2.5 2.7-7 2.7-4.4 0-7-2.7-2.5-2.7-2.5-7.4 0-4.7 2.5-7.4 2.6-2.6 7-2.6zm0 4.3q-1.8 0-2.8 1.5-0.9 1.5-0.9 4.2 0 2.8 0.9 4.2 1 1.5 2.8 1.5 1.8 0 2.8-1.5 0.9-1.4 0.9-4.2 0-2.7-0.9-4.2-1-1.5-2.8-1.5z"/>
				<path class="s3" d="m307 412.6v-11.7h5.5v1.9q0 1.6 0 3.9 0 2.4 0 3.2 0 2.3 0.1 3.3 0.1 1 0.4 1.5 0.3 0.6 0.8 0.9 0.6 0.3 1.3 0.3 1.7 0 2.7-1.4 1-1.5 1-4.1v-9.5h5.5v19.2h-5.5v-2.8q-1.3 1.7-2.7 2.5-1.4 0.8-3 0.8-3 0-4.6-2.1-1.5-2-1.5-5.9z"/>
				<path class="s3" d="m342.4 406.1q-0.8-0.3-1.5-0.5-0.7-0.2-1.4-0.2-2.1 0-3.3 1.5-1.1 1.5-1.1 4.3v8.9h-5.5v-19.2h5.5v3.2q1-1.9 2.4-2.8 1.4-0.8 3.3-0.8 0.3 0 0.6 0 0.4 0 1 0.1z"/>
				<path class="s3" d="m350.6 403.7q1.2-1.7 2.5-2.4 1.4-0.8 3.2-0.8 3.2 0 5.3 2.8 2 2.8 2 7.2 0 4.4-2 7.2-2.1 2.9-5.3 2.9-1.8 0-3.2-0.8-1.3-0.8-2.5-2.5v2.8h-5.5v-26.6h5.5zm3.7 12.4q1.8 0 2.7-1.5 0.9-1.4 0.9-4.1 0-2.8-0.9-4.2-0.9-1.5-2.7-1.5-1.8 0-2.7 1.5-1 1.4-1 4.2 0 2.7 1 4.1 0.9 1.5 2.7 1.5z"/>
				<path class="s3" d="m384.9 410.4v1.8h-12.9q0.2 2.1 1.4 3.2 1.2 1.1 3.3 1.1 1.8 0 3.6-0.6 1.8-0.6 3.7-1.7v4.7q-1.9 0.8-3.9 1.2-1.9 0.5-3.9 0.5-4.7 0-7.3-2.7-2.5-2.6-2.5-7.4 0-4.7 2.5-7.4 2.6-2.6 7-2.6 4.1 0 6.5 2.7 2.5 2.7 2.5 7.2zm-5.7-2q0-1.7-0.9-2.8-0.9-1.1-2.4-1.1-1.6 0-2.6 1-1 1-1.3 2.9z"/>
				<path class="s3" d="m389 393.5h5.5v26.6h-5.5z"/>
			</g>
			<g>
				<path class="s3" d="m113.9 609.9h16v4.9h-10v4.8h9.4v5h-9.4v10.8h-6z"/>
				<path class="s3" d="m149.3 624.5v10.9h-5.6v-2.9q-1.1 1.8-2.5 2.6-1.3 0.8-3.3 0.8-2.7 0-4.4-1.8-1.6-1.7-1.6-4.5 0-3.3 2-4.9 2.1-1.6 6.6-1.6h3.2v-0.5q0-1.4-1-2.1-1-0.7-3.2-0.7-1.8 0-3.3 0.4-1.5 0.4-2.8 1.2v-4.7q1.7-0.4 3.5-0.7 1.8-0.2 3.6-0.2 4.7 0 6.7 2 2.1 2.1 2.1 6.7zm-8.4 2.3q-1.7 0-2.6 0.6-0.9 0.7-0.9 1.9 0 1.2 0.7 1.8 0.7 0.7 2 0.7 1.5 0 2.6-1.2 1-1.3 1-3.1v-0.7c0 0-2.8 0-2.8 0z"/>
				<path class="s3" d="m160.4 610.8v5.4h5.7v4.4h-5.7v8.1q0 1.4 0.5 1.8 0.5 0.5 1.9 0.5h2.8v4.4h-4.7q-3.3 0-4.6-1.5-1.4-1.5-1.4-5.2v-8.1h-2.7v-4.4h2.7v-5.4z"/>
				<path class="s3" d="m169.5 608.8h5.5v5h-5.5zm0 7.4h5.5v19.2h-5.5z"/>
				<path class="s3" d="m194.2 616.8v5q-1.2-0.8-2.3-1.2-1.1-0.5-2.3-0.4-2.3 0-3.6 1.4-1.3 1.5-1.3 4.2 0 2.7 1.3 4.2 1.3 1.5 3.6 1.5 1.3 0 2.4-0.4 1.2-0.5 2.2-1.3v5q-1.3 0.5-2.7 0.8-1.3 0.3-2.6 0.3-4.7 0-7.3-2.7-2.7-2.6-2.7-7.4 0-4.7 2.7-7.4 2.6-2.6 7.3-2.6 1.3 0 2.6 0.2 1.4 0.3 2.7 0.8z"/>
				<path class="s3" d="m198.9 608.8h5.5v14.5l6.3-7.1h6.4l-8.4 8.8 9.1 10.4h-6.7l-6.7-8v8h-5.5c0 0 0-26.6 0-26.6z"/>
			</g>
			<g>
				<path class="s3" d="m435.3 527.5h5.9v9.4l8.5-9.4h6.9l-11 12.1 12.2 13.5h-7.5l-9.1-10.1v10.1h-5.9z"/>
				<path class="s3" d="m475.6 542.1v11h-5.6v-2.9q-1.1 1.8-2.5 2.6-1.3 0.8-3.3 0.8-2.7 0-4.4-1.8-1.6-1.7-1.6-4.5 0-3.3 2-4.9 2.1-1.6 6.6-1.6h3.2v-0.5q0-1.4-1-2.1-1-0.7-3.2-0.7-1.8 0-3.3 0.4-1.5 0.4-2.8 1.2v-4.7q1.7-0.4 3.5-0.7 1.8-0.2 3.6-0.2 4.7 0 6.7 2 2.1 2 2.1 6.6zm-8.4 2.4q-1.7 0-2.6 0.6-0.9 0.7-0.9 1.9 0 1.2 0.7 1.8 0.7 0.7 2 0.7 1.5 0 2.6-1.2 1-1.3 1-3.1v-0.7c0 0-2.8 0-2.8 0z"/>
				<path class="s3" d="m492 526.5v4h-3q-1.2 0-1.6 0.5-0.5 0.4-0.5 1.6v1.3h4.7v4.4h-4.7v14.8h-5.5v-14.8h-2.8v-4.4h2.8v-1.3q0-3.1 1.6-4.6 1.5-1.5 4.8-1.5c0 0 4.2 0 4.2 0z"/>
				<path class="s3" d="m505.7 526.5v4h-3q-1.2 0-1.6 0.5-0.5 0.4-0.5 1.6v1.3h4.7v4.4h-4.7v14.8h-5.5v-14.8h-2.8v-4.4h2.8v-1.3q0-3.1 1.5-4.6 1.6-1.5 4.9-1.5c0 0 4.2 0 4.2 0z"/>
				<path class="s3" d="m520.9 539.1q-0.8-0.3-1.5-0.5-0.7-0.2-1.4-0.2-2.1 0-3.3 1.5-1.1 1.5-1.1 4.3v8.9h-5.5v-19.2h5.5v3.2q1-1.9 2.4-2.8 1.4-0.8 3.3-0.8 0.3 0 0.6 0 0.3 0 1 0.1z"/>
				<path class="s3" d="m523.6 526.5h5.5v5h-5.5zm0 7.4h5.5v19.2h-5.5z"/>
				<path class="s3" d="m551.7 541.4v11.7h-5.5v-1.9-7.1q0-2.4-0.1-3.4-0.1-0.9-0.4-1.4-0.3-0.6-0.9-0.9-0.5-0.3-1.2-0.3-1.7 0-2.7 1.5-1 1.4-1 4v9.5h-5.5v-19.2h5.5v2.8q1.2-1.6 2.6-2.4 1.4-0.8 3.1-0.8 3 0 4.6 2 1.5 2 1.5 5.9z"/>
				<path class="s3" d="m574 543.4v1.8h-12.9q0.2 2.1 1.4 3.2 1.2 1.1 3.4 1.1 1.7 0 3.6-0.6 1.8-0.6 3.7-1.7v4.7q-2 0.8-3.9 1.2-2 0.5-3.9 0.5-4.7 0-7.3-2.7-2.6-2.6-2.6-7.4 0-4.7 2.6-7.4 2.5-2.6 7-2.6 4 0 6.5 2.7 2.4 2.7 2.4 7.2zm-5.6-2q0-1.7-1-2.8-0.9-1.1-2.4-1.1-1.6 0-2.6 1-1 1-1.2 2.9z"/>
			</g>
			<g>
				<path class="s3" d="m320.1 611.3h4.7v9.3l6.8-9.3h5.5l-8.8 12.1 9.7 13.4h-5.9l-7.3-10v10h-4.7z"/>
				<path class="s3" d="m352.3 625.9v10.9h-4.4v-2.8q-0.9 1.8-2 2.5-1.1 0.8-2.7 0.8-2.2 0-3.5-1.7-1.3-1.7-1.3-4.5 0-3.4 1.6-4.9 1.7-1.6 5.3-1.6h2.6v-0.5q0-1.4-0.9-2.1-0.8-0.7-2.5-0.7-1.4 0-2.7 0.4-1.2 0.4-2.2 1.2v-4.7q1.4-0.5 2.8-0.7 1.4-0.3 2.9-0.3 3.7 0 5.4 2.1 1.6 2 1.6 6.6zm-6.7 2.3q-1.4 0-2.1 0.7-0.7 0.6-0.7 1.9 0 1.2 0.6 1.8 0.5 0.7 1.5 0.7 1.3 0 2.1-1.3 0.9-1.2 0.9-3.1v-0.7c0 0-2.3 0-2.3 0z"/>
				<path class="s3" d="m362.9 617.2q3.6 0 5.6 2.7 2 2.7 2 7.4 0 4.7-2 7.4-2 2.6-5.6 2.6-3.5 0-5.5-2.6-2-2.7-2-7.4 0-4.7 2-7.4 2-2.7 5.5-2.7zm0 4.4q-1.4 0-2.2 1.5-0.8 1.4-0.8 4.2 0 2.7 0.8 4.2 0.8 1.5 2.2 1.5 1.5 0 2.3-1.5 0.7-1.5 0.7-4.2 0-2.8-0.7-4.2-0.8-1.5-2.3-1.5z"/>
				<path class="s3" d="m373.7 610.3h4.4v26.5h-4.4z"/>
				<path class="s3" d="m395.2 625.9v10.9h-4.4v-2.8q-0.9 1.8-2 2.5-1.1 0.8-2.7 0.8-2.1 0-3.5-1.7-1.3-1.7-1.3-4.5 0-3.4 1.7-4.9 1.6-1.6 5.2-1.6h2.6v-0.5q0-1.4-0.8-2.1-0.9-0.7-2.6-0.7-1.4 0-2.6 0.4-1.3 0.4-2.3 1.2v-4.7q1.4-0.5 2.8-0.7 1.5-0.3 2.9-0.3 3.7 0 5.4 2.1 1.6 2 1.6 6.6zm-6.7 2.3q-1.4 0-2.1 0.7-0.7 0.6-0.7 1.9 0 1.2 0.6 1.8 0.6 0.7 1.6 0.7 1.2 0 2-1.3 0.9-1.2 0.9-3.1v-0.7c0 0-2.3 0-2.3 0z"/>
				<path class="s3" d="m410.5 618.3v5q-0.9-0.9-1.8-1.3-1-0.4-1.9-0.4-1.9 0-2.9 1.5-1 1.5-1 4.2 0 2.7 1 4.2 1 1.5 2.9 1.5 1 0 1.9-0.5 1-0.4 1.8-1.2v5q-1.1 0.5-2.1 0.8-1.1 0.2-2.2 0.2-3.7 0-5.8-2.6-2.1-2.7-2.1-7.4 0-4.7 2.1-7.4 2.1-2.7 5.8-2.7 1.1 0 2.2 0.3 1 0.3 2.1 0.8z"/>
				<path class="s3" d="m414.3 610.3h4.4v14.4l5-7h5.1l-6.7 8.8 7.3 10.3h-5.4l-5.3-7.9v7.9h-4.4c0 0 0-26.5 0-26.5z"/>
			</g>
			<g>
				<path class="s3" d="m971.1 755.9h5.9v9.3l8.5-9.3h6.9l-11.1 12.1 12.2 13.4h-7.4l-9.1-10v10h-5.9z"/>
				<path class="s3" d="m1011.8 771.8v1.7h-12.9q0.2 2.2 1.4 3.3 1.2 1 3.4 1 1.7 0 3.6-0.5 1.8-0.6 3.7-1.8v4.8q-2 0.8-3.9 1.2-2 0.4-3.9 0.4-4.7 0-7.3-2.6-2.6-2.7-2.6-7.4 0-4.7 2.6-7.4 2.5-2.7 7-2.7 4 0 6.5 2.7 2.4 2.7 2.4 7.3zm-5.6-2q0-1.8-1-2.9-0.9-1-2.4-1-1.5 0-2.5 1-1 1-1.3 2.9zm-0.9-16.4h4.3l-5.6 6.4h-3z"/>
				<path class="s3" d="m1027.7 765.1v-10.3h5.5v26.6h-5.5v-2.8q-1.1 1.7-2.5 2.5-1.4 0.8-3.2 0.8-3.2 0-5.2-2.8-2-2.8-2-7.2 0-4.5 2-7.3 2-2.8 5.2-2.8 1.8 0 3.2 0.8 1.4 0.8 2.5 2.5zm-3.6 12.4q1.7 0 2.7-1.5 0.9-1.4 0.9-4.1 0-2.8-0.9-4.2-1-1.4-2.7-1.4-1.8 0-2.7 1.4-0.9 1.4-0.9 4.2 0 2.7 0.9 4.1 0.9 1.5 2.7 1.5z"/>
				<path class="s3" d="m1046.7 761.8q4.5 0 7 2.7 2.5 2.6 2.5 7.4 0 4.7-2.5 7.3-2.5 2.7-7 2.7-4.4 0-7-2.7-2.5-2.6-2.5-7.3 0-4.8 2.5-7.4 2.6-2.7 7-2.7zm0 4.4q-1.8 0-2.8 1.4-0.9 1.5-0.9 4.3 0 2.7 0.9 4.2 1 1.4 2.8 1.4 1.8 0 2.8-1.4 0.9-1.5 0.9-4.2 0-2.8-0.9-4.3-1-1.4-2.8-1.4z"/>
				<path class="s3" d="m1060 774v-11.7h5.5v1.9q0 1.5 0 3.9 0 2.3 0 3.1 0 2.3 0.1 3.4 0.1 1 0.4 1.4 0.3 0.6 0.8 1 0.6 0.3 1.3 0.3 1.7 0 2.7-1.5 1-1.5 1-4.1v-9.4h5.5v19.1h-5.5v-2.8q-1.3 1.7-2.7 2.5-1.4 0.8-3 0.8-3 0-4.6-2-1.5-2.1-1.5-5.9z"/>
				<path class="s3" d="m1094.3 778.2q-1.1 1.6-2.5 2.4-1.4 0.8-3.2 0.8-3.1 0-5.2-2.7-2.1-2.8-2-7.1-0.1-4.3 2-7 2.1-2.8 5.2-2.8 1.8 0 3.2 0.8 1.4 0.8 2.5 2.5v-2.8h5.5v17.2q0 4.6-2.6 7-2.6 2.5-7.6 2.5-1.6 0-3.1-0.3-1.5-0.3-3-0.8v-4.8q1.4 0.9 2.8 1.4 1.4 0.4 2.8 0.4 2.7 0 3.9-1.3 1.3-1.3 1.3-4.1c0 0 0-1.3 0-1.3zm-3.6-11.9q-1.7 0-2.7 1.4-0.9 1.4-0.9 3.9 0 2.7 0.9 4 0.9 1.4 2.7 1.4 1.7 0 2.7-1.4 0.9-1.4 0.9-4 0-2.5-0.9-3.9-1-1.4-2.7-1.4z"/>
				<path class="s3" d="m1113.3 761.8q4.5 0 7 2.7 2.5 2.6 2.5 7.4 0 4.7-2.5 7.3-2.5 2.7-7 2.7-4.4 0-7-2.7-2.5-2.6-2.5-7.3 0-4.8 2.5-7.4 2.6-2.7 7-2.7zm0 4.4q-1.8 0-2.8 1.4-0.9 1.5-0.9 4.3 0 2.7 0.9 4.2 1 1.4 2.8 1.4 1.8 0 2.8-1.4 0.9-1.5 0.9-4.2 0-2.8-0.9-4.3-1-1.4-2.8-1.4z"/>
				<path class="s3" d="m1126.6 774v-11.7h5.5v1.9q0 1.5 0 3.9 0 2.3 0 3.1 0 2.3 0.1 3.4 0.1 1 0.4 1.4 0.3 0.6 0.8 1 0.6 0.3 1.3 0.3 1.7 0 2.7-1.5 1-1.5 1-4.1v-9.4h5.5v19.1h-5.5v-2.8q-1.3 1.7-2.7 2.5-1.4 0.8-3 0.8-3 0-4.6-2-1.5-2.1-1.5-5.9z"/>
			</g>
			<g>
				<path class="s3" d="m620 752h6v9.3l8.5-9.3h6.9l-11.1 12.1 12.2 13.4h-7.4l-9.1-10v10h-6c0 0 0-25.5 0-25.5z"/>
				<path class="s3" d="m651.8 757.9q4.4 0 6.9 2.7 2.5 2.7 2.5 7.4 0 4.7-2.5 7.4-2.5 2.6-6.9 2.6-4.5 0-7-2.6-2.5-2.7-2.5-7.4 0-4.7 2.5-7.4 2.5-2.7 7-2.7zm0 4.4q-1.9 0-2.8 1.5-1 1.4-1 4.2 0 2.7 1 4.2 0.9 1.5 2.8 1.5 1.8 0 2.7-1.5 1-1.5 1-4.2 0-2.8-1-4.2-0.9-1.5-2.7-1.5z"/>
				<path class="s3" d="m665.2 751h5.5v26.5h-5.5z"/>
				<path class="s3" d="m687.7 761.2v-10.3l5.6 0.1v26.5h-5.6v-2.7q-1.1 1.7-2.5 2.5-1.4 0.7-3.2 0.7-3.1 0-5.2-2.8-2-2.8-2-7.2 0-4.4 2-7.2 2.1-2.9 5.2-2.9 1.8 0 3.2 0.8 1.4 0.8 2.5 2.5zm-3.6 12.4q1.8 0 2.7-1.4 0.9-1.5 0.9-4.2 0-2.7-0.9-4.2-0.9-1.4-2.7-1.4-1.8 0-2.7 1.4-0.9 1.5-0.9 4.2 0 2.7 0.9 4.2 0.9 1.4 2.7 1.4z"/>
				<path class="s3" d="m714.7 766.6v10.9h-5.6v-2.8q-1.1 1.7-2.5 2.5-1.4 0.8-3.3 0.8-2.7 0-4.4-1.7-1.7-1.7-1.7-4.5 0-3.4 2.1-4.9 2.1-1.6 6.6-1.6h3.2v-0.5q0-1.4-1-2.1-1-0.7-3.2-0.7-1.8 0-3.3 0.4-1.5 0.4-2.9 1.2v-4.7q1.8-0.5 3.6-0.7 1.8-0.3 3.6-0.3 4.6 0 6.7 2.1 2.1 2 2.1 6.6zm-8.4 2.3q-1.8 0-2.6 0.7-0.9 0.6-0.9 1.9 0 1.2 0.7 1.8 0.7 0.7 1.9 0.7 1.6 0 2.7-1.3 1-1.2 1-3.1v-0.7c0 0-2.8 0-2.8 0z"/>
			</g>
			<g>
				<path class="s3" d="m369.3 291.8h5.9v20.5h10.4v5h-16.3z"/>
				<path class="s3" d="m397.3 297.7q4.5 0 7 2.6 2.4 2.7 2.4 7.4 0 4.7-2.4 7.4-2.5 2.7-7 2.7-4.4 0-7-2.7-2.5-2.7-2.5-7.4 0-4.7 2.5-7.4 2.6-2.6 7-2.6zm0 4.4q-1.8 0-2.8 1.4-0.9 1.5-0.9 4.2 0 2.8 0.9 4.2 1 1.5 2.8 1.5 1.8 0 2.8-1.5 0.9-1.4 0.9-4.2 0-2.7-0.9-4.2-1-1.4-2.8-1.4z"/>
				<path class="s3" d="m410.6 309.8v-11.7h5.5v2q0 1.5 0 3.9 0 2.3 0 3.1 0 2.3 0.1 3.3 0.1 1 0.3 1.5 0.4 0.6 0.9 0.9 0.6 0.3 1.3 0.3 1.7 0 2.7-1.4 1-1.5 1-4.1v-9.5h5.5v19.2h-5.5v-2.8q-1.3 1.7-2.7 2.5-1.4 0.8-3 0.8-3 0-4.6-2.1-1.5-2-1.5-5.9z"/>
				<path class="s3" d="m444.9 314q-1.2 1.7-2.5 2.5-1.4 0.8-3.2 0.8-3.1 0-5.2-2.8-2.1-2.7-2.1-7 0-4.3 2.1-7 2.1-2.8 5.2-2.8 1.8 0 3.2 0.8 1.3 0.8 2.5 2.5v-2.9h5.5v17.2q0 4.7-2.6 7.1-2.6 2.4-7.6 2.4-1.6 0-3.1-0.2-1.5-0.3-3.1-0.9v-4.7q1.5 0.9 2.9 1.3 1.4 0.5 2.8 0.5 2.7 0 3.9-1.3 1.3-1.3 1.3-4.2c0 0 0-1.3 0-1.3zm-3.6-11.9q-1.8 0-2.7 1.4-1 1.4-1 4 0 2.6 1 4 0.9 1.3 2.7 1.3 1.7 0 2.6-1.4 1-1.4 1-3.9 0-2.6-1-4-0.9-1.4-2.6-1.4z"/>
				<path class="s3" d="m471.8 306.4v10.9h-5.5v-2.9q-1.1 1.8-2.5 2.6-1.4 0.8-3.4 0.8-2.7 0-4.3-1.8-1.7-1.7-1.7-4.5 0-3.3 2.1-4.9 2.1-1.6 6.5-1.6h3.3v-0.5q0-1.4-1-2.1-1.1-0.7-3.3-0.7-1.7 0-3.2 0.4-1.6 0.4-2.9 1.2v-4.7q1.8-0.4 3.6-0.7 1.8-0.2 3.5-0.2 4.7 0 6.8 2 2 2.1 2 6.7zm-8.4 2.3q-1.7 0-2.6 0.6-0.8 0.7-0.8 1.9 0 1.2 0.7 1.8 0.7 0.7 1.9 0.7 1.6 0 2.6-1.2 1.1-1.3 1.1-3.1v-0.7c0 0-2.9 0-2.9 0z"/>
			</g>
			<g>
				<path class="s3" d="m711.3 324.8h7.6l5.2 13.7 5.2-13.7h7.6v25.6h-5.6v-18.7l-5.3 13.7h-3.8l-5.3-13.7v18.7h-5.6c0 0 0-25.6 0-25.6z"/>
				<path class="s3" d="m758.6 339.4v11h-5.6v-2.9q-1.1 1.8-2.5 2.6-1.4 0.7-3.4 0.7-2.6 0-4.3-1.7-1.7-1.7-1.7-4.5 0-3.4 2.1-4.9 2.1-1.6 6.6-1.6h3.2v-0.5q0-1.4-1-2.1-1.1-0.7-3.2-0.7-1.8 0-3.3 0.4-1.6 0.4-2.9 1.2v-4.7q1.8-0.5 3.6-0.7 1.8-0.3 3.6-0.3 4.6 0 6.7 2.1 2.1 2 2.1 6.6zm-8.5 2.3q-1.7 0-2.5 0.7-0.9 0.6-0.9 1.9 0 1.2 0.7 1.8 0.7 0.7 1.9 0.7 1.6 0 2.6-1.3 1.1-1.2 1.1-3.1v-0.7c0 0-2.9 0-2.9 0z"/>
				<path class="s3" d="m769.7 325.8v5.4h5.7v4.4h-5.7v8.1q0 1.3 0.5 1.8 0.4 0.5 1.8 0.5h2.9v4.4h-4.7q-3.3 0-4.7-1.6-1.3-1.5-1.3-5.1v-8.1h-2.8v-4.4h2.8v-5.4z"/>
				<path class="s3" d="m794.9 339.4v11h-5.6v-2.9q-1.1 1.8-2.5 2.6-1.4 0.7-3.4 0.7-2.6 0-4.3-1.7-1.7-1.7-1.7-4.5 0-3.4 2.1-4.9 2.1-1.6 6.6-1.6h3.2v-0.5q0-1.4-1-2.1-1.1-0.7-3.2-0.7-1.8 0-3.3 0.4-1.6 0.4-2.9 1.2v-4.7q1.8-0.5 3.6-0.7 1.8-0.3 3.6-0.3 4.6 0 6.7 2.1 2.1 2 2.1 6.6zm-8.5 2.3q-1.7 0-2.6 0.7-0.8 0.6-0.8 1.9 0 1.2 0.7 1.8 0.7 0.7 1.9 0.7 1.6 0 2.6-1.3 1.1-1.2 1.1-3.1v-0.7c0 0-2.9 0-2.9 0z"/>
				<path class="s3" d="m815.9 334.4q1.1-1.8 2.5-2.7 1.4-1 3.2-1 2.9 0 4.5 2.1 1.6 2 1.6 5.9v11.7h-5.6v-10q0-0.3 0-0.5 0-0.2 0-0.7 0-2-0.5-2.9-0.5-0.9-1.7-0.9-1.6 0-2.5 1.4-0.8 1.4-0.8 4.2v9.4h-5.6v-10q0-3.2-0.5-4.1-0.5-0.9-1.7-0.9-1.6 0-2.5 1.4-0.8 1.5-0.8 4.1v9.5h-5.6v-19.2h5.6v2.8q1-1.6 2.3-2.4 1.3-0.9 2.9-0.9 1.8 0 3.1 1 1.4 1 2.1 2.7z"/>
			</g>
			<g>
				<path class="s3" d="m440.2 100.5v5.4q-1.9-1-3.7-1.5-1.8-0.4-3.4-0.4-2.1 0-3.1 0.6-1 0.7-1 2 0 1.1 0.6 1.6 0.7 0.6 2.5 1l2.6 0.6q3.8 0.8 5.4 2.6 1.6 1.7 1.6 4.9 0 4.2-2.2 6.3-2.3 2.1-6.9 2.1-2.2 0-4.4-0.5-2.2-0.5-4.4-1.4v-5.5q2.2 1.3 4.3 1.9 2 0.7 3.9 0.7 2 0 3-0.7 1-0.7 1-2.1 0-1.2-0.7-1.8-0.7-0.7-2.8-1.2l-2.3-0.5q-3.4-0.9-5-2.7-1.6-1.8-1.6-4.8 0-3.8 2.2-5.9 2.2-2 6.4-2 1.9 0 3.9 0.3 2 0.3 4.1 1z"/>
				<path class="s3" d="m462.8 114.2v11h-5.6v-2.9q-1.1 1.8-2.4 2.6-1.4 0.8-3.4 0.8-2.7 0-4.4-1.8-1.6-1.7-1.6-4.5 0-3.3 2.1-4.9 2-1.6 6.5-1.6h3.2v-0.5q0-1.4-1-2.1-1-0.7-3.2-0.7-1.8 0-3.3 0.4-1.5 0.4-2.8 1.2v-4.7q1.8-0.4 3.5-0.7 1.8-0.2 3.6-0.2 4.7 0 6.7 2 2.1 2.1 2.1 6.6zm-8.4 2.4q-1.7 0-2.6 0.6-0.9 0.7-0.9 1.9 0 1.2 0.7 1.8 0.7 0.7 2 0.7 1.5 0 2.6-1.2 1-1.3 1-3.1v-0.7c0 0-2.8 0-2.8 0z"/>
				<path class="s3" d="m467.9 98.6h5.5v5h-5.5zm0 7.4h5.5v19.2h-5.5z"/>
				<path class="s3" d="m496 113.5v11.7h-5.5v-1.9-7.1q0-2.4-0.1-3.4-0.1-0.9-0.4-1.4-0.3-0.6-0.9-0.9-0.5-0.3-1.2-0.3-1.7 0-2.7 1.5-1 1.4-1 4.1v9.4h-5.5v-19.2h5.5v2.8q1.2-1.6 2.6-2.4 1.5-0.8 3.1-0.8 3 0 4.6 2 1.5 2 1.5 5.9z"/>
				<path class="s3" d="m507.1 100.6v5.4h5.7v4.4h-5.7v8.1q0 1.4 0.5 1.8 0.5 0.5 1.9 0.5h2.8v4.4h-4.7q-3.3 0-4.6-1.5-1.4-1.6-1.4-5.2v-8.1h-2.7v-4.4h2.7v-5.4z"/>
				<path class="s3" d="m515.2 112.6h9.7v5h-9.7z"/>
				<path class="s3" d="m529.5 99.7h5.9v20.5h10.4v5h-16.3z"/>
				<path class="s3" d="m557.5 105.6q4.5 0 7 2.6 2.4 2.7 2.4 7.4 0 4.7-2.4 7.4-2.5 2.7-7 2.7-4.4 0-7-2.7-2.5-2.7-2.5-7.4 0-4.7 2.5-7.4 2.6-2.6 7-2.6zm0 4.3q-1.8 0-2.8 1.5-0.9 1.5-0.9 4.2 0 2.8 0.9 4.2 1 1.5 2.8 1.5 1.8 0 2.8-1.5 0.9-1.4 0.9-4.2 0-2.7-0.9-4.2-1-1.5-2.8-1.5z"/>
				<path class="s3" d="m570.8 117.7v-11.7h5.5v1.9q0 1.6 0 3.9 0 2.4 0 3.2 0 2.3 0.1 3.3 0.1 1 0.3 1.5 0.4 0.6 0.9 0.9 0.6 0.3 1.3 0.3 1.7 0 2.7-1.4 1-1.5 1-4.1v-9.5h5.5v19.2h-5.5v-2.8q-1.3 1.7-2.7 2.5-1.4 0.8-3 0.8-3 0-4.6-2.1-1.5-2-1.5-5.9z"/>
				<path class="s3" d="m593.4 98.6h5.5v5h-5.5zm0 7.4h5.5v19.2h-5.5z"/>
				<path class="s3" d="m617.6 106.6v4.7q-1.8-0.8-3.4-1.3-1.7-0.4-3.1-0.4-1.6 0-2.3 0.5-0.8 0.4-0.8 1.3 0 0.7 0.6 1.1 0.5 0.4 2 0.6l1 0.2q4.2 0.6 5.7 1.9 1.5 1.4 1.5 4.3 0 3.1-2.1 4.6-2 1.6-6 1.6-1.7 0-3.6-0.3-1.8-0.3-3.7-0.9v-4.7q1.6 0.9 3.4 1.4 1.7 0.4 3.5 0.4 1.6 0 2.4-0.5 0.8-0.5 0.8-1.5 0-0.8-0.5-1.2-0.6-0.4-2.3-0.6l-0.9-0.2q-3.7-0.5-5.2-1.8-1.5-1.4-1.5-4.3 0-3 1.9-4.5 1.9-1.4 5.8-1.4 1.5 0 3.2 0.2 1.6 0.3 3.6 0.8z"/>
			</g>
			<g>
				<g>
					<path class="s3" d="m381.7 754v5.4q-1.5-0.9-2.9-1.4-1.5-0.5-2.8-0.5-1.7 0-2.5 0.6-0.8 0.7-0.8 2.1 0 1 0.6 1.6 0.5 0.5 2 0.9l2 0.6q3 0.9 4.3 2.6 1.3 1.7 1.3 5 0 4.2-1.8 6.2-1.8 2.1-5.5 2.1-1.7 0-3.5-0.5-1.7-0.4-3.5-1.3v-5.6q1.8 1.3 3.4 2 1.6 0.6 3.2 0.6 1.5 0 2.3-0.7 0.9-0.7 0.9-2 0-1.2-0.6-1.9-0.6-0.6-2.2-1.1l-1.9-0.6q-2.7-0.8-4-2.6-1.3-1.8-1.3-4.9 0-3.8 1.8-5.8 1.8-2.1 5.1-2.1 1.5 0 3.1 0.3 1.6 0.4 3.3 1z"/>
					<path class="s3" d="m400.6 769.1v1.7h-10.3q0.2 2.2 1.2 3.3 0.9 1 2.6 1 1.4 0 2.9-0.5 1.4-0.6 3-1.8v4.7q-1.6 0.9-3.1 1.3-1.6 0.4-3.2 0.4-3.7 0-5.8-2.6-2.1-2.7-2.1-7.4 0-4.7 2.1-7.4 2-2.7 5.6-2.7 3.2 0 5.2 2.7 1.9 2.7 1.9 7.3zm-4.5-2q0-1.8-0.7-2.9-0.8-1-1.9-1-1.3 0-2.1 1-0.8 1-1 2.9zm-0.7-16.4h3.4l-4.5 6.4h-2.4z"/>
					<path class="s3" d="m413.4 762.4v-10.3h4.4v26.6h-4.4v-2.8q-1 1.7-2.1 2.5-1.1 0.8-2.5 0.8-2.5 0-4.2-2.8-1.6-2.8-1.6-7.2 0-4.5 1.6-7.3 1.7-2.8 4.2-2.8 1.4 0 2.5 0.8 1.1 0.8 2.1 2.5zm-3 12.4q1.5 0 2.2-1.5 0.8-1.4 0.7-4.1 0-2.8-0.7-4.2-0.7-1.5-2.2-1.5-1.4 0-2.1 1.5-0.7 1.4-0.7 4.2 0 2.7 0.7 4.1 0.7 1.5 2.1 1.5z"/>
					<path class="s3" d="m435.9 767.1v11.6h-4.5v-1.9-7q0-2.5-0.1-3.4 0-1-0.2-1.4-0.3-0.6-0.7-0.9-0.5-0.4-1-0.4-1.4 0-2.2 1.5-0.8 1.5-0.8 4.1v9.4h-4.4v-26.6h4.4v10.3q1-1.7 2.1-2.5 1.1-0.8 2.5-0.8 2.4 0 3.6 2 1.3 2.1 1.3 6z"/>
					<path class="s3" d="m439.9 752.1h4.4v5h-4.4zm0 7.5h4.4v19.1h-4.4z"/>
					<path class="s3" d="m455.1 759.1q3.6 0 5.6 2.7 2 2.6 2 7.4 0 4.7-2 7.3-2 2.7-5.6 2.7-3.5 0-5.6-2.7-2-2.6-2-7.3 0-4.8 2-7.4 2.1-2.7 5.6-2.7zm0 4.4q-1.4 0-2.2 1.4-0.8 1.5-0.8 4.3 0 2.7 0.8 4.2 0.8 1.4 2.2 1.4 1.5 0 2.2-1.4 0.8-1.5 0.8-4.2 0-2.8-0.8-4.3-0.7-1.4-2.2-1.4z"/>
					<path class="s3" d="m465.7 771.3v-11.7h4.5v1.9q0 1.5-0.1 3.9 0 2.3 0 3.1 0 2.3 0.1 3.3 0.1 1.1 0.3 1.5 0.3 0.6 0.7 0.9 0.5 0.4 1 0.4 1.4 0 2.2-1.5 0.8-1.5 0.8-4.1v-9.4h4.4v19.1h-4.4v-2.8q-1 1.7-2.1 2.5-1.2 0.8-2.5 0.8-2.4 0-3.6-2-1.3-2.1-1.3-5.9z"/>
				</g>
			</g>
			<g>
				<path class="s3" d="m772.7 580.1h21.1v4.9h-7.6v20.6h-5.9v-20.6h-7.6z"/>
				<path class="s3" d="m808.3 594.7v10.9h-5.6v-2.9q-1.1 1.8-2.5 2.6-1.4 0.8-3.4 0.8-2.6 0-4.3-1.8-1.7-1.7-1.7-4.5 0-3.3 2.1-4.9 2.1-1.6 6.6-1.6h3.2v-0.5q0-1.4-1-2.1-1.1-0.7-3.2-0.7-1.8 0-3.3 0.4-1.6 0.4-2.9 1.2v-4.7q1.8-0.4 3.6-0.7 1.8-0.2 3.6-0.2 4.6 0 6.7 2 2.1 2.1 2.1 6.7zm-8.4 2.3q-1.8 0-2.6 0.6-0.9 0.7-0.9 1.9 0 1.2 0.7 1.8 0.7 0.7 1.9 0.7 1.6 0 2.6-1.2 1.1-1.3 1.1-3.1v-0.7c0 0-2.8 0-2.8 0z"/>
				<path class="s3" d="m829.3 589.6q1.1-1.8 2.5-2.7 1.4-0.9 3.2-0.9 2.9 0 4.5 2 1.6 2 1.6 5.9v11.7h-5.6v-10q0-0.2 0-0.5 0.1-0.2 0.1-0.7 0-2-0.6-2.9-0.5-0.9-1.7-0.9-1.6 0-2.4 1.4-0.9 1.5-0.9 4.2v9.4h-5.6v-10q0-3.2-0.5-4.1-0.5-0.9-1.7-0.9-1.6 0-2.5 1.4-0.8 1.5-0.8 4.2v9.4h-5.6v-19.2h5.6v2.8q1-1.6 2.3-2.4 1.3-0.8 2.9-0.8 1.8 0 3.2 0.9 1.3 1 2 2.7z"/>
				<path class="s3" d="m851.7 589.2q1.1-1.6 2.5-2.4 1.4-0.8 3.2-0.8 3.2 0 5.2 2.8 2.1 2.8 2.1 7.2 0 4.4-2.1 7.3-2 2.8-5.2 2.8-1.8 0-3.2-0.8-1.4-0.8-2.5-2.5v2.8h-5.5v-26.6h5.5zm3.6 12.4q1.8 0 2.7-1.5 1-1.4 1-4.1 0-2.8-1-4.2-0.9-1.4-2.7-1.4-1.7 0-2.7 1.4-0.9 1.4-0.9 4.2 0 2.7 0.9 4.1 1 1.5 2.7 1.5z"/>
				<path class="s3" d="m884.9 594.7v10.9h-5.6v-2.9q-1.1 1.8-2.5 2.6-1.4 0.8-3.4 0.8-2.6 0-4.3-1.8-1.7-1.7-1.7-4.5 0-3.3 2.1-4.9 2.1-1.6 6.6-1.6h3.2v-0.5q0-1.4-1-2.1-1.1-0.7-3.2-0.7-1.8 0-3.3 0.4-1.6 0.4-2.9 1.2v-4.7q1.8-0.4 3.6-0.7 1.8-0.2 3.6-0.2 4.6 0 6.7 2 2.1 2.1 2.1 6.7zm-8.5 2.3q-1.7 0-2.6 0.6-0.8 0.7-0.8 1.9 0 1.2 0.7 1.8 0.7 0.7 1.9 0.7 1.6 0 2.6-1.2 1.1-1.3 1.1-3.1v-0.7c0 0-2.9 0-2.9 0z"/>
				<path class="s3" d="m903.9 587v5q-1.1-0.8-2.3-1.2-1.1-0.5-2.3-0.5-2.3 0-3.6 1.5-1.3 1.5-1.3 4.2 0 2.7 1.3 4.2 1.3 1.5 3.6 1.5 1.3 0 2.4-0.4 1.2-0.5 2.2-1.3v5q-1.3 0.5-2.6 0.8-1.4 0.3-2.7 0.3-4.7 0-7.3-2.7-2.6-2.6-2.6-7.4 0-4.7 2.6-7.4 2.6-2.6 7.3-2.6 1.3 0 2.7 0.2 1.3 0.3 2.6 0.8z"/>
				<path class="s3" d="m916.8 586q4.5 0 7 2.6 2.5 2.7 2.5 7.4 0 4.7-2.5 7.4-2.5 2.7-7 2.7-4.4 0-7-2.7-2.5-2.7-2.5-7.4 0-4.7 2.5-7.4 2.6-2.6 7-2.6zm0 4.3q-1.8 0-2.8 1.5-0.9 1.5-0.9 4.2 0 2.8 0.9 4.2 1 1.5 2.8 1.5 1.8 0 2.8-1.5 0.9-1.4 0.9-4.2 0-2.7-0.9-4.2-1-1.5-2.8-1.5z"/>
				<path class="s3" d="m930.1 598.1v-11.7h5.5v1.9q0 1.6 0 4 0 2.3 0 3.1 0 2.3 0.1 3.3 0.1 1 0.4 1.5 0.3 0.6 0.8 0.9 0.6 0.3 1.3 0.3 1.7 0 2.7-1.4 1-1.5 1-4.1v-9.5h5.5v19.2h-5.5v-2.8q-1.3 1.7-2.7 2.5-1.4 0.8-3 0.8-3 0-4.6-2.1-1.5-2-1.5-5.9z"/>
				<path class="s3" d="m970 593.9v11.7h-5.5v-1.9-7q0-2.5-0.1-3.5-0.1-0.9-0.4-1.3-0.3-0.6-0.9-1-0.5-0.3-1.2-0.3-1.7 0-2.7 1.5-1 1.4-1 4.1v9.4h-5.5v-19.2h5.5v2.8q1.2-1.6 2.6-2.4 1.4-0.8 3.1-0.8 3 0 4.6 2 1.5 2 1.5 5.9z"/>
				<path class="s3" d="m986.8 589.2v-10.2h5.6v26.6h-5.6v-2.8q-1.1 1.7-2.5 2.5-1.3 0.8-3.2 0.8-3.1 0-5.2-2.8-2-2.9-2-7.3 0-4.4 2-7.2 2.1-2.8 5.2-2.8 1.8 0 3.2 0.8 1.4 0.8 2.5 2.4zm-3.6 12.4q1.8 0 2.7-1.4 0.9-1.4 0.9-4.2 0-2.7-0.9-4.1-0.9-1.5-2.7-1.5-1.8 0-2.7 1.5-0.9 1.4-0.9 4.1 0 2.8 0.9 4.2 0.9 1.4 2.7 1.4z"/>
				<path class="s3" d="m1013.8 594.7v10.9h-5.6v-2.9q-1.1 1.8-2.5 2.6-1.4 0.8-3.3 0.8-2.7 0-4.4-1.8-1.7-1.7-1.7-4.5 0-3.3 2.1-4.9 2.1-1.6 6.6-1.6h3.2v-0.5q0-1.4-1-2.1-1-0.7-3.2-0.7-1.8 0-3.3 0.4-1.5 0.4-2.8 1.2v-4.7q1.7-0.4 3.5-0.7 1.8-0.2 3.6-0.2 4.6 0 6.7 2 2.1 2.1 2.1 6.7zm-8.4 2.3q-1.8 0-2.6 0.6-0.9 0.7-0.9 1.9 0 1.2 0.7 1.8 0.7 0.7 2 0.7 1.5 0 2.6-1.2 1-1.3 1-3.1v-0.7c0 0-2.8 0-2.8 0z"/>
			</g>
			<g>
				<path class="s3" d="m129.3 410.1h19v5h-6.8v20.6h-5.4v-20.6h-6.8c0 0 0-5 0-5z"/>
				<path class="s3" d="m166.4 424v11.7h-4.9v-1.9-7q0-2.5-0.1-3.5-0.1-0.9-0.3-1.4-0.3-0.6-0.8-0.9-0.5-0.3-1.2-0.3-1.5 0-2.4 1.4-0.9 1.5-0.9 4.1v9.5h-4.9v-26.6h4.9v10.2q1.1-1.7 2.4-2.5 1.3-0.7 2.8-0.7 2.7 0 4.1 2 1.3 2 1.3 5.9z"/>
				<path class="s3" d="m171 409.1h5v5h-5zm0 7.4h5v19.1h-5z"/>
				<path class="s3" d="m196.2 426v1.8h-11.6q0.2 2.1 1.3 3.2 1.1 1.1 3 1.1 1.6 0 3.2-0.6 1.7-0.6 3.4-1.7v4.7q-1.8 0.8-3.5 1.2-1.8 0.5-3.5 0.5-4.3 0-6.6-2.7-2.3-2.6-2.3-7.4 0-4.7 2.3-7.4 2.3-2.6 6.3-2.6 3.6 0 5.8 2.7 2.2 2.7 2.2 7.2zm-9.6-18.3l3.9 6.4h-2.7l-5.1-6.4zm4.5 16.3q0-1.7-0.8-2.8-0.8-1.1-2.2-1.1-1.4 0-2.3 1-0.9 1-1.1 2.9z"/>
				<path class="s3" d="m212.1 417.1v4.7q-1.6-0.9-3.1-1.3-1.5-0.4-2.8-0.4-1.4 0-2.1 0.5-0.7 0.4-0.7 1.3 0 0.7 0.6 1.1 0.5 0.4 1.8 0.6l0.9 0.2q3.8 0.6 5.1 1.9 1.3 1.4 1.3 4.3 0 3.1-1.8 4.6-1.8 1.5-5.5 1.5-1.5 0-3.1-0.2-1.7-0.3-3.4-0.9v-4.7q1.5 0.9 3 1.3 1.6 0.5 3.2 0.5 1.4 0 2.2-0.5 0.7-0.5 0.7-1.5 0-0.8-0.5-1.2-0.5-0.4-2-0.6l-0.9-0.2q-3.3-0.5-4.6-1.9-1.3-1.3-1.3-4.2 0-3 1.6-4.5 1.7-1.4 5.2-1.4 1.4 0 2.9 0.2 1.5 0.3 3.3 0.8z"/>
			</g>
			<g>
				<path class="s3" d="m146.2 757.2h19.2v4l-12.3 16.5h12.7v5h-20v-4l12.3-16.5h-11.9z"/>
				<path class="s3" d="m169.9 756.1h5.5v5h-5.5zm0 7.5h5.5v19.1h-5.5z"/>
				<path class="s3" d="m192.4 779.5q-1.2 1.6-2.5 2.4-1.4 0.8-3.2 0.8-3.2 0-5.2-2.8-2.1-2.7-2.1-7 0-4.3 2.1-7 2-2.8 5.2-2.8 1.8 0 3.2 0.8 1.3 0.8 2.5 2.5v-2.8h5.5v17.2q0 4.6-2.6 7-2.6 2.5-7.6 2.5-1.6 0-3.2-0.3-1.5-0.3-3-0.8v-4.8q1.5 0.9 2.8 1.4 1.4 0.4 2.8 0.4 2.7 0 4-1.3 1.3-1.3 1.3-4.1zm-3.7-11.9q-1.7 0-2.6 1.4-1 1.4-1 3.9 0 2.7 0.9 4 1 1.4 2.7 1.4 1.7 0 2.7-1.4 1-1.4 1-4 0-2.5-1-3.9-1-1.4-2.7-1.4z"/>
				<path class="s3" d="m203 775.3v-11.7h5.5v1.9q0 1.5 0 3.9 0 2.3 0 3.1 0 2.3 0.1 3.3 0.1 1.1 0.4 1.5 0.3 0.6 0.9 0.9 0.5 0.4 1.2 0.4 1.7 0 2.7-1.5 1-1.5 1-4.1v-9.4h5.5v19.1h-5.5v-2.8q-1.2 1.7-2.6 2.5-1.4 0.8-3.1 0.8-3 0-4.5-2-1.6-2.1-1.6-5.9z"/>
				<path class="s3" d="m225.6 756.1h5.5v5h-5.5zm0 7.5h5.5v19.1h-5.5z"/>
				<path class="s3" d="m253.7 771.1v11.6h-5.5v-1.9-7q0-2.5-0.1-3.4-0.1-1-0.4-1.4-0.3-0.6-0.9-0.9-0.5-0.4-1.2-0.4-1.7 0-2.7 1.5-1 1.5-1 4.1v9.4h-5.5v-19.1h5.5v2.8q1.2-1.7 2.6-2.5 1.4-0.8 3.1-0.8 3 0 4.6 2 1.5 2.1 1.5 6z"/>
				<path class="s3" d="m272.7 764.2v5q-1.1-0.9-2.2-1.3-1.2-0.4-2.4-0.4-2.3 0-3.6 1.5-1.2 1.5-1.2 4.2 0 2.6 1.2 4.1 1.3 1.5 3.6 1.5 1.3 0 2.5-0.4 1.1-0.4 2.1-1.3v5q-1.3 0.6-2.6 0.8-1.3 0.3-2.7 0.3-4.6 0-7.3-2.7-2.6-2.6-2.6-7.3 0-4.8 2.6-7.4 2.7-2.7 7.3-2.7 1.4 0 2.7 0.3 1.3 0.2 2.6 0.8z"/>
				<path class="s3" d="m294.8 771.1v11.6h-5.6v-1.9-7q0-2.5-0.1-3.4-0.1-1-0.3-1.4-0.3-0.6-0.9-0.9-0.5-0.4-1.2-0.4-1.8 0-2.7 1.5-1 1.5-1 4.1v9.4h-5.5v-26.6h5.5v10.3q1.2-1.7 2.6-2.5 1.4-0.8 3.1-0.8 3 0 4.5 2 1.6 2.1 1.6 6z"/>
				<path class="s3" d="m308.1 763.1q4.4 0 6.9 2.7 2.5 2.6 2.5 7.4 0 4.7-2.5 7.3-2.5 2.7-6.9 2.7-4.5 0-7-2.7-2.5-2.6-2.5-7.3 0-4.8 2.5-7.4 2.5-2.7 7-2.7zm0 4.4q-1.9 0-2.8 1.4-1 1.5-1 4.3 0 2.7 1 4.2 0.9 1.4 2.8 1.4 1.8 0 2.7-1.4 1-1.5 1-4.2 0-2.8-1-4.3-0.9-1.4-2.7-1.4z"/>
				<path class="s3" d="m334.3 768.8q-0.7-0.4-1.4-0.6-0.7-0.2-1.5-0.2-2.1 0-3.2 1.6-1.2 1.5-1.2 4.3v8.8h-5.5v-19.1h5.5v3.1q1.1-1.9 2.5-2.7 1.3-0.9 3.3-0.9 0.2 0 0.6 0 0.3 0.1 0.9 0.1z"/>
			</g>
			<text id="Text layer 157" style="transform: matrix(1,0,0,1,1630,-10)" >
			</text>
		</g>
	</g>
</svg>